<svg width="17" height="16" viewBox="0 0 17 16" fill="none" xmlns="http://www.w3.org/2000/svg">
<path d="M2.60547 6.52637V14.4282C2.60547 14.5702 2.66191 14.7065 2.76238 14.807C2.86284 14.9074 2.9991 14.9639 3.14118 14.9639H6.35547V10.4103C6.35547 10.1972 6.44013 9.99278 6.59083 9.84209C6.74153 9.69139 6.94592 9.60672 7.15904 9.60672H9.83761C10.0507 9.60672 10.2551 9.69139 10.4058 9.84209C10.5565 9.99278 10.6412 10.1972 10.6412 10.4103V14.9639H13.8555C13.9975 14.9639 14.1338 14.9074 14.2343 14.807C14.3347 14.7065 14.3912 14.5702 14.3912 14.4282V6.52637" stroke="#8A9BCA" stroke-linecap="round" stroke-linejoin="round"/>
<path d="M13.3214 5.42146V1.57102H11.7143V3.88129M16 7.99959L8.86462 1.16923C8.69721 0.992447 8.3058 0.990438 8.13538 1.16923L1 7.99959H16Z" stroke="#8A9BCA" stroke-linecap="round" stroke-linejoin="round"/>
</svg>
