<svg width="17" height="16" viewBox="0 0 17 16" fill="none" xmlns="http://www.w3.org/2000/svg">
<path d="M15.5318 12.2542C14.9592 11.6772 13.5724 10.8353 12.8995 10.496C12.0233 10.0546 11.9512 10.0186 11.2625 10.5302C10.8031 10.8717 10.4977 11.1768 9.96004 11.0621C9.42241 10.9474 8.25411 10.3009 7.23113 9.28115C6.20815 8.26142 5.52411 7.05923 5.40909 6.5234C5.29406 5.98757 5.60416 5.68575 5.94239 5.22529C6.41909 4.57623 6.38303 4.46806 5.97557 3.59183C5.65789 2.91033 4.7914 1.5365 4.2123 0.96677C3.59282 0.354856 3.59282 0.463031 3.19365 0.628901C2.86868 0.765631 2.55691 0.931834 2.26226 1.12543C1.68532 1.50873 1.36512 1.82713 1.1412 2.30562C0.917272 2.78412 0.816668 3.9059 1.97307 6.00668C3.12947 8.10745 3.94078 9.18163 5.62003 10.8562C7.29928 12.5308 8.59054 13.4311 10.4782 14.4898C12.8134 15.7977 13.7091 15.5427 14.189 15.3192C14.6689 15.0956 14.9888 14.7783 15.3728 14.2013C15.5669 13.9072 15.7335 13.5958 15.8704 13.271C16.0366 12.8733 16.1448 12.8733 15.5318 12.2542Z" stroke="#8A9BCA" stroke-miterlimit="10"/>
</svg>
