<svg width="28" height="28" viewBox="0 0 28 28" fill="none" xmlns="http://www.w3.org/2000/svg">
<path opacity="0.2" d="M27.5791 17.3874C25.7092 24.8877 18.1122 29.4518 10.6111 27.5819C3.11343 25.712 -1.45113 18.115 0.41923 10.6152C2.28828 3.11404 9.88481 -1.45097 17.3838 0.41896C24.8845 2.28889 29.449 9.88672 27.5791 17.3874Z" fill="#F7931A"/>
<path fill-rule="evenodd" clip-rule="evenodd" d="M19.121 12.7199C19.3443 11.2249 18.206 10.4213 16.6496 9.88514L17.1545 7.86002L15.9214 7.55281L15.4299 9.52456C15.1062 9.44381 14.7734 9.36762 14.4426 9.29214L14.9377 7.30739L13.7057 7.00018L13.2005 9.0246C12.9322 8.96351 12.6689 8.90312 12.4133 8.83958L12.4147 8.83326L10.7147 8.40878L10.3868 9.72539C10.3868 9.72539 11.3014 9.935 11.2821 9.94799C11.7813 10.0726 11.8719 10.403 11.8565 10.6649L11.2814 12.972C11.3158 12.9808 11.3604 12.9934 11.4095 13.0131L11.2796 12.9808L10.4731 16.2126C10.412 16.3643 10.2572 16.5918 9.90823 16.5054C9.92051 16.5233 9.01223 16.2818 9.01223 16.2818L8.40027 17.6932L10.0048 18.0931C10.1858 18.1384 10.3647 18.1851 10.5416 18.2313L10.5418 18.2313C10.6564 18.2612 10.7702 18.2909 10.8832 18.3199L10.3731 20.3685L11.6044 20.6757L12.1099 18.6492C12.4459 18.7405 12.7725 18.8248 13.092 18.9041L12.5885 20.9211L13.8212 21.2284L14.3313 19.1839C16.4333 19.5817 18.0143 19.4213 18.679 17.5204C19.2151 15.9896 18.6526 15.1066 17.5467 14.5305C18.3521 14.3441 18.9588 13.8143 19.1206 12.7199H19.121ZM16.3042 16.6692C15.9543 18.0742 13.7547 17.4929 12.7492 17.2271C12.6591 17.2033 12.5787 17.182 12.5099 17.165L13.1869 14.4513C13.2708 14.4723 13.3734 14.4953 13.4897 14.5214L13.4897 14.5214C14.5299 14.7548 16.6618 15.2332 16.3046 16.6692H16.3042ZM13.6986 13.2622C14.5376 13.4861 16.3665 13.974 16.6851 12.6977C17.0108 11.392 15.2324 10.9984 14.3639 10.8062C14.2663 10.7846 14.1801 10.7656 14.1098 10.748L13.4961 13.2092C13.5541 13.2237 13.6223 13.2419 13.6986 13.2622Z" fill="#F7931A"/>
</svg>
