<svg width="28" height="28" viewBox="0 0 28 28" fill="none" xmlns="http://www.w3.org/2000/svg">
<path d="M14.0001 28C21.732 28 28.0001 21.732 28.0001 14C28.0001 6.26801 21.732 0 14.0001 0C6.26807 0 6.10352e-05 6.26801 6.10352e-05 14C6.10352e-05 21.732 6.26807 28 14.0001 28Z" fill="#0086B6"/>
<mask id="mask0_5_4470" style="mask-type:luminance" maskUnits="userSpaceOnUse" x="0" y="0" width="28" height="28">
<path d="M14.0001 28C21.732 28 28.0001 21.732 28.0001 14C28.0001 6.26801 21.732 0 14.0001 0C6.26807 0 6.10352e-05 6.26801 6.10352e-05 14C6.10352e-05 21.732 6.26807 28 14.0001 28Z" fill="white"/>
</mask>
<g mask="url(#mask0_5_4470)">
<path fill-rule="evenodd" clip-rule="evenodd" d="M8.00591 8.91512C9.72941 7.99604 11.9056 7.53715 14.5345 7.53845C17.1624 7.53845 19.3386 7.99734 21.0631 8.91512C21.3661 9.07655 21.5444 9.38401 21.523 9.70826L21.1761 14.9321C21.0283 17.1494 19.7578 19.1698 17.7527 20.3765L15.0347 22.0134C14.7303 22.1967 14.3385 22.1967 14.0341 22.0134L11.3162 20.3766C9.31105 19.1698 8.04067 17.1494 7.89287 14.9321L7.54599 9.70826C7.52456 9.38401 7.70285 9.07655 8.00591 8.91512Z" stroke="white" stroke-width="0.5"/>
<path d="M8.08057 8.91795L14.2598 19.2986C14.3201 19.3997 14.4346 19.4623 14.5588 19.462C14.683 19.4617 14.7972 19.3985 14.8568 19.2972L20.9883 8.86688" stroke="white" stroke-width="0.5"/>
<path d="M8.55743 17.4589L14.4177 7.73024C14.4541 7.66983 14.5229 7.63261 14.5974 7.63306C14.6718 7.63352 14.7401 7.67158 14.7757 7.73242L20.4775 17.5017" stroke="white" stroke-width="0.5"/>
<path d="M18.0385 14.3877C18.4426 14.3877 18.7701 14.0598 18.7701 13.6554C18.7701 13.251 18.4426 12.9231 18.0385 12.9231C17.6344 12.9231 17.3069 13.251 17.3069 13.6554C17.3069 14.0598 17.6344 14.3877 18.0385 14.3877Z" fill="white"/>
<path d="M14.5385 20.3108C14.9426 20.3108 15.2701 19.9829 15.2701 19.5785C15.2701 19.1741 14.9426 18.8462 14.5385 18.8462C14.1344 18.8462 13.8069 19.1741 13.8069 19.5785C13.8069 19.9829 14.1344 20.3108 14.5385 20.3108Z" fill="white"/>
<path d="M10.7693 14.3877C11.1733 14.3877 11.5009 14.0598 11.5009 13.6554C11.5009 13.251 11.1733 12.9231 10.7693 12.9231C10.3652 12.9231 10.0377 13.251 10.0377 13.6554C10.0377 14.0598 10.3652 14.3877 10.7693 14.3877Z" fill="white"/>
<path d="M14.5385 19.7885V21.6731" stroke="white" stroke-width="0.5" stroke-linecap="square"/>
<path d="M8.53851 17.4327C9.04213 17.5441 11.7481 19.1818 14.7917 19.8762L20.5385 17.4327" stroke="white" stroke-width="0.5"/>
</g>
</svg>
