<svg width="28" height="28" viewBox="0 0 28 28" fill="none" xmlns="http://www.w3.org/2000/svg">
<path d="M27.9241 14.0002C27.9241 21.6915 21.6892 27.9266 13.998 27.9266C6.30673 27.9266 0.0717773 21.6915 0.0717773 14.0002C0.0717773 6.30904 6.30673 0.0740967 13.998 0.0740967C21.6891 0.0740967 27.9241 6.30904 27.9241 14.0002Z" fill="white"/>
<path fill-rule="evenodd" clip-rule="evenodd" d="M11.8565 10.318H8.02783V11.5536H11.8565V10.318ZM8.64534 16.002H17.6241C18.8962 15.9894 19.9212 17.0026 19.9458 18.2756C19.9458 19.536 18.859 20.574 17.6116 20.574H8.64534V16.002Z" fill="#014655"/>
<path fill-rule="evenodd" clip-rule="evenodd" d="M13.9931 0C6.26165 0 6.10352e-05 6.26472 6.10352e-05 14C6.10352e-05 21.7353 6.26165 28 13.9931 28C21.7245 28 27.9861 21.7353 27.9861 14C27.9984 6.26472 21.7243 0 13.9931 0ZM14.4501 6.24008H21.1193V7.59934H15.9321V11.5534H19.7607V10.318H17.0435V8.95846H21.2427V12.9126H14.4501V6.24008ZM10.9918 6.3637H6.79282V7.96992H10.9918V6.3637ZM6.66927 8.9586H11.9799V6.24008H13.4613V12.9126H6.66927V8.9586ZM6.79282 22.3037H17.9328V22.3035C20.094 22.3035 21.8604 20.4873 21.8604 18.2878C21.8604 16.0882 20.0943 14.2719 17.9329 14.2719H6.79282V22.3037Z" fill="#014655"/>
<path d="M6.79285 6.36371H10.9919V7.96993H6.79285V6.36371Z" fill="#C39145"/>
</svg>
