<svg width="28" height="28" viewBox="0 0 28 28" fill="none" xmlns="http://www.w3.org/2000/svg">
<path opacity="0.42" d="M27.9241 14.0002C27.9241 21.6915 21.6892 27.9266 13.998 27.9266C6.30673 27.9266 0.0717773 21.6915 0.0717773 14.0002C0.0717773 6.30904 6.30673 0.0740967 13.998 0.0740967C21.6891 0.0740967 27.9241 6.30904 27.9241 14.0002Z" fill="#F6D43D"/>
<path d="M17.9116 19.8191L17.5903 18.3599C17.572 18.2741 17.5261 18.2098 17.4525 18.1672C17.373 18.1243 17.2935 18.1183 17.214 18.1489L17.168 18.1672L17.0578 18.1947C17.0088 18.2067 16.9522 18.2206 16.8879 18.2359C16.8237 18.2512 16.7489 18.2664 16.6631 18.2818C16.5777 18.2971 16.487 18.3109 16.3924 18.3231C16.2976 18.3351 16.1953 18.346 16.0851 18.3553C15.9748 18.3643 15.8648 18.3689 15.7546 18.3689C14.9775 18.3689 14.2783 18.1594 13.6573 17.7403C13.0363 17.321 12.5789 16.7535 12.2852 16.0378H15.837C15.9044 16.0378 15.9656 16.0149 16.0205 15.9689C16.0758 15.9231 16.1094 15.8665 16.1214 15.799L16.3417 14.771C16.3601 14.6795 16.3417 14.5968 16.2868 14.5233C16.2256 14.4498 16.1489 14.413 16.0573 14.413H11.8447C11.8264 13.997 11.8264 13.6758 11.8447 13.4493H16.3236C16.489 13.4493 16.5868 13.3699 16.6173 13.2108L16.8376 12.1645C16.8558 12.0788 16.8347 11.9994 16.7733 11.9259C16.7185 11.8524 16.642 11.8156 16.5441 11.8156H12.2486C12.5545 11.1303 13.0134 10.5919 13.6254 10.2003C14.2372 9.80854 14.9287 9.6128 15.6996 9.6128C15.7242 9.60058 15.8143 9.60367 15.9702 9.62199C16.1263 9.64025 16.2151 9.64797 16.2365 9.64488C16.2576 9.64186 16.3375 9.65109 16.475 9.67237C16.6127 9.69378 16.6816 9.70451 16.6816 9.70451L16.8422 9.7366C16.8882 9.74586 16.9234 9.75338 16.9478 9.75958L16.9845 9.76871C17.064 9.7933 17.1372 9.78559 17.2048 9.74585C17.2722 9.70596 17.3151 9.64639 17.3334 9.56686L17.7281 8.10755C17.7464 8.02799 17.7371 7.95456 17.7007 7.88728C17.6455 7.81373 17.5842 7.76785 17.5169 7.74956C16.9541 7.60885 16.3603 7.53845 15.7363 7.53845C14.3656 7.53845 13.1404 7.93016 12.0604 8.71326C10.9805 9.49643 10.2355 10.5306 9.82548 11.8155H8.92611C8.8404 11.8155 8.7701 11.843 8.715 11.898C8.66006 11.953 8.63245 12.0234 8.63245 12.1091V13.1555C8.63245 13.2411 8.65996 13.3115 8.715 13.3664C8.77013 13.4216 8.84053 13.449 8.92611 13.449H9.54108C9.5226 13.7428 9.51967 14.0638 9.53182 14.4128H8.92611C8.84658 14.4128 8.77775 14.4418 8.71963 14.4999C8.66154 14.558 8.63245 14.6269 8.63245 14.7063V15.7435C8.63245 15.8232 8.66154 15.8918 8.71963 15.9501C8.77778 16.0082 8.84658 16.037 8.92611 16.037H9.79806C10.1835 17.3893 10.9117 18.4648 11.9825 19.2632C13.0534 20.0619 14.3046 20.461 15.7363 20.461C15.8527 20.461 15.9704 20.4582 16.0898 20.4518C16.2094 20.4457 16.3208 20.4364 16.4249 20.4243C16.5289 20.4122 16.6314 20.3986 16.7324 20.3832C16.8333 20.3678 16.9251 20.3527 17.0076 20.3372C17.0902 20.322 17.1683 20.3067 17.2416 20.2915C17.3151 20.276 17.3809 20.2594 17.4391 20.2409C17.4972 20.2228 17.5459 20.2089 17.5859 20.1999C17.6257 20.1907 17.6578 20.1798 17.6821 20.1678L17.7281 20.1585C17.7955 20.1341 17.8475 20.0897 17.8841 20.0253C17.9209 19.9615 17.9299 19.8925 17.9116 19.8191Z" fill="#D6C533"/>
</svg>
