<svg width="1928" height="102" viewBox="0 0 1928 102" fill="none" xmlns="http://www.w3.org/2000/svg">
<rect width="1928" height="102" fill="none"/>
<path d="M1690.5 51C1690.5 51.008 1690.5 51.0437 1690.47 51.1231C1690.44 51.2085 1690.37 51.3576 1690.22 51.569C1689.9 52.0107 1689.29 52.6116 1688.25 53.3309C1686.14 54.7788 1682.78 56.3455 1678.04 57.966C1668.59 61.1911 1654.48 64.3566 1636.06 67.3983C1599.28 73.4731 1545.96 78.9589 1479.94 83.571C1347.94 92.7929 1165.53 98.5 964 98.5C762.471 98.5 580.056 92.7929 448.056 83.571C382.04 78.9589 328.715 73.4731 291.937 67.3983C273.522 64.3566 259.408 61.1911 249.962 57.966C245.216 56.3455 241.857 54.7788 239.753 53.3309C238.707 52.6116 238.103 52.0107 237.783 51.569C237.629 51.3576 237.56 51.2085 237.529 51.1231C237.5 51.0438 237.5 51.008 237.5 51V51V51C237.5 50.992 237.5 50.9562 237.529 50.8769C237.56 50.7915 237.629 50.6424 237.783 50.431C238.103 49.9893 238.707 49.3884 239.753 48.6691C241.857 47.2212 245.216 45.6545 249.962 44.034C259.408 40.8089 273.522 37.6434 291.937 34.6017C328.715 28.5269 382.04 23.0411 448.056 18.429C580.056 9.20713 762.471 3.5 964 3.5C1165.53 3.5 1347.94 9.20713 1479.94 18.429C1545.96 23.0411 1599.28 28.5269 1636.06 34.6017C1654.48 37.6434 1668.59 40.8089 1678.04 44.034C1682.78 45.6545 1686.14 47.2212 1688.25 48.6691C1689.29 49.3884 1689.9 49.9893 1690.22 50.431C1690.37 50.6424 1690.44 50.7915 1690.47 50.8769C1690.5 50.9563 1690.5 50.992 1690.5 51Z" stroke="url(#paint0_linear_0_1)" stroke-width="7"/>
<path opacity="0.5" d="M1825 51C1825 51.2687 1824.89 51.6992 1824.36 52.3223C1823.81 52.9589 1822.91 53.6901 1821.54 54.4858C1818.8 56.0771 1814.61 57.7125 1808.91 59.3568C1797.56 62.6365 1780.71 65.8236 1758.9 68.8707C1715.31 74.9613 1652.18 80.4524 1574.12 85.0659C1417.99 94.2921 1202.28 100 964 100C725.716 100 510.007 94.2921 353.885 85.0659C275.816 80.4524 212.687 74.9613 169.096 68.8707C147.286 65.8236 130.445 62.6365 119.088 59.3568C113.394 57.7125 109.196 56.0771 106.461 54.4858C105.094 53.6901 104.187 52.9589 103.641 52.3223C103.106 51.6992 103 51.2687 103 51C103 50.7313 103.106 50.3008 103.641 49.6777C104.187 49.0411 105.094 48.3099 106.461 47.5142C109.196 45.9229 113.394 44.2875 119.088 42.6432C130.445 39.3635 147.286 36.1764 169.096 33.1293C212.687 27.0387 275.816 21.5476 353.885 16.9341C510.007 7.70787 725.716 2 964 2C1202.28 2 1417.99 7.70787 1574.12 16.9341C1652.18 21.5476 1715.31 27.0387 1758.9 33.1293C1780.71 36.1764 1797.56 39.3635 1808.91 42.6432C1814.61 44.2875 1818.8 45.9229 1821.54 47.5142C1822.91 48.3099 1823.81 49.0411 1824.36 49.6777C1824.89 50.3008 1825 50.7313 1825 51Z" stroke="url(#paint1_linear_0_1)" stroke-width="4"/>
<path opacity="0.2" d="M1926.5 51C1926.5 51.3655 1926.33 51.8881 1925.66 52.5867C1924.99 53.291 1923.9 54.0652 1922.33 54.8841C1919.19 56.5196 1914.42 58.1753 1908.04 59.826C1895.29 63.1214 1876.43 66.3145 1852.06 69.3631C1803.33 75.458 1732.78 80.9506 1645.57 85.5645C1471.16 94.7919 1230.18 100.5 964 100.5C697.816 100.5 456.844 94.7919 282.428 85.5645C195.215 80.9506 124.67 75.458 75.9421 69.3631C51.5688 66.3145 32.7065 63.1214 19.9605 59.826C13.5756 58.1753 8.80947 56.5196 5.67004 54.8841C4.09794 54.0652 3.01221 53.291 2.33744 52.5867C1.66811 51.8881 1.5 51.3655 1.5 51C1.5 50.6345 1.66811 50.1119 2.33744 49.4133C3.01221 48.709 4.09794 47.9348 5.67004 47.1159C8.80947 45.4804 13.5756 43.8247 19.9605 42.174C32.7065 38.8786 51.5688 35.6855 75.9421 32.6369C124.67 26.542 195.215 21.0494 282.428 16.4355C456.844 7.20807 697.816 1.5 964 1.5C1230.18 1.5 1471.16 7.20807 1645.57 16.4355C1732.78 21.0494 1803.33 26.542 1852.06 32.6369C1876.43 35.6855 1895.29 38.8786 1908.04 42.174C1914.42 43.8247 1919.19 45.4804 1922.33 47.1159C1923.9 47.9348 1924.99 48.709 1925.66 49.4133C1926.33 50.1119 1926.5 50.6345 1926.5 51Z" stroke="url(#paint2_linear_0_1)" stroke-width="3"/>
<defs>
<linearGradient id="paint0_linear_0_1" x1="964" y1="0" x2="964" y2="102" gradientUnits="userSpaceOnUse">
<stop offset="0.270833" stop-color="white" stop-opacity="0"/>
<stop offset="1" stop-color="#2D6ADE"/>
</linearGradient>
<linearGradient id="paint1_linear_0_1" x1="964" y1="0" x2="964" y2="102" gradientUnits="userSpaceOnUse">
<stop offset="0.270833" stop-color="white" stop-opacity="0"/>
<stop offset="1" stop-color="#BD24DF"/>
</linearGradient>
<linearGradient id="paint2_linear_0_1" x1="964" y1="0" x2="964" y2="102" gradientUnits="userSpaceOnUse">
<stop offset="0.270833" stop-color="white" stop-opacity="0"/>
<stop offset="1" stop-color="#BD24DF"/>
</linearGradient>
</defs>
</svg>
