<svg width="201" height="64" viewBox="0 0 201 64" fill="none" xmlns="http://www.w3.org/2000/svg">
<path d="M71.08 32.22C71.08 29.7 71.584 27.456 72.592 25.488C73.624 23.52 75.088 21.996 76.984 20.916C78.88 19.812 81.112 19.26 83.68 19.26C85.888 19.26 87.856 19.68 89.584 20.52C91.336 21.336 92.752 22.5 93.832 24.012C94.936 25.524 95.668 27.288 96.028 29.304H87.604C87.22 28.464 86.668 27.816 85.948 27.36C85.252 26.88 84.448 26.64 83.536 26.64C82.192 26.64 81.124 27.144 80.332 28.152C79.564 29.16 79.18 30.516 79.18 32.22C79.18 33.924 79.564 35.28 80.332 36.288C81.124 37.296 82.192 37.8 83.536 37.8C84.448 37.8 85.252 37.572 85.948 37.116C86.668 36.636 87.22 35.976 87.604 35.136H96.028C95.668 37.152 94.936 38.916 93.832 40.428C92.752 41.94 91.336 43.116 89.584 43.956C87.856 44.772 85.888 45.18 83.68 45.18C81.112 45.18 78.88 44.64 76.984 43.56C75.088 42.456 73.624 40.92 72.592 38.952C71.584 36.984 71.08 34.74 71.08 32.22ZM106.897 28.44C107.713 27.264 108.709 26.328 109.885 25.632C111.061 24.912 112.285 24.552 113.557 24.552V33.084H111.289C109.777 33.084 108.661 33.348 107.941 33.876C107.245 34.404 106.897 35.34 106.897 36.684V45H98.9055V24.696H106.897V28.44ZM138.642 24.696L125.646 54.72H116.898L122.01 43.992L113.55 24.696H122.442L126.258 34.992L129.822 24.696H138.642ZM148.065 27.468C148.569 26.532 149.289 25.8 150.225 25.272C151.185 24.72 152.325 24.444 153.645 24.444C155.229 24.444 156.657 24.864 157.929 25.704C159.201 26.52 160.197 27.72 160.917 29.304C161.661 30.864 162.033 32.712 162.033 34.848C162.033 36.984 161.661 38.844 160.917 40.428C160.197 41.988 159.201 43.188 157.929 44.028C156.657 44.844 155.229 45.252 153.645 45.252C152.325 45.252 151.185 44.988 150.225 44.46C149.289 43.908 148.569 43.164 148.065 42.228V54.72H140.073V24.696H148.065V27.468ZM153.933 34.848C153.933 33.768 153.657 32.928 153.105 32.328C152.553 31.728 151.845 31.428 150.981 31.428C150.117 31.428 149.409 31.728 148.857 32.328C148.305 32.928 148.029 33.768 148.029 34.848C148.029 35.928 148.305 36.768 148.857 37.368C149.409 37.968 150.117 38.268 150.981 38.268C151.845 38.268 152.553 37.968 153.105 37.368C153.657 36.768 153.933 35.928 153.933 34.848ZM177.178 38.196V45H174.154C168.586 45 165.802 42.228 165.802 36.684V31.356H163.282V24.696H165.802V19.8H173.794V24.696H177.106V31.356H173.794V36.828C173.794 37.308 173.902 37.656 174.118 37.872C174.358 38.088 174.742 38.196 175.27 38.196H177.178ZM189.87 45.252C187.83 45.252 185.994 44.832 184.362 43.992C182.73 43.152 181.446 41.952 180.51 40.392C179.598 38.808 179.142 36.96 179.142 34.848C179.142 32.736 179.598 30.9 180.51 29.34C181.446 27.756 182.73 26.544 184.362 25.704C185.994 24.864 187.83 24.444 189.87 24.444C191.91 24.444 193.746 24.864 195.378 25.704C197.01 26.544 198.282 27.756 199.194 29.34C200.13 30.9 200.598 32.736 200.598 34.848C200.598 36.96 200.13 38.808 199.194 40.392C198.282 41.952 197.01 43.152 195.378 43.992C193.746 44.832 191.91 45.252 189.87 45.252ZM189.87 38.34C190.614 38.34 191.238 38.052 191.742 37.476C192.246 36.876 192.498 36 192.498 34.848C192.498 33.696 192.246 32.832 191.742 32.256C191.238 31.656 190.614 31.356 189.87 31.356C189.126 31.356 188.502 31.656 187.998 32.256C187.494 32.832 187.242 33.696 187.242 34.848C187.242 36 187.482 36.876 187.962 37.476C188.466 38.052 189.102 38.34 189.87 38.34Z" fill="white"/>
<path d="M32 62C48.5685 62 62 48.5685 62 32C62 15.4315 48.5685 2 32 2C15.4315 2 2 15.4315 2 32C2 48.5685 15.4315 62 32 62Z" fill="url(#paint0_linear_7_49619)"/>
<path d="M19.08 32.22C19.08 29.7 19.584 27.456 20.592 25.488C21.624 23.52 23.088 21.996 24.984 20.916C26.88 19.812 29.112 19.26 31.68 19.26C33.888 19.26 35.856 19.68 37.584 20.52C39.336 21.336 40.752 22.5 41.832 24.012C42.936 25.524 43.668 27.288 44.028 29.304H35.604C35.22 28.464 34.668 27.816 33.948 27.36C33.252 26.88 32.448 26.64 31.536 26.64C30.192 26.64 29.124 27.144 28.332 28.152C27.564 29.16 27.18 30.516 27.18 32.22C27.18 33.924 27.564 35.28 28.332 36.288C29.124 37.296 30.192 37.8 31.536 37.8C32.448 37.8 33.252 37.572 33.948 37.116C34.668 36.636 35.22 35.976 35.604 35.136H44.028C43.668 37.152 42.936 38.916 41.832 40.428C40.752 41.94 39.336 43.116 37.584 43.956C35.856 44.772 33.888 45.18 31.68 45.18C29.112 45.18 26.88 44.64 24.984 43.56C23.088 42.456 21.624 40.92 20.592 38.952C19.584 36.984 19.08 34.74 19.08 32.22ZM54.8975 28.44C55.7135 27.264 56.7095 26.328 57.8855 25.632C59.0615 24.912 60.2855 24.552 61.5575 24.552V33.084H59.2895C57.7775 33.084 56.6615 33.348 55.9415 33.876C55.2455 34.404 54.8975 35.34 54.8975 36.684V45H46.9055V24.696H54.8975V28.44Z" fill="white"/>
<defs>
<linearGradient id="paint0_linear_7_49619" x1="2" y1="32" x2="60.2886" y2="32" gradientUnits="userSpaceOnUse">
<stop stop-color="#BD24DF"/>
<stop offset="1" stop-color="#2D6ADE"/>
</linearGradient>
</defs>
</svg>
