<svg width="85" height="35" viewBox="0 0 85 35" fill="none" xmlns="http://www.w3.org/2000/svg">
<path fill-rule="evenodd" clip-rule="evenodd" d="M5 2.5C5 3.88071 3.88071 5 2.5 5C1.11929 5 0 3.88071 0 2.5C0 1.11929 1.11929 0 2.5 0C3.88071 0 5 1.11929 5 2.5ZM15 2.5C15 3.88071 13.8807 5 12.5 5C11.1193 5 10 3.88071 10 2.5C10 1.11929 11.1193 0 12.5 0C13.8807 0 15 1.11929 15 2.5ZM22.5 5C23.8807 5 25 3.88071 25 2.5C25 1.11929 23.8807 0 22.5 0C21.1193 0 20 1.11929 20 2.5C20 3.88071 21.1193 5 22.5 5ZM35 2.5C35 3.88071 33.8807 5 32.5 5C31.1193 5 30 3.88071 30 2.5C30 1.11929 31.1193 0 32.5 0C33.8807 0 35 1.11929 35 2.5ZM42.5 5C43.8807 5 45 3.88071 45 2.5C45 1.11929 43.8807 0 42.5 0C41.1193 0 40 1.11929 40 2.5C40 3.88071 41.1193 5 42.5 5ZM55 2.5C55 3.88071 53.8807 5 52.5 5C51.1193 5 50 3.88071 50 2.5C50 1.11929 51.1193 0 52.5 0C53.8807 0 55 1.11929 55 2.5ZM62.5 5C63.8807 5 65 3.88071 65 2.5C65 1.11929 63.8807 0 62.5 0C61.1193 0 60 1.11929 60 2.5C60 3.88071 61.1193 5 62.5 5Z" fill="url(#paint0_linear_7_49570)"/>
<path fill-rule="evenodd" clip-rule="evenodd" d="M15 12.5C15 13.8807 13.8807 15 12.5 15C11.1193 15 10 13.8807 10 12.5C10 11.1193 11.1193 10 12.5 10C13.8807 10 15 11.1193 15 12.5ZM25 12.5C25 13.8807 23.8807 15 22.5 15C21.1193 15 20 13.8807 20 12.5C20 11.1193 21.1193 10 22.5 10C23.8807 10 25 11.1193 25 12.5ZM32.5 15C33.8807 15 35 13.8807 35 12.5C35 11.1193 33.8807 10 32.5 10C31.1193 10 30 11.1193 30 12.5C30 13.8807 31.1193 15 32.5 15ZM45 12.5C45 13.8807 43.8807 15 42.5 15C41.1193 15 40 13.8807 40 12.5C40 11.1193 41.1193 10 42.5 10C43.8807 10 45 11.1193 45 12.5ZM52.5 15C53.8807 15 55 13.8807 55 12.5C55 11.1193 53.8807 10 52.5 10C51.1193 10 50 11.1193 50 12.5C50 13.8807 51.1193 15 52.5 15ZM65 12.5C65 13.8807 63.8807 15 62.5 15C61.1193 15 60 13.8807 60 12.5C60 11.1193 61.1193 10 62.5 10C63.8807 10 65 11.1193 65 12.5ZM72.5 15C73.8807 15 75 13.8807 75 12.5C75 11.1193 73.8807 10 72.5 10C71.1193 10 70 11.1193 70 12.5C70 13.8807 71.1193 15 72.5 15Z" fill="url(#paint1_linear_7_49570)"/>
<path fill-rule="evenodd" clip-rule="evenodd" d="M25 22.5C25 23.8807 23.8807 25 22.5 25C21.1193 25 20 23.8807 20 22.5C20 21.1193 21.1193 20 22.5 20C23.8807 20 25 21.1193 25 22.5ZM35 22.5C35 23.8807 33.8807 25 32.5 25C31.1193 25 30 23.8807 30 22.5C30 21.1193 31.1193 20 32.5 20C33.8807 20 35 21.1193 35 22.5ZM42.5 25C43.8807 25 45 23.8807 45 22.5C45 21.1193 43.8807 20 42.5 20C41.1193 20 40 21.1193 40 22.5C40 23.8807 41.1193 25 42.5 25ZM55 22.5C55 23.8807 53.8807 25 52.5 25C51.1193 25 50 23.8807 50 22.5C50 21.1193 51.1193 20 52.5 20C53.8807 20 55 21.1193 55 22.5ZM62.5 25C63.8807 25 65 23.8807 65 22.5C65 21.1193 63.8807 20 62.5 20C61.1193 20 60 21.1193 60 22.5C60 23.8807 61.1193 25 62.5 25ZM75 22.5C75 23.8807 73.8807 25 72.5 25C71.1193 25 70 23.8807 70 22.5C70 21.1193 71.1193 20 72.5 20C73.8807 20 75 21.1193 75 22.5ZM82.5 25C83.8807 25 85 23.8807 85 22.5C85 21.1193 83.8807 20 82.5 20C81.1193 20 80 21.1193 80 22.5C80 23.8807 81.1193 25 82.5 25Z" fill="url(#paint2_linear_7_49570)"/>
<path fill-rule="evenodd" clip-rule="evenodd" d="M5 32.5C5 33.8807 3.88071 35 2.5 35C1.11929 35 0 33.8807 0 32.5C0 31.1193 1.11929 30 2.5 30C3.88071 30 5 31.1193 5 32.5ZM15 32.5C15 33.8807 13.8807 35 12.5 35C11.1193 35 10 33.8807 10 32.5C10 31.1193 11.1193 30 12.5 30C13.8807 30 15 31.1193 15 32.5ZM22.5 35C23.8807 35 25 33.8807 25 32.5C25 31.1193 23.8807 30 22.5 30C21.1193 30 20 31.1193 20 32.5C20 33.8807 21.1193 35 22.5 35ZM35 32.5C35 33.8807 33.8807 35 32.5 35C31.1193 35 30 33.8807 30 32.5C30 31.1193 31.1193 30 32.5 30C33.8807 30 35 31.1193 35 32.5ZM42.5 35C43.8807 35 45 33.8807 45 32.5C45 31.1193 43.8807 30 42.5 30C41.1193 30 40 31.1193 40 32.5C40 33.8807 41.1193 35 42.5 35ZM55 32.5C55 33.8807 53.8807 35 52.5 35C51.1193 35 50 33.8807 50 32.5C50 31.1193 51.1193 30 52.5 30C53.8807 30 55 31.1193 55 32.5ZM62.5 35C63.8807 35 65 33.8807 65 32.5C65 31.1193 63.8807 30 62.5 30C61.1193 30 60 31.1193 60 32.5C60 33.8807 61.1193 35 62.5 35Z" fill="url(#paint3_linear_7_49570)"/>
<defs>
<linearGradient id="paint0_linear_7_49570" x1="0" y1="2.5" x2="63.146" y2="2.50001" gradientUnits="userSpaceOnUse">
<stop stop-color="#BD24DF"/>
<stop offset="1" stop-color="#2D6ADE"/>
</linearGradient>
<linearGradient id="paint1_linear_7_49570" x1="10" y1="12.5" x2="73.146" y2="12.5" gradientUnits="userSpaceOnUse">
<stop stop-color="#BD24DF"/>
<stop offset="1" stop-color="#2D6ADE"/>
</linearGradient>
<linearGradient id="paint2_linear_7_49570" x1="20" y1="22.5" x2="83.146" y2="22.5" gradientUnits="userSpaceOnUse">
<stop stop-color="#BD24DF"/>
<stop offset="1" stop-color="#2D6ADE"/>
</linearGradient>
<linearGradient id="paint3_linear_7_49570" x1="0" y1="32.5" x2="63.146" y2="32.5" gradientUnits="userSpaceOnUse">
<stop stop-color="#BD24DF"/>
<stop offset="1" stop-color="#2D6ADE"/>
</linearGradient>
</defs>
</svg>
