<svg width="105" height="59" viewBox="0 0 105 59" fill="none" xmlns="http://www.w3.org/2000/svg">
<path fill-rule="evenodd" clip-rule="evenodd" d="M-30.5714 4.21429C-30.5714 6.54177 -32.4582 8.42857 -34.7857 8.42857C-37.1132 8.42857 -39 6.54177 -39 4.21429C-39 1.8868 -37.1132 0 -34.7857 0C-32.4582 0 -30.5714 1.8868 -30.5714 4.21429ZM-13.7143 4.21429C-13.7143 6.54177 -15.6011 8.42857 -17.9286 8.42857C-20.2561 8.42857 -22.1429 6.54177 -22.1429 4.21429C-22.1429 1.8868 -20.2561 0 -17.9286 0C-15.6011 0 -13.7143 1.8868 -13.7143 4.21429ZM-1.07143 8.42857C1.25606 8.42857 3.14286 6.54177 3.14286 4.21429C3.14286 1.8868 1.25606 0 -1.07143 0C-3.39891 0 -5.28571 1.8868 -5.28571 4.21429C-5.28571 6.54177 -3.39891 8.42857 -1.07143 8.42857ZM20 4.21429C20 6.54177 18.1132 8.42857 15.7857 8.42857C13.4582 8.42857 11.5714 6.54177 11.5714 4.21429C11.5714 1.8868 13.4582 0 15.7857 0C18.1132 0 20 1.8868 20 4.21429ZM32.6429 8.42857C34.9703 8.42857 36.8571 6.54177 36.8571 4.21429C36.8571 1.8868 34.9703 0 32.6429 0C30.3154 0 28.4286 1.8868 28.4286 4.21429C28.4286 6.54177 30.3154 8.42857 32.6429 8.42857ZM53.7143 4.21429C53.7143 6.54177 51.8275 8.42857 49.5 8.42857C47.1725 8.42857 45.2857 6.54177 45.2857 4.21429C45.2857 1.8868 47.1725 0 49.5 0C51.8275 0 53.7143 1.8868 53.7143 4.21429ZM66.3571 8.42857C68.6846 8.42857 70.5714 6.54177 70.5714 4.21429C70.5714 1.8868 68.6846 0 66.3571 0C64.0297 0 62.1429 1.8868 62.1429 4.21429C62.1429 6.54177 64.0297 8.42857 66.3571 8.42857Z" fill="url(#paint0_linear_7_49790)"/>
<path fill-rule="evenodd" clip-rule="evenodd" d="M3.14115 21.0715C3.14115 23.3989 1.25435 25.2857 -1.07314 25.2857C-3.40062 25.2857 -5.28742 23.3989 -5.28742 21.0715C-5.28742 18.744 -3.40062 16.8572 -1.07314 16.8572C1.25435 16.8572 3.14115 18.744 3.14115 21.0715ZM-13.716 21.0715C-13.716 23.399 -15.6028 25.2858 -17.9302 25.2858C-20.2577 25.2858 -22.1445 23.399 -22.1445 21.0715C-22.1445 18.744 -20.2577 16.8572 -17.9302 16.8572C-15.6028 16.8572 -13.716 18.744 -13.716 21.0715ZM15.784 25.2857C18.1115 25.2857 19.9983 23.3989 19.9983 21.0715C19.9983 18.744 18.1115 16.8572 15.784 16.8572C13.4565 16.8572 11.5697 18.744 11.5697 21.0715C11.5697 23.3989 13.4565 25.2857 15.784 25.2857ZM36.8554 21.0715C36.8554 23.3989 34.9686 25.2857 32.6411 25.2857C30.3137 25.2857 28.4269 23.3989 28.4269 21.0715C28.4269 18.744 30.3137 16.8572 32.6411 16.8572C34.9686 16.8572 36.8554 18.744 36.8554 21.0715ZM49.4983 25.2857C51.8258 25.2857 53.7126 23.3989 53.7126 21.0715C53.7126 18.744 51.8258 16.8572 49.4983 16.8572C47.1708 16.8572 45.284 18.744 45.284 21.0715C45.284 23.3989 47.1708 25.2857 49.4983 25.2857ZM70.5697 21.0715C70.5697 23.3989 68.6829 25.2857 66.3554 25.2857C64.028 25.2857 62.1412 23.3989 62.1412 21.0715C62.1412 18.744 64.028 16.8572 66.3554 16.8572C68.6829 16.8572 70.5697 18.744 70.5697 21.0715ZM83.2126 25.2857C85.5401 25.2857 87.4269 23.3989 87.4269 21.0715C87.4269 18.744 85.5401 16.8572 83.2126 16.8572C80.8851 16.8572 78.9983 18.744 78.9983 21.0715C78.9983 23.3989 80.8851 25.2857 83.2126 25.2857Z" fill="url(#paint1_linear_7_49790)"/>
<path fill-rule="evenodd" clip-rule="evenodd" d="M20.0006 37.9285C20.0006 40.256 18.1138 42.1428 15.7863 42.1428C13.4588 42.1428 11.572 40.256 11.572 37.9285C11.572 35.601 13.4588 33.7142 15.7863 33.7142C18.1138 33.7142 20.0006 35.601 20.0006 37.9285ZM3.14342 37.9286C3.14342 40.2561 1.25662 42.1429 -1.07087 42.1429C-3.39836 42.1429 -5.28516 40.2561 -5.28516 37.9286C-5.28516 35.6011 -3.39836 33.7143 -1.07087 33.7143C1.25662 33.7143 3.14342 35.6011 3.14342 37.9286ZM32.6435 42.1428C34.971 42.1428 36.8577 40.256 36.8577 37.9285C36.8577 35.601 34.971 33.7142 32.6435 33.7142C30.316 33.7142 28.4292 35.601 28.4292 37.9285C28.4292 40.256 30.316 42.1428 32.6435 42.1428ZM53.7149 37.9285C53.7149 40.256 51.8281 42.1428 49.5006 42.1428C47.1731 42.1428 45.2863 40.256 45.2863 37.9285C45.2863 35.601 47.1731 33.7142 49.5006 33.7142C51.8281 33.7142 53.7149 35.601 53.7149 37.9285ZM66.3578 42.1428C68.6852 42.1428 70.572 40.256 70.572 37.9285C70.572 35.601 68.6852 33.7142 66.3578 33.7142C64.0303 33.7142 62.1435 35.601 62.1435 37.9285C62.1435 40.256 64.0303 42.1428 66.3578 42.1428ZM87.4292 37.9285C87.4292 40.256 85.5424 42.1428 83.2149 42.1428C80.8874 42.1428 79.0006 40.256 79.0006 37.9285C79.0006 35.601 80.8874 33.7142 83.2149 33.7142C85.5424 33.7142 87.4292 35.601 87.4292 37.9285ZM100.072 42.1428C102.4 42.1428 104.286 40.256 104.286 37.9285C104.286 35.601 102.4 33.7142 100.072 33.7142C97.7446 33.7142 95.8577 35.601 95.8577 37.9285C95.8577 40.256 97.7446 42.1428 100.072 42.1428Z" fill="url(#paint2_linear_7_49790)"/>
<path fill-rule="evenodd" clip-rule="evenodd" d="M-13.7143 54.7856C-13.7143 57.1131 -15.6011 58.9999 -17.9286 58.9999C-20.2561 58.9999 -22.1429 57.1131 -22.1429 54.7856C-22.1429 52.4581 -20.2561 50.5713 -17.9286 50.5713C-15.6011 50.5713 -13.7143 52.4581 -13.7143 54.7856ZM-30.5714 54.7857C-30.5714 57.1132 -32.4582 59 -34.7857 59C-37.1132 59 -39 57.1132 -39 54.7857C-39 52.4582 -37.1132 50.5714 -34.7857 50.5714C-32.4582 50.5714 -30.5714 52.4582 -30.5714 54.7857ZM-1.07143 58.9999C1.25606 58.9999 3.14286 57.1131 3.14286 54.7856C3.14286 52.4581 1.25606 50.5713 -1.07143 50.5713C-3.39891 50.5713 -5.28571 52.4581 -5.28571 54.7856C-5.28571 57.1131 -3.39891 58.9999 -1.07143 58.9999ZM20 54.7856C20 57.1131 18.1132 58.9999 15.7857 58.9999C13.4582 58.9999 11.5714 57.1131 11.5714 54.7856C11.5714 52.4581 13.4582 50.5713 15.7857 50.5713C18.1132 50.5713 20 52.4581 20 54.7856ZM32.6429 58.9999C34.9703 58.9999 36.8571 57.1131 36.8571 54.7856C36.8571 52.4581 34.9703 50.5713 32.6429 50.5713C30.3154 50.5713 28.4286 52.4581 28.4286 54.7856C28.4286 57.1131 30.3154 58.9999 32.6429 58.9999ZM53.7143 54.7856C53.7143 57.1131 51.8275 58.9999 49.5 58.9999C47.1725 58.9999 45.2857 57.1131 45.2857 54.7856C45.2857 52.4581 47.1725 50.5713 49.5 50.5713C51.8275 50.5713 53.7143 52.4581 53.7143 54.7856ZM66.3571 58.9999C68.6846 58.9999 70.5714 57.1131 70.5714 54.7856C70.5714 52.4581 68.6846 50.5713 66.3571 50.5713C64.0297 50.5713 62.1429 52.4581 62.1429 54.7856C62.1429 57.1131 64.0297 58.9999 66.3571 58.9999Z" fill="url(#paint3_linear_7_49790)"/>
<defs>
<linearGradient id="paint0_linear_7_49790" x1="-39" y1="4.21429" x2="67.4461" y2="4.2143" gradientUnits="userSpaceOnUse">
<stop stop-color="#BD24DF"/>
<stop offset="1" stop-color="#2D6ADE"/>
</linearGradient>
<linearGradient id="paint1_linear_7_49790" x1="-22.1445" y1="21.0715" x2="84.3015" y2="21.0715" gradientUnits="userSpaceOnUse">
<stop stop-color="#BD24DF"/>
<stop offset="1" stop-color="#2D6ADE"/>
</linearGradient>
<linearGradient id="paint2_linear_7_49790" x1="-5.28516" y1="37.9285" x2="101.161" y2="37.9285" gradientUnits="userSpaceOnUse">
<stop stop-color="#BD24DF"/>
<stop offset="1" stop-color="#2D6ADE"/>
</linearGradient>
<linearGradient id="paint3_linear_7_49790" x1="-39" y1="54.7856" x2="67.4461" y2="54.7856" gradientUnits="userSpaceOnUse">
<stop stop-color="#BD24DF"/>
<stop offset="1" stop-color="#2D6ADE"/>
</linearGradient>
</defs>
</svg>
