<svg width="2010" height="423" viewBox="0 0 2010 423" fill="none" xmlns="http://www.w3.org/2000/svg">
<rect width="2010" height="423" fill="white"/>
<path fill-rule="evenodd" clip-rule="evenodd" d="M350 2.5C350 3.88071 348.881 5 347.5 5C346.119 5 345 3.88071 345 2.5C345 1.11929 346.119 0 347.5 0C348.881 0 350 1.11929 350 2.5ZM360 2.5C360 3.88071 358.881 5 357.5 5C356.119 5 355 3.88071 355 2.5C355 1.11929 356.119 0 357.5 0C358.881 0 360 1.11929 360 2.5ZM367.5 5C368.881 5 370 3.88071 370 2.5C370 1.11929 368.881 0 367.5 0C366.119 0 365 1.11929 365 2.5C365 3.88071 366.119 5 367.5 5ZM380 2.5C380 3.88071 378.881 5 377.5 5C376.119 5 375 3.88071 375 2.5C375 1.11929 376.119 0 377.5 0C378.881 0 380 1.11929 380 2.5ZM387.5 5C388.881 5 390 3.88071 390 2.5C390 1.11929 388.881 0 387.5 0C386.119 0 385 1.11929 385 2.5C385 3.88071 386.119 5 387.5 5ZM400 2.5C400 3.88071 398.881 5 397.5 5C396.119 5 395 3.88071 395 2.5C395 1.11929 396.119 0 397.5 0C398.881 0 400 1.11929 400 2.5ZM407.5 5C408.881 5 410 3.88071 410 2.5C410 1.11929 408.881 0 407.5 0C406.119 0 405 1.11929 405 2.5C405 3.88071 406.119 5 407.5 5Z" fill="url(#paint0_linear_0_1)"/>
<path fill-rule="evenodd" clip-rule="evenodd" d="M360 12.5C360 13.8807 358.881 15 357.5 15C356.119 15 355 13.8807 355 12.5C355 11.1193 356.119 10 357.5 10C358.881 10 360 11.1193 360 12.5ZM370 12.5C370 13.8807 368.881 15 367.5 15C366.119 15 365 13.8807 365 12.5C365 11.1193 366.119 10 367.5 10C368.881 10 370 11.1193 370 12.5ZM377.5 15C378.881 15 380 13.8807 380 12.5C380 11.1193 378.881 10 377.5 10C376.119 10 375 11.1193 375 12.5C375 13.8807 376.119 15 377.5 15ZM390 12.5C390 13.8807 388.881 15 387.5 15C386.119 15 385 13.8807 385 12.5C385 11.1193 386.119 10 387.5 10C388.881 10 390 11.1193 390 12.5ZM397.5 15C398.881 15 400 13.8807 400 12.5C400 11.1193 398.881 10 397.5 10C396.119 10 395 11.1193 395 12.5C395 13.8807 396.119 15 397.5 15ZM410 12.5C410 13.8807 408.881 15 407.5 15C406.119 15 405 13.8807 405 12.5C405 11.1193 406.119 10 407.5 10C408.881 10 410 11.1193 410 12.5ZM417.5 15C418.881 15 420 13.8807 420 12.5C420 11.1193 418.881 10 417.5 10C416.119 10 415 11.1193 415 12.5C415 13.8807 416.119 15 417.5 15Z" fill="url(#paint1_linear_0_1)"/>
<path fill-rule="evenodd" clip-rule="evenodd" d="M370 22.5C370 23.8807 368.881 25 367.5 25C366.119 25 365 23.8807 365 22.5C365 21.1193 366.119 20 367.5 20C368.881 20 370 21.1193 370 22.5ZM380 22.5C380 23.8807 378.881 25 377.5 25C376.119 25 375 23.8807 375 22.5C375 21.1193 376.119 20 377.5 20C378.881 20 380 21.1193 380 22.5ZM387.5 25C388.881 25 390 23.8807 390 22.5C390 21.1193 388.881 20 387.5 20C386.119 20 385 21.1193 385 22.5C385 23.8807 386.119 25 387.5 25ZM400 22.5C400 23.8807 398.881 25 397.5 25C396.119 25 395 23.8807 395 22.5C395 21.1193 396.119 20 397.5 20C398.881 20 400 21.1193 400 22.5ZM407.5 25C408.881 25 410 23.8807 410 22.5C410 21.1193 408.881 20 407.5 20C406.119 20 405 21.1193 405 22.5C405 23.8807 406.119 25 407.5 25ZM420 22.5C420 23.8807 418.881 25 417.5 25C416.119 25 415 23.8807 415 22.5C415 21.1193 416.119 20 417.5 20C418.881 20 420 21.1193 420 22.5ZM427.5 25C428.881 25 430 23.8807 430 22.5C430 21.1193 428.881 20 427.5 20C426.119 20 425 21.1193 425 22.5C425 23.8807 426.119 25 427.5 25Z" fill="url(#paint2_linear_0_1)"/>
<path fill-rule="evenodd" clip-rule="evenodd" d="M350 32.5C350 33.8807 348.881 35 347.5 35C346.119 35 345 33.8807 345 32.5C345 31.1193 346.119 30 347.5 30C348.881 30 350 31.1193 350 32.5ZM360 32.5C360 33.8807 358.881 35 357.5 35C356.119 35 355 33.8807 355 32.5C355 31.1193 356.119 30 357.5 30C358.881 30 360 31.1193 360 32.5ZM367.5 35C368.881 35 370 33.8807 370 32.5C370 31.1193 368.881 30 367.5 30C366.119 30 365 31.1193 365 32.5C365 33.8807 366.119 35 367.5 35ZM380 32.5C380 33.8807 378.881 35 377.5 35C376.119 35 375 33.8807 375 32.5C375 31.1193 376.119 30 377.5 30C378.881 30 380 31.1193 380 32.5ZM387.5 35C388.881 35 390 33.8807 390 32.5C390 31.1193 388.881 30 387.5 30C386.119 30 385 31.1193 385 32.5C385 33.8807 386.119 35 387.5 35ZM400 32.5C400 33.8807 398.881 35 397.5 35C396.119 35 395 33.8807 395 32.5C395 31.1193 396.119 30 397.5 30C398.881 30 400 31.1193 400 32.5ZM407.5 35C408.881 35 410 33.8807 410 32.5C410 31.1193 408.881 30 407.5 30C406.119 30 405 31.1193 405 32.5C405 33.8807 406.119 35 407.5 35Z" fill="url(#paint3_linear_0_1)"/>
<path fill-rule="evenodd" clip-rule="evenodd" d="M8.42857 248.214C8.42857 250.542 6.54177 252.429 4.21429 252.429C1.8868 252.429 0 250.542 0 248.214C0 245.887 1.8868 244 4.21429 244C6.54177 244 8.42857 245.887 8.42857 248.214ZM25.2857 248.214C25.2857 250.542 23.3989 252.429 21.0714 252.429C18.7439 252.429 16.8571 250.542 16.8571 248.214C16.8571 245.887 18.7439 244 21.0714 244C23.3989 244 25.2857 245.887 25.2857 248.214ZM37.9286 252.429C40.2561 252.429 42.1429 250.542 42.1429 248.214C42.1429 245.887 40.2561 244 37.9286 244C35.6011 244 33.7143 245.887 33.7143 248.214C33.7143 250.542 35.6011 252.429 37.9286 252.429ZM59 248.214C59 250.542 57.1132 252.429 54.7857 252.429C52.4582 252.429 50.5714 250.542 50.5714 248.214C50.5714 245.887 52.4582 244 54.7857 244C57.1132 244 59 245.887 59 248.214ZM71.6429 252.429C73.9703 252.429 75.8571 250.542 75.8571 248.214C75.8571 245.887 73.9703 244 71.6429 244C69.3154 244 67.4286 245.887 67.4286 248.214C67.4286 250.542 69.3154 252.429 71.6429 252.429ZM92.7143 248.214C92.7143 250.542 90.8275 252.429 88.5 252.429C86.1725 252.429 84.2857 250.542 84.2857 248.214C84.2857 245.887 86.1725 244 88.5 244C90.8275 244 92.7143 245.887 92.7143 248.214ZM105.357 252.429C107.685 252.429 109.571 250.542 109.571 248.214C109.571 245.887 107.685 244 105.357 244C103.03 244 101.143 245.887 101.143 248.214C101.143 250.542 103.03 252.429 105.357 252.429Z" fill="url(#paint4_linear_0_1)"/>
<path fill-rule="evenodd" clip-rule="evenodd" d="M42.1428 265.071C42.1428 267.399 40.256 269.286 37.9285 269.286C35.601 269.286 33.7142 267.399 33.7142 265.071C33.7142 262.744 35.601 260.857 37.9285 260.857C40.256 260.857 42.1428 262.744 42.1428 265.071ZM25.2857 265.071C25.2857 267.399 23.3989 269.286 21.0714 269.286C18.7439 269.286 16.8571 267.399 16.8571 265.071C16.8571 262.744 18.7439 260.857 21.0714 260.857C23.3989 260.857 25.2857 262.744 25.2857 265.071ZM54.7857 269.286C57.1131 269.286 58.9999 267.399 58.9999 265.071C58.9999 262.744 57.1131 260.857 54.7857 260.857C52.4582 260.857 50.5714 262.744 50.5714 265.071C50.5714 267.399 52.4582 269.286 54.7857 269.286ZM75.8571 265.071C75.8571 267.399 73.9703 269.286 71.6428 269.286C69.3153 269.286 67.4285 267.399 67.4285 265.071C67.4285 262.744 69.3153 260.857 71.6428 260.857C73.9703 260.857 75.8571 262.744 75.8571 265.071ZM88.4999 269.286C90.8274 269.286 92.7142 267.399 92.7142 265.071C92.7142 262.744 90.8274 260.857 88.4999 260.857C86.1725 260.857 84.2857 262.744 84.2857 265.071C84.2857 267.399 86.1725 269.286 88.4999 269.286ZM109.571 265.071C109.571 267.399 107.685 269.286 105.357 269.286C103.03 269.286 101.143 267.399 101.143 265.071C101.143 262.744 103.03 260.857 105.357 260.857C107.685 260.857 109.571 262.744 109.571 265.071ZM122.214 269.286C124.542 269.286 126.429 267.399 126.429 265.071C126.429 262.744 124.542 260.857 122.214 260.857C119.887 260.857 118 262.744 118 265.071C118 267.399 119.887 269.286 122.214 269.286Z" fill="url(#paint5_linear_0_1)"/>
<path fill-rule="evenodd" clip-rule="evenodd" d="M59.0001 281.929C59.0001 284.256 57.1133 286.143 54.7858 286.143C52.4583 286.143 50.5715 284.256 50.5715 281.929C50.5715 279.601 52.4583 277.714 54.7858 277.714C57.1133 277.714 59.0001 279.601 59.0001 281.929ZM42.1429 281.929C42.1429 284.256 40.2561 286.143 37.9286 286.143C35.6011 286.143 33.7143 284.256 33.7143 281.929C33.7143 279.601 35.6011 277.714 37.9286 277.714C40.2561 277.714 42.1429 279.601 42.1429 281.929ZM71.6429 286.143C73.9704 286.143 75.8572 284.256 75.8572 281.929C75.8572 279.601 73.9704 277.714 71.6429 277.714C69.3154 277.714 67.4286 279.601 67.4286 281.929C67.4286 284.256 69.3154 286.143 71.6429 286.143ZM92.7143 281.929C92.7143 284.256 90.8275 286.143 88.5001 286.143C86.1726 286.143 84.2858 284.256 84.2858 281.929C84.2858 279.601 86.1726 277.714 88.5001 277.714C90.8275 277.714 92.7143 279.601 92.7143 281.929ZM105.357 286.143C107.685 286.143 109.571 284.256 109.571 281.929C109.571 279.601 107.685 277.714 105.357 277.714C103.03 277.714 101.143 279.601 101.143 281.929C101.143 284.256 103.03 286.143 105.357 286.143ZM126.429 281.929C126.429 284.256 124.542 286.143 122.214 286.143C119.887 286.143 118 284.256 118 281.929C118 279.601 119.887 277.714 122.214 277.714C124.542 277.714 126.429 279.601 126.429 281.929ZM139.071 286.143C141.399 286.143 143.286 284.256 143.286 281.929C143.286 279.601 141.399 277.714 139.071 277.714C136.744 277.714 134.857 279.601 134.857 281.929C134.857 284.256 136.744 286.143 139.071 286.143Z" fill="url(#paint6_linear_0_1)"/>
<path fill-rule="evenodd" clip-rule="evenodd" d="M25.2857 298.786C25.2857 301.113 23.3989 303 21.0714 303C18.7439 303 16.8571 301.113 16.8571 298.786C16.8571 296.458 18.7439 294.571 21.0714 294.571C23.3989 294.571 25.2857 296.458 25.2857 298.786ZM8.42857 298.786C8.42857 301.113 6.54177 303 4.21429 303C1.8868 303 0 301.113 0 298.786C0 296.458 1.8868 294.571 4.21429 294.571C6.54177 294.571 8.42857 296.458 8.42857 298.786ZM37.9286 303C40.2561 303 42.1429 301.113 42.1429 298.786C42.1429 296.458 40.2561 294.571 37.9286 294.571C35.6011 294.571 33.7143 296.458 33.7143 298.786C33.7143 301.113 35.6011 303 37.9286 303ZM59 298.786C59 301.113 57.1132 303 54.7857 303C52.4582 303 50.5714 301.113 50.5714 298.786C50.5714 296.458 52.4582 294.571 54.7857 294.571C57.1132 294.571 59 296.458 59 298.786ZM71.6429 303C73.9703 303 75.8571 301.113 75.8571 298.786C75.8571 296.458 73.9703 294.571 71.6429 294.571C69.3154 294.571 67.4286 296.458 67.4286 298.786C67.4286 301.113 69.3154 303 71.6429 303ZM92.7143 298.786C92.7143 301.113 90.8275 303 88.5 303C86.1725 303 84.2857 301.113 84.2857 298.786C84.2857 296.458 86.1725 294.571 88.5 294.571C90.8275 294.571 92.7143 296.458 92.7143 298.786ZM105.357 303C107.685 303 109.571 301.113 109.571 298.786C109.571 296.458 107.685 294.571 105.357 294.571C103.03 294.571 101.143 296.458 101.143 298.786C101.143 301.113 103.03 303 105.357 303Z" fill="url(#paint7_linear_0_1)"/>
<g opacity="0.5">
<path fill-rule="evenodd" clip-rule="evenodd" d="M1084.43 113.214C1084.43 115.542 1082.54 117.429 1080.21 117.429C1077.89 117.429 1076 115.542 1076 113.214C1076 110.887 1077.89 109 1080.21 109C1082.54 109 1084.43 110.887 1084.43 113.214ZM1101.29 113.214C1101.29 115.542 1099.4 117.429 1097.07 117.429C1094.74 117.429 1092.86 115.542 1092.86 113.214C1092.86 110.887 1094.74 109 1097.07 109C1099.4 109 1101.29 110.887 1101.29 113.214ZM1113.93 117.429C1116.26 117.429 1118.14 115.542 1118.14 113.214C1118.14 110.887 1116.26 109 1113.93 109C1111.6 109 1109.71 110.887 1109.71 113.214C1109.71 115.542 1111.6 117.429 1113.93 117.429ZM1135 113.214C1135 115.542 1133.11 117.429 1130.79 117.429C1128.46 117.429 1126.57 115.542 1126.57 113.214C1126.57 110.887 1128.46 109 1130.79 109C1133.11 109 1135 110.887 1135 113.214ZM1147.64 117.429C1149.97 117.429 1151.86 115.542 1151.86 113.214C1151.86 110.887 1149.97 109 1147.64 109C1145.32 109 1143.43 110.887 1143.43 113.214C1143.43 115.542 1145.32 117.429 1147.64 117.429ZM1168.71 113.214C1168.71 115.542 1166.83 117.429 1164.5 117.429C1162.17 117.429 1160.29 115.542 1160.29 113.214C1160.29 110.887 1162.17 109 1164.5 109C1166.83 109 1168.71 110.887 1168.71 113.214ZM1181.36 117.429C1183.68 117.429 1185.57 115.542 1185.57 113.214C1185.57 110.887 1183.68 109 1181.36 109C1179.03 109 1177.14 110.887 1177.14 113.214C1177.14 115.542 1179.03 117.429 1181.36 117.429Z" fill="url(#paint8_linear_0_1)"/>
<path fill-rule="evenodd" clip-rule="evenodd" d="M1118.14 130.071C1118.14 132.399 1116.26 134.286 1113.93 134.286C1111.6 134.286 1109.71 132.399 1109.71 130.071C1109.71 127.744 1111.6 125.857 1113.93 125.857C1116.26 125.857 1118.14 127.744 1118.14 130.071ZM1101.29 130.071C1101.29 132.399 1099.4 134.286 1097.07 134.286C1094.74 134.286 1092.86 132.399 1092.86 130.071C1092.86 127.744 1094.74 125.857 1097.07 125.857C1099.4 125.857 1101.29 127.744 1101.29 130.071ZM1130.79 134.286C1133.11 134.286 1135 132.399 1135 130.071C1135 127.744 1133.11 125.857 1130.79 125.857C1128.46 125.857 1126.57 127.744 1126.57 130.071C1126.57 132.399 1128.46 134.286 1130.79 134.286ZM1151.86 130.071C1151.86 132.399 1149.97 134.286 1147.64 134.286C1145.32 134.286 1143.43 132.399 1143.43 130.071C1143.43 127.744 1145.32 125.857 1147.64 125.857C1149.97 125.857 1151.86 127.744 1151.86 130.071ZM1164.5 134.286C1166.83 134.286 1168.71 132.399 1168.71 130.071C1168.71 127.744 1166.83 125.857 1164.5 125.857C1162.17 125.857 1160.29 127.744 1160.29 130.071C1160.29 132.399 1162.17 134.286 1164.5 134.286ZM1185.57 130.071C1185.57 132.399 1183.68 134.286 1181.36 134.286C1179.03 134.286 1177.14 132.399 1177.14 130.071C1177.14 127.744 1179.03 125.857 1181.36 125.857C1183.68 125.857 1185.57 127.744 1185.57 130.071ZM1198.21 134.286C1200.54 134.286 1202.43 132.399 1202.43 130.071C1202.43 127.744 1200.54 125.857 1198.21 125.857C1195.89 125.857 1194 127.744 1194 130.071C1194 132.399 1195.89 134.286 1198.21 134.286Z" fill="url(#paint9_linear_0_1)"/>
<path fill-rule="evenodd" clip-rule="evenodd" d="M1135 146.929C1135 149.256 1133.11 151.143 1130.79 151.143C1128.46 151.143 1126.57 149.256 1126.57 146.929C1126.57 144.601 1128.46 142.714 1130.79 142.714C1133.11 142.714 1135 144.601 1135 146.929ZM1118.14 146.929C1118.14 149.256 1116.26 151.143 1113.93 151.143C1111.6 151.143 1109.71 149.256 1109.71 146.929C1109.71 144.601 1111.6 142.714 1113.93 142.714C1116.26 142.714 1118.14 144.601 1118.14 146.929ZM1147.64 151.143C1149.97 151.143 1151.86 149.256 1151.86 146.929C1151.86 144.601 1149.97 142.714 1147.64 142.714C1145.32 142.714 1143.43 144.601 1143.43 146.929C1143.43 149.256 1145.32 151.143 1147.64 151.143ZM1168.71 146.929C1168.71 149.256 1166.83 151.143 1164.5 151.143C1162.17 151.143 1160.29 149.256 1160.29 146.929C1160.29 144.601 1162.17 142.714 1164.5 142.714C1166.83 142.714 1168.71 144.601 1168.71 146.929ZM1181.36 151.143C1183.68 151.143 1185.57 149.256 1185.57 146.929C1185.57 144.601 1183.68 142.714 1181.36 142.714C1179.03 142.714 1177.14 144.601 1177.14 146.929C1177.14 149.256 1179.03 151.143 1181.36 151.143ZM1202.43 146.929C1202.43 149.256 1200.54 151.143 1198.21 151.143C1195.89 151.143 1194 149.256 1194 146.929C1194 144.601 1195.89 142.714 1198.21 142.714C1200.54 142.714 1202.43 144.601 1202.43 146.929ZM1215.07 151.143C1217.4 151.143 1219.29 149.256 1219.29 146.929C1219.29 144.601 1217.4 142.714 1215.07 142.714C1212.74 142.714 1210.86 144.601 1210.86 146.929C1210.86 149.256 1212.74 151.143 1215.07 151.143Z" fill="url(#paint10_linear_0_1)"/>
<path fill-rule="evenodd" clip-rule="evenodd" d="M1101.29 163.786C1101.29 166.113 1099.4 168 1097.07 168C1094.74 168 1092.86 166.113 1092.86 163.786C1092.86 161.458 1094.74 159.571 1097.07 159.571C1099.4 159.571 1101.29 161.458 1101.29 163.786ZM1084.43 163.786C1084.43 166.113 1082.54 168 1080.21 168C1077.89 168 1076 166.113 1076 163.786C1076 161.458 1077.89 159.571 1080.21 159.571C1082.54 159.571 1084.43 161.458 1084.43 163.786ZM1113.93 168C1116.26 168 1118.14 166.113 1118.14 163.786C1118.14 161.458 1116.26 159.571 1113.93 159.571C1111.6 159.571 1109.71 161.458 1109.71 163.786C1109.71 166.113 1111.6 168 1113.93 168ZM1135 163.786C1135 166.113 1133.11 168 1130.79 168C1128.46 168 1126.57 166.113 1126.57 163.786C1126.57 161.458 1128.46 159.571 1130.79 159.571C1133.11 159.571 1135 161.458 1135 163.786ZM1147.64 168C1149.97 168 1151.86 166.113 1151.86 163.786C1151.86 161.458 1149.97 159.571 1147.64 159.571C1145.32 159.571 1143.43 161.458 1143.43 163.786C1143.43 166.113 1145.32 168 1147.64 168ZM1168.71 163.786C1168.71 166.113 1166.83 168 1164.5 168C1162.17 168 1160.29 166.113 1160.29 163.786C1160.29 161.458 1162.17 159.571 1164.5 159.571C1166.83 159.571 1168.71 161.458 1168.71 163.786ZM1181.36 168C1183.68 168 1185.57 166.113 1185.57 163.786C1185.57 161.458 1183.68 159.571 1181.36 159.571C1179.03 159.571 1177.14 161.458 1177.14 163.786C1177.14 166.113 1179.03 168 1181.36 168Z" fill="url(#paint11_linear_0_1)"/>
</g>
<g opacity="0.5">
<path fill-rule="evenodd" clip-rule="evenodd" d="M1084.43 368.214C1084.43 370.542 1082.54 372.429 1080.21 372.429C1077.89 372.429 1076 370.542 1076 368.214C1076 365.887 1077.89 364 1080.21 364C1082.54 364 1084.43 365.887 1084.43 368.214ZM1101.29 368.214C1101.29 370.542 1099.4 372.429 1097.07 372.429C1094.74 372.429 1092.86 370.542 1092.86 368.214C1092.86 365.887 1094.74 364 1097.07 364C1099.4 364 1101.29 365.887 1101.29 368.214ZM1113.93 372.429C1116.26 372.429 1118.14 370.542 1118.14 368.214C1118.14 365.887 1116.26 364 1113.93 364C1111.6 364 1109.71 365.887 1109.71 368.214C1109.71 370.542 1111.6 372.429 1113.93 372.429ZM1135 368.214C1135 370.542 1133.11 372.429 1130.79 372.429C1128.46 372.429 1126.57 370.542 1126.57 368.214C1126.57 365.887 1128.46 364 1130.79 364C1133.11 364 1135 365.887 1135 368.214ZM1147.64 372.429C1149.97 372.429 1151.86 370.542 1151.86 368.214C1151.86 365.887 1149.97 364 1147.64 364C1145.32 364 1143.43 365.887 1143.43 368.214C1143.43 370.542 1145.32 372.429 1147.64 372.429ZM1168.71 368.214C1168.71 370.542 1166.83 372.429 1164.5 372.429C1162.17 372.429 1160.29 370.542 1160.29 368.214C1160.29 365.887 1162.17 364 1164.5 364C1166.83 364 1168.71 365.887 1168.71 368.214ZM1181.36 372.429C1183.68 372.429 1185.57 370.542 1185.57 368.214C1185.57 365.887 1183.68 364 1181.36 364C1179.03 364 1177.14 365.887 1177.14 368.214C1177.14 370.542 1179.03 372.429 1181.36 372.429Z" fill="url(#paint12_linear_0_1)"/>
<path fill-rule="evenodd" clip-rule="evenodd" d="M1118.14 385.071C1118.14 387.399 1116.26 389.286 1113.93 389.286C1111.6 389.286 1109.71 387.399 1109.71 385.071C1109.71 382.744 1111.6 380.857 1113.93 380.857C1116.26 380.857 1118.14 382.744 1118.14 385.071ZM1101.29 385.071C1101.29 387.399 1099.4 389.286 1097.07 389.286C1094.74 389.286 1092.86 387.399 1092.86 385.071C1092.86 382.744 1094.74 380.857 1097.07 380.857C1099.4 380.857 1101.29 382.744 1101.29 385.071ZM1130.79 389.286C1133.11 389.286 1135 387.399 1135 385.071C1135 382.744 1133.11 380.857 1130.79 380.857C1128.46 380.857 1126.57 382.744 1126.57 385.071C1126.57 387.399 1128.46 389.286 1130.79 389.286ZM1151.86 385.071C1151.86 387.399 1149.97 389.286 1147.64 389.286C1145.32 389.286 1143.43 387.399 1143.43 385.071C1143.43 382.744 1145.32 380.857 1147.64 380.857C1149.97 380.857 1151.86 382.744 1151.86 385.071ZM1164.5 389.286C1166.83 389.286 1168.71 387.399 1168.71 385.071C1168.71 382.744 1166.83 380.857 1164.5 380.857C1162.17 380.857 1160.29 382.744 1160.29 385.071C1160.29 387.399 1162.17 389.286 1164.5 389.286ZM1185.57 385.071C1185.57 387.399 1183.68 389.286 1181.36 389.286C1179.03 389.286 1177.14 387.399 1177.14 385.071C1177.14 382.744 1179.03 380.857 1181.36 380.857C1183.68 380.857 1185.57 382.744 1185.57 385.071ZM1198.21 389.286C1200.54 389.286 1202.43 387.399 1202.43 385.071C1202.43 382.744 1200.54 380.857 1198.21 380.857C1195.89 380.857 1194 382.744 1194 385.071C1194 387.399 1195.89 389.286 1198.21 389.286Z" fill="url(#paint13_linear_0_1)"/>
<path fill-rule="evenodd" clip-rule="evenodd" d="M1135 401.929C1135 404.256 1133.11 406.143 1130.79 406.143C1128.46 406.143 1126.57 404.256 1126.57 401.929C1126.57 399.601 1128.46 397.714 1130.79 397.714C1133.11 397.714 1135 399.601 1135 401.929ZM1118.14 401.929C1118.14 404.256 1116.26 406.143 1113.93 406.143C1111.6 406.143 1109.71 404.256 1109.71 401.929C1109.71 399.601 1111.6 397.714 1113.93 397.714C1116.26 397.714 1118.14 399.601 1118.14 401.929ZM1147.64 406.143C1149.97 406.143 1151.86 404.256 1151.86 401.929C1151.86 399.601 1149.97 397.714 1147.64 397.714C1145.32 397.714 1143.43 399.601 1143.43 401.929C1143.43 404.256 1145.32 406.143 1147.64 406.143ZM1168.71 401.929C1168.71 404.256 1166.83 406.143 1164.5 406.143C1162.17 406.143 1160.29 404.256 1160.29 401.929C1160.29 399.601 1162.17 397.714 1164.5 397.714C1166.83 397.714 1168.71 399.601 1168.71 401.929ZM1181.36 406.143C1183.68 406.143 1185.57 404.256 1185.57 401.929C1185.57 399.601 1183.68 397.714 1181.36 397.714C1179.03 397.714 1177.14 399.601 1177.14 401.929C1177.14 404.256 1179.03 406.143 1181.36 406.143ZM1202.43 401.929C1202.43 404.256 1200.54 406.143 1198.21 406.143C1195.89 406.143 1194 404.256 1194 401.929C1194 399.601 1195.89 397.714 1198.21 397.714C1200.54 397.714 1202.43 399.601 1202.43 401.929ZM1215.07 406.143C1217.4 406.143 1219.29 404.256 1219.29 401.929C1219.29 399.601 1217.4 397.714 1215.07 397.714C1212.74 397.714 1210.86 399.601 1210.86 401.929C1210.86 404.256 1212.74 406.143 1215.07 406.143Z" fill="url(#paint14_linear_0_1)"/>
<path fill-rule="evenodd" clip-rule="evenodd" d="M1101.29 418.786C1101.29 421.113 1099.4 423 1097.07 423C1094.74 423 1092.86 421.113 1092.86 418.786C1092.86 416.458 1094.74 414.571 1097.07 414.571C1099.4 414.571 1101.29 416.458 1101.29 418.786ZM1084.43 418.786C1084.43 421.113 1082.54 423 1080.21 423C1077.89 423 1076 421.113 1076 418.786C1076 416.458 1077.89 414.571 1080.21 414.571C1082.54 414.571 1084.43 416.458 1084.43 418.786ZM1113.93 423C1116.26 423 1118.14 421.113 1118.14 418.786C1118.14 416.458 1116.26 414.571 1113.93 414.571C1111.6 414.571 1109.71 416.458 1109.71 418.786C1109.71 421.113 1111.6 423 1113.93 423ZM1135 418.786C1135 421.113 1133.11 423 1130.79 423C1128.46 423 1126.57 421.113 1126.57 418.786C1126.57 416.458 1128.46 414.571 1130.79 414.571C1133.11 414.571 1135 416.458 1135 418.786ZM1147.64 423C1149.97 423 1151.86 421.113 1151.86 418.786C1151.86 416.458 1149.97 414.571 1147.64 414.571C1145.32 414.571 1143.43 416.458 1143.43 418.786C1143.43 421.113 1145.32 423 1147.64 423ZM1168.71 418.786C1168.71 421.113 1166.83 423 1164.5 423C1162.17 423 1160.29 421.113 1160.29 418.786C1160.29 416.458 1162.17 414.571 1164.5 414.571C1166.83 414.571 1168.71 416.458 1168.71 418.786ZM1181.36 423C1183.68 423 1185.57 421.113 1185.57 418.786C1185.57 416.458 1183.68 414.571 1181.36 414.571C1179.03 414.571 1177.14 416.458 1177.14 418.786C1177.14 421.113 1179.03 423 1181.36 423Z" fill="url(#paint15_linear_0_1)"/>
</g>
<path fill-rule="evenodd" clip-rule="evenodd" d="M1662.43 172.214C1662.43 174.542 1660.54 176.429 1658.21 176.429C1655.89 176.429 1654 174.542 1654 172.214C1654 169.887 1655.89 168 1658.21 168C1660.54 168 1662.43 169.887 1662.43 172.214ZM1679.29 172.214C1679.29 174.542 1677.4 176.429 1675.07 176.429C1672.74 176.429 1670.86 174.542 1670.86 172.214C1670.86 169.887 1672.74 168 1675.07 168C1677.4 168 1679.29 169.887 1679.29 172.214ZM1691.93 176.429C1694.26 176.429 1696.14 174.542 1696.14 172.214C1696.14 169.887 1694.26 168 1691.93 168C1689.6 168 1687.71 169.887 1687.71 172.214C1687.71 174.542 1689.6 176.429 1691.93 176.429ZM1713 172.214C1713 174.542 1711.11 176.429 1708.79 176.429C1706.46 176.429 1704.57 174.542 1704.57 172.214C1704.57 169.887 1706.46 168 1708.79 168C1711.11 168 1713 169.887 1713 172.214ZM1725.64 176.429C1727.97 176.429 1729.86 174.542 1729.86 172.214C1729.86 169.887 1727.97 168 1725.64 168C1723.32 168 1721.43 169.887 1721.43 172.214C1721.43 174.542 1723.32 176.429 1725.64 176.429ZM1746.71 172.214C1746.71 174.542 1744.83 176.429 1742.5 176.429C1740.17 176.429 1738.29 174.542 1738.29 172.214C1738.29 169.887 1740.17 168 1742.5 168C1744.83 168 1746.71 169.887 1746.71 172.214ZM1759.36 176.429C1761.68 176.429 1763.57 174.542 1763.57 172.214C1763.57 169.887 1761.68 168 1759.36 168C1757.03 168 1755.14 169.887 1755.14 172.214C1755.14 174.542 1757.03 176.429 1759.36 176.429Z" fill="url(#paint16_linear_0_1)"/>
<path fill-rule="evenodd" clip-rule="evenodd" d="M1696.14 189.071C1696.14 191.399 1694.26 193.286 1691.93 193.286C1689.6 193.286 1687.71 191.399 1687.71 189.071C1687.71 186.744 1689.6 184.857 1691.93 184.857C1694.26 184.857 1696.14 186.744 1696.14 189.071ZM1679.29 189.071C1679.29 191.399 1677.4 193.286 1675.07 193.286C1672.74 193.286 1670.86 191.399 1670.86 189.071C1670.86 186.744 1672.74 184.857 1675.07 184.857C1677.4 184.857 1679.29 186.744 1679.29 189.071ZM1708.79 193.286C1711.11 193.286 1713 191.399 1713 189.071C1713 186.744 1711.11 184.857 1708.79 184.857C1706.46 184.857 1704.57 186.744 1704.57 189.071C1704.57 191.399 1706.46 193.286 1708.79 193.286ZM1729.86 189.071C1729.86 191.399 1727.97 193.286 1725.64 193.286C1723.32 193.286 1721.43 191.399 1721.43 189.071C1721.43 186.744 1723.32 184.857 1725.64 184.857C1727.97 184.857 1729.86 186.744 1729.86 189.071ZM1742.5 193.286C1744.83 193.286 1746.71 191.399 1746.71 189.071C1746.71 186.744 1744.83 184.857 1742.5 184.857C1740.17 184.857 1738.29 186.744 1738.29 189.071C1738.29 191.399 1740.17 193.286 1742.5 193.286ZM1763.57 189.071C1763.57 191.399 1761.68 193.286 1759.36 193.286C1757.03 193.286 1755.14 191.399 1755.14 189.071C1755.14 186.744 1757.03 184.857 1759.36 184.857C1761.68 184.857 1763.57 186.744 1763.57 189.071ZM1776.21 193.286C1778.54 193.286 1780.43 191.399 1780.43 189.071C1780.43 186.744 1778.54 184.857 1776.21 184.857C1773.89 184.857 1772 186.744 1772 189.071C1772 191.399 1773.89 193.286 1776.21 193.286Z" fill="url(#paint17_linear_0_1)"/>
<path fill-rule="evenodd" clip-rule="evenodd" d="M1713 205.929C1713 208.256 1711.11 210.143 1708.79 210.143C1706.46 210.143 1704.57 208.256 1704.57 205.929C1704.57 203.601 1706.46 201.714 1708.79 201.714C1711.11 201.714 1713 203.601 1713 205.929ZM1696.14 205.929C1696.14 208.256 1694.26 210.143 1691.93 210.143C1689.6 210.143 1687.71 208.256 1687.71 205.929C1687.71 203.601 1689.6 201.714 1691.93 201.714C1694.26 201.714 1696.14 203.601 1696.14 205.929ZM1725.64 210.143C1727.97 210.143 1729.86 208.256 1729.86 205.929C1729.86 203.601 1727.97 201.714 1725.64 201.714C1723.32 201.714 1721.43 203.601 1721.43 205.929C1721.43 208.256 1723.32 210.143 1725.64 210.143ZM1746.71 205.929C1746.71 208.256 1744.83 210.143 1742.5 210.143C1740.17 210.143 1738.29 208.256 1738.29 205.929C1738.29 203.601 1740.17 201.714 1742.5 201.714C1744.83 201.714 1746.71 203.601 1746.71 205.929ZM1759.36 210.143C1761.68 210.143 1763.57 208.256 1763.57 205.929C1763.57 203.601 1761.68 201.714 1759.36 201.714C1757.03 201.714 1755.14 203.601 1755.14 205.929C1755.14 208.256 1757.03 210.143 1759.36 210.143ZM1780.43 205.929C1780.43 208.256 1778.54 210.143 1776.21 210.143C1773.89 210.143 1772 208.256 1772 205.929C1772 203.601 1773.89 201.714 1776.21 201.714C1778.54 201.714 1780.43 203.601 1780.43 205.929ZM1793.07 210.143C1795.4 210.143 1797.29 208.256 1797.29 205.929C1797.29 203.601 1795.4 201.714 1793.07 201.714C1790.74 201.714 1788.86 203.601 1788.86 205.929C1788.86 208.256 1790.74 210.143 1793.07 210.143Z" fill="url(#paint18_linear_0_1)"/>
<path fill-rule="evenodd" clip-rule="evenodd" d="M1679.29 222.786C1679.29 225.113 1677.4 227 1675.07 227C1672.74 227 1670.86 225.113 1670.86 222.786C1670.86 220.458 1672.74 218.571 1675.07 218.571C1677.4 218.571 1679.29 220.458 1679.29 222.786ZM1662.43 222.786C1662.43 225.113 1660.54 227 1658.21 227C1655.89 227 1654 225.113 1654 222.786C1654 220.458 1655.89 218.571 1658.21 218.571C1660.54 218.571 1662.43 220.458 1662.43 222.786ZM1691.93 227C1694.26 227 1696.14 225.113 1696.14 222.786C1696.14 220.458 1694.26 218.571 1691.93 218.571C1689.6 218.571 1687.71 220.458 1687.71 222.786C1687.71 225.113 1689.6 227 1691.93 227ZM1713 222.786C1713 225.113 1711.11 227 1708.79 227C1706.46 227 1704.57 225.113 1704.57 222.786C1704.57 220.458 1706.46 218.571 1708.79 218.571C1711.11 218.571 1713 220.458 1713 222.786ZM1725.64 227C1727.97 227 1729.86 225.113 1729.86 222.786C1729.86 220.458 1727.97 218.571 1725.64 218.571C1723.32 218.571 1721.43 220.458 1721.43 222.786C1721.43 225.113 1723.32 227 1725.64 227ZM1746.71 222.786C1746.71 225.113 1744.83 227 1742.5 227C1740.17 227 1738.29 225.113 1738.29 222.786C1738.29 220.458 1740.17 218.571 1742.5 218.571C1744.83 218.571 1746.71 220.458 1746.71 222.786ZM1759.36 227C1761.68 227 1763.57 225.113 1763.57 222.786C1763.57 220.458 1761.68 218.571 1759.36 218.571C1757.03 218.571 1755.14 220.458 1755.14 222.786C1755.14 225.113 1757.03 227 1759.36 227Z" fill="url(#paint19_linear_0_1)"/>
<g opacity="0.7">
<path fill-rule="evenodd" clip-rule="evenodd" d="M1624.43 345.214C1624.43 347.542 1622.54 349.429 1620.21 349.429C1617.89 349.429 1616 347.542 1616 345.214C1616 342.887 1617.89 341 1620.21 341C1622.54 341 1624.43 342.887 1624.43 345.214ZM1641.29 345.214C1641.29 347.542 1639.4 349.429 1637.07 349.429C1634.74 349.429 1632.86 347.542 1632.86 345.214C1632.86 342.887 1634.74 341 1637.07 341C1639.4 341 1641.29 342.887 1641.29 345.214ZM1653.93 349.429C1656.26 349.429 1658.14 347.542 1658.14 345.214C1658.14 342.887 1656.26 341 1653.93 341C1651.6 341 1649.71 342.887 1649.71 345.214C1649.71 347.542 1651.6 349.429 1653.93 349.429ZM1675 345.214C1675 347.542 1673.11 349.429 1670.79 349.429C1668.46 349.429 1666.57 347.542 1666.57 345.214C1666.57 342.887 1668.46 341 1670.79 341C1673.11 341 1675 342.887 1675 345.214ZM1687.64 349.429C1689.97 349.429 1691.86 347.542 1691.86 345.214C1691.86 342.887 1689.97 341 1687.64 341C1685.32 341 1683.43 342.887 1683.43 345.214C1683.43 347.542 1685.32 349.429 1687.64 349.429ZM1708.71 345.214C1708.71 347.542 1706.83 349.429 1704.5 349.429C1702.17 349.429 1700.29 347.542 1700.29 345.214C1700.29 342.887 1702.17 341 1704.5 341C1706.83 341 1708.71 342.887 1708.71 345.214ZM1721.36 349.429C1723.68 349.429 1725.57 347.542 1725.57 345.214C1725.57 342.887 1723.68 341 1721.36 341C1719.03 341 1717.14 342.887 1717.14 345.214C1717.14 347.542 1719.03 349.429 1721.36 349.429Z" fill="url(#paint20_linear_0_1)"/>
<path fill-rule="evenodd" clip-rule="evenodd" d="M1658.14 362.071C1658.14 364.399 1656.26 366.286 1653.93 366.286C1651.6 366.286 1649.71 364.399 1649.71 362.071C1649.71 359.744 1651.6 357.857 1653.93 357.857C1656.26 357.857 1658.14 359.744 1658.14 362.071ZM1641.29 362.071C1641.29 364.399 1639.4 366.286 1637.07 366.286C1634.74 366.286 1632.86 364.399 1632.86 362.071C1632.86 359.744 1634.74 357.857 1637.07 357.857C1639.4 357.857 1641.29 359.744 1641.29 362.071ZM1670.79 366.286C1673.11 366.286 1675 364.399 1675 362.071C1675 359.744 1673.11 357.857 1670.79 357.857C1668.46 357.857 1666.57 359.744 1666.57 362.071C1666.57 364.399 1668.46 366.286 1670.79 366.286ZM1691.86 362.071C1691.86 364.399 1689.97 366.286 1687.64 366.286C1685.32 366.286 1683.43 364.399 1683.43 362.071C1683.43 359.744 1685.32 357.857 1687.64 357.857C1689.97 357.857 1691.86 359.744 1691.86 362.071ZM1704.5 366.286C1706.83 366.286 1708.71 364.399 1708.71 362.071C1708.71 359.744 1706.83 357.857 1704.5 357.857C1702.17 357.857 1700.29 359.744 1700.29 362.071C1700.29 364.399 1702.17 366.286 1704.5 366.286ZM1725.57 362.071C1725.57 364.399 1723.68 366.286 1721.36 366.286C1719.03 366.286 1717.14 364.399 1717.14 362.071C1717.14 359.744 1719.03 357.857 1721.36 357.857C1723.68 357.857 1725.57 359.744 1725.57 362.071ZM1738.21 366.286C1740.54 366.286 1742.43 364.399 1742.43 362.071C1742.43 359.744 1740.54 357.857 1738.21 357.857C1735.89 357.857 1734 359.744 1734 362.071C1734 364.399 1735.89 366.286 1738.21 366.286Z" fill="url(#paint21_linear_0_1)"/>
<path fill-rule="evenodd" clip-rule="evenodd" d="M1675 378.929C1675 381.256 1673.11 383.143 1670.79 383.143C1668.46 383.143 1666.57 381.256 1666.57 378.929C1666.57 376.601 1668.46 374.714 1670.79 374.714C1673.11 374.714 1675 376.601 1675 378.929ZM1658.14 378.929C1658.14 381.256 1656.26 383.143 1653.93 383.143C1651.6 383.143 1649.71 381.256 1649.71 378.929C1649.71 376.601 1651.6 374.714 1653.93 374.714C1656.26 374.714 1658.14 376.601 1658.14 378.929ZM1687.64 383.143C1689.97 383.143 1691.86 381.256 1691.86 378.929C1691.86 376.601 1689.97 374.714 1687.64 374.714C1685.32 374.714 1683.43 376.601 1683.43 378.929C1683.43 381.256 1685.32 383.143 1687.64 383.143ZM1708.71 378.929C1708.71 381.256 1706.83 383.143 1704.5 383.143C1702.17 383.143 1700.29 381.256 1700.29 378.929C1700.29 376.601 1702.17 374.714 1704.5 374.714C1706.83 374.714 1708.71 376.601 1708.71 378.929ZM1721.36 383.143C1723.68 383.143 1725.57 381.256 1725.57 378.929C1725.57 376.601 1723.68 374.714 1721.36 374.714C1719.03 374.714 1717.14 376.601 1717.14 378.929C1717.14 381.256 1719.03 383.143 1721.36 383.143ZM1742.43 378.929C1742.43 381.256 1740.54 383.143 1738.21 383.143C1735.89 383.143 1734 381.256 1734 378.929C1734 376.601 1735.89 374.714 1738.21 374.714C1740.54 374.714 1742.43 376.601 1742.43 378.929ZM1755.07 383.143C1757.4 383.143 1759.29 381.256 1759.29 378.929C1759.29 376.601 1757.4 374.714 1755.07 374.714C1752.74 374.714 1750.86 376.601 1750.86 378.929C1750.86 381.256 1752.74 383.143 1755.07 383.143Z" fill="url(#paint22_linear_0_1)"/>
<path fill-rule="evenodd" clip-rule="evenodd" d="M1641.29 395.786C1641.29 398.113 1639.4 400 1637.07 400C1634.74 400 1632.86 398.113 1632.86 395.786C1632.86 393.458 1634.74 391.571 1637.07 391.571C1639.4 391.571 1641.29 393.458 1641.29 395.786ZM1624.43 395.786C1624.43 398.113 1622.54 400 1620.21 400C1617.89 400 1616 398.113 1616 395.786C1616 393.458 1617.89 391.571 1620.21 391.571C1622.54 391.571 1624.43 393.458 1624.43 395.786ZM1653.93 400C1656.26 400 1658.14 398.113 1658.14 395.786C1658.14 393.458 1656.26 391.571 1653.93 391.571C1651.6 391.571 1649.71 393.458 1649.71 395.786C1649.71 398.113 1651.6 400 1653.93 400ZM1675 395.786C1675 398.113 1673.11 400 1670.79 400C1668.46 400 1666.57 398.113 1666.57 395.786C1666.57 393.458 1668.46 391.571 1670.79 391.571C1673.11 391.571 1675 393.458 1675 395.786ZM1687.64 400C1689.97 400 1691.86 398.113 1691.86 395.786C1691.86 393.458 1689.97 391.571 1687.64 391.571C1685.32 391.571 1683.43 393.458 1683.43 395.786C1683.43 398.113 1685.32 400 1687.64 400ZM1708.71 395.786C1708.71 398.113 1706.83 400 1704.5 400C1702.17 400 1700.29 398.113 1700.29 395.786C1700.29 393.458 1702.17 391.571 1704.5 391.571C1706.83 391.571 1708.71 393.458 1708.71 395.786ZM1721.36 400C1723.68 400 1725.57 398.113 1725.57 395.786C1725.57 393.458 1723.68 391.571 1721.36 391.571C1719.03 391.571 1717.14 393.458 1717.14 395.786C1717.14 398.113 1719.03 400 1721.36 400Z" fill="url(#paint23_linear_0_1)"/>
</g>
<path fill-rule="evenodd" clip-rule="evenodd" d="M1874.43 247.214C1874.43 249.542 1872.54 251.429 1870.21 251.429C1867.89 251.429 1866 249.542 1866 247.214C1866 244.887 1867.89 243 1870.21 243C1872.54 243 1874.43 244.887 1874.43 247.214ZM1891.29 247.214C1891.29 249.542 1889.4 251.429 1887.07 251.429C1884.74 251.429 1882.86 249.542 1882.86 247.214C1882.86 244.887 1884.74 243 1887.07 243C1889.4 243 1891.29 244.887 1891.29 247.214ZM1903.93 251.429C1906.26 251.429 1908.14 249.542 1908.14 247.214C1908.14 244.887 1906.26 243 1903.93 243C1901.6 243 1899.71 244.887 1899.71 247.214C1899.71 249.542 1901.6 251.429 1903.93 251.429ZM1925 247.214C1925 249.542 1923.11 251.429 1920.79 251.429C1918.46 251.429 1916.57 249.542 1916.57 247.214C1916.57 244.887 1918.46 243 1920.79 243C1923.11 243 1925 244.887 1925 247.214ZM1937.64 251.429C1939.97 251.429 1941.86 249.542 1941.86 247.214C1941.86 244.887 1939.97 243 1937.64 243C1935.32 243 1933.43 244.887 1933.43 247.214C1933.43 249.542 1935.32 251.429 1937.64 251.429ZM1958.71 247.214C1958.71 249.542 1956.83 251.429 1954.5 251.429C1952.17 251.429 1950.29 249.542 1950.29 247.214C1950.29 244.887 1952.17 243 1954.5 243C1956.83 243 1958.71 244.887 1958.71 247.214ZM1971.36 251.429C1973.68 251.429 1975.57 249.542 1975.57 247.214C1975.57 244.887 1973.68 243 1971.36 243C1969.03 243 1967.14 244.887 1967.14 247.214C1967.14 249.542 1969.03 251.429 1971.36 251.429Z" fill="url(#paint24_linear_0_1)"/>
<path fill-rule="evenodd" clip-rule="evenodd" d="M1908.14 264.071C1908.14 266.399 1906.26 268.286 1903.93 268.286C1901.6 268.286 1899.71 266.399 1899.71 264.071C1899.71 261.744 1901.6 259.857 1903.93 259.857C1906.26 259.857 1908.14 261.744 1908.14 264.071ZM1891.29 264.071C1891.29 266.399 1889.4 268.286 1887.07 268.286C1884.74 268.286 1882.86 266.399 1882.86 264.071C1882.86 261.744 1884.74 259.857 1887.07 259.857C1889.4 259.857 1891.29 261.744 1891.29 264.071ZM1920.79 268.286C1923.11 268.286 1925 266.399 1925 264.071C1925 261.744 1923.11 259.857 1920.79 259.857C1918.46 259.857 1916.57 261.744 1916.57 264.071C1916.57 266.399 1918.46 268.286 1920.79 268.286ZM1941.86 264.071C1941.86 266.399 1939.97 268.286 1937.64 268.286C1935.32 268.286 1933.43 266.399 1933.43 264.071C1933.43 261.744 1935.32 259.857 1937.64 259.857C1939.97 259.857 1941.86 261.744 1941.86 264.071ZM1954.5 268.286C1956.83 268.286 1958.71 266.399 1958.71 264.071C1958.71 261.744 1956.83 259.857 1954.5 259.857C1952.17 259.857 1950.29 261.744 1950.29 264.071C1950.29 266.399 1952.17 268.286 1954.5 268.286ZM1975.57 264.071C1975.57 266.399 1973.68 268.286 1971.36 268.286C1969.03 268.286 1967.14 266.399 1967.14 264.071C1967.14 261.744 1969.03 259.857 1971.36 259.857C1973.68 259.857 1975.57 261.744 1975.57 264.071ZM1988.21 268.286C1990.54 268.286 1992.43 266.399 1992.43 264.071C1992.43 261.744 1990.54 259.857 1988.21 259.857C1985.89 259.857 1984 261.744 1984 264.071C1984 266.399 1985.89 268.286 1988.21 268.286Z" fill="url(#paint25_linear_0_1)"/>
<path fill-rule="evenodd" clip-rule="evenodd" d="M1925 280.929C1925 283.256 1923.11 285.143 1920.79 285.143C1918.46 285.143 1916.57 283.256 1916.57 280.929C1916.57 278.601 1918.46 276.714 1920.79 276.714C1923.11 276.714 1925 278.601 1925 280.929ZM1908.14 280.929C1908.14 283.256 1906.26 285.143 1903.93 285.143C1901.6 285.143 1899.71 283.256 1899.71 280.929C1899.71 278.601 1901.6 276.714 1903.93 276.714C1906.26 276.714 1908.14 278.601 1908.14 280.929ZM1937.64 285.143C1939.97 285.143 1941.86 283.256 1941.86 280.929C1941.86 278.601 1939.97 276.714 1937.64 276.714C1935.32 276.714 1933.43 278.601 1933.43 280.929C1933.43 283.256 1935.32 285.143 1937.64 285.143ZM1958.71 280.929C1958.71 283.256 1956.83 285.143 1954.5 285.143C1952.17 285.143 1950.29 283.256 1950.29 280.929C1950.29 278.601 1952.17 276.714 1954.5 276.714C1956.83 276.714 1958.71 278.601 1958.71 280.929ZM1971.36 285.143C1973.68 285.143 1975.57 283.256 1975.57 280.929C1975.57 278.601 1973.68 276.714 1971.36 276.714C1969.03 276.714 1967.14 278.601 1967.14 280.929C1967.14 283.256 1969.03 285.143 1971.36 285.143ZM1992.43 280.929C1992.43 283.256 1990.54 285.143 1988.21 285.143C1985.89 285.143 1984 283.256 1984 280.929C1984 278.601 1985.89 276.714 1988.21 276.714C1990.54 276.714 1992.43 278.601 1992.43 280.929ZM2005.07 285.143C2007.4 285.143 2009.29 283.256 2009.29 280.929C2009.29 278.601 2007.4 276.714 2005.07 276.714C2002.74 276.714 2000.86 278.601 2000.86 280.929C2000.86 283.256 2002.74 285.143 2005.07 285.143Z" fill="url(#paint26_linear_0_1)"/>
<path fill-rule="evenodd" clip-rule="evenodd" d="M1891.29 297.786C1891.29 300.113 1889.4 302 1887.07 302C1884.74 302 1882.86 300.113 1882.86 297.786C1882.86 295.458 1884.74 293.571 1887.07 293.571C1889.4 293.571 1891.29 295.458 1891.29 297.786ZM1874.43 297.786C1874.43 300.113 1872.54 302 1870.21 302C1867.89 302 1866 300.113 1866 297.786C1866 295.458 1867.89 293.571 1870.21 293.571C1872.54 293.571 1874.43 295.458 1874.43 297.786ZM1903.93 302C1906.26 302 1908.14 300.113 1908.14 297.786C1908.14 295.458 1906.26 293.571 1903.93 293.571C1901.6 293.571 1899.71 295.458 1899.71 297.786C1899.71 300.113 1901.6 302 1903.93 302ZM1925 297.786C1925 300.113 1923.11 302 1920.79 302C1918.46 302 1916.57 300.113 1916.57 297.786C1916.57 295.458 1918.46 293.571 1920.79 293.571C1923.11 293.571 1925 295.458 1925 297.786ZM1937.64 302C1939.97 302 1941.86 300.113 1941.86 297.786C1941.86 295.458 1939.97 293.571 1937.64 293.571C1935.32 293.571 1933.43 295.458 1933.43 297.786C1933.43 300.113 1935.32 302 1937.64 302ZM1958.71 297.786C1958.71 300.113 1956.83 302 1954.5 302C1952.17 302 1950.29 300.113 1950.29 297.786C1950.29 295.458 1952.17 293.571 1954.5 293.571C1956.83 293.571 1958.71 295.458 1958.71 297.786ZM1971.36 302C1973.68 302 1975.57 300.113 1975.57 297.786C1975.57 295.458 1973.68 293.571 1971.36 293.571C1969.03 293.571 1967.14 295.458 1967.14 297.786C1967.14 300.113 1969.03 302 1971.36 302Z" fill="url(#paint27_linear_0_1)"/>
<defs>
<linearGradient id="paint0_linear_0_1" x1="345" y1="2.5" x2="408.146" y2="2.50001" gradientUnits="userSpaceOnUse">
<stop stop-color="#BD24DF"/>
<stop offset="1" stop-color="#2D6ADE"/>
</linearGradient>
<linearGradient id="paint1_linear_0_1" x1="355" y1="12.5" x2="418.146" y2="12.5" gradientUnits="userSpaceOnUse">
<stop stop-color="#BD24DF"/>
<stop offset="1" stop-color="#2D6ADE"/>
</linearGradient>
<linearGradient id="paint2_linear_0_1" x1="365" y1="22.5" x2="428.146" y2="22.5" gradientUnits="userSpaceOnUse">
<stop stop-color="#BD24DF"/>
<stop offset="1" stop-color="#2D6ADE"/>
</linearGradient>
<linearGradient id="paint3_linear_0_1" x1="345" y1="32.5" x2="408.146" y2="32.5" gradientUnits="userSpaceOnUse">
<stop stop-color="#BD24DF"/>
<stop offset="1" stop-color="#2D6ADE"/>
</linearGradient>
<linearGradient id="paint4_linear_0_1" x1="0" y1="248.214" x2="106.446" y2="248.214" gradientUnits="userSpaceOnUse">
<stop stop-color="#BD24DF"/>
<stop offset="1" stop-color="#2D6ADE"/>
</linearGradient>
<linearGradient id="paint5_linear_0_1" x1="16.8571" y1="265.071" x2="123.303" y2="265.071" gradientUnits="userSpaceOnUse">
<stop stop-color="#BD24DF"/>
<stop offset="1" stop-color="#2D6ADE"/>
</linearGradient>
<linearGradient id="paint6_linear_0_1" x1="33.7143" y1="281.929" x2="140.16" y2="281.929" gradientUnits="userSpaceOnUse">
<stop stop-color="#BD24DF"/>
<stop offset="1" stop-color="#2D6ADE"/>
</linearGradient>
<linearGradient id="paint7_linear_0_1" x1="0" y1="298.786" x2="106.446" y2="298.786" gradientUnits="userSpaceOnUse">
<stop stop-color="#BD24DF"/>
<stop offset="1" stop-color="#2D6ADE"/>
</linearGradient>
<linearGradient id="paint8_linear_0_1" x1="1076" y1="113.214" x2="1182.45" y2="113.214" gradientUnits="userSpaceOnUse">
<stop stop-color="#BD24DF"/>
<stop offset="1" stop-color="#2D6ADE"/>
</linearGradient>
<linearGradient id="paint9_linear_0_1" x1="1092.86" y1="130.071" x2="1199.3" y2="130.071" gradientUnits="userSpaceOnUse">
<stop stop-color="#BD24DF"/>
<stop offset="1" stop-color="#2D6ADE"/>
</linearGradient>
<linearGradient id="paint10_linear_0_1" x1="1109.71" y1="146.929" x2="1216.16" y2="146.929" gradientUnits="userSpaceOnUse">
<stop stop-color="#BD24DF"/>
<stop offset="1" stop-color="#2D6ADE"/>
</linearGradient>
<linearGradient id="paint11_linear_0_1" x1="1076" y1="163.786" x2="1182.45" y2="163.786" gradientUnits="userSpaceOnUse">
<stop stop-color="#BD24DF"/>
<stop offset="1" stop-color="#2D6ADE"/>
</linearGradient>
<linearGradient id="paint12_linear_0_1" x1="1076" y1="368.214" x2="1182.45" y2="368.214" gradientUnits="userSpaceOnUse">
<stop stop-color="#BD24DF"/>
<stop offset="1" stop-color="#2D6ADE"/>
</linearGradient>
<linearGradient id="paint13_linear_0_1" x1="1092.86" y1="385.071" x2="1199.3" y2="385.071" gradientUnits="userSpaceOnUse">
<stop stop-color="#BD24DF"/>
<stop offset="1" stop-color="#2D6ADE"/>
</linearGradient>
<linearGradient id="paint14_linear_0_1" x1="1109.71" y1="401.929" x2="1216.16" y2="401.929" gradientUnits="userSpaceOnUse">
<stop stop-color="#BD24DF"/>
<stop offset="1" stop-color="#2D6ADE"/>
</linearGradient>
<linearGradient id="paint15_linear_0_1" x1="1076" y1="418.786" x2="1182.45" y2="418.786" gradientUnits="userSpaceOnUse">
<stop stop-color="#BD24DF"/>
<stop offset="1" stop-color="#2D6ADE"/>
</linearGradient>
<linearGradient id="paint16_linear_0_1" x1="1654" y1="172.214" x2="1760.45" y2="172.214" gradientUnits="userSpaceOnUse">
<stop stop-color="#BD24DF"/>
<stop offset="1" stop-color="#2D6ADE"/>
</linearGradient>
<linearGradient id="paint17_linear_0_1" x1="1670.86" y1="189.071" x2="1777.3" y2="189.071" gradientUnits="userSpaceOnUse">
<stop stop-color="#BD24DF"/>
<stop offset="1" stop-color="#2D6ADE"/>
</linearGradient>
<linearGradient id="paint18_linear_0_1" x1="1687.71" y1="205.929" x2="1794.16" y2="205.929" gradientUnits="userSpaceOnUse">
<stop stop-color="#BD24DF"/>
<stop offset="1" stop-color="#2D6ADE"/>
</linearGradient>
<linearGradient id="paint19_linear_0_1" x1="1654" y1="222.786" x2="1760.45" y2="222.786" gradientUnits="userSpaceOnUse">
<stop stop-color="#BD24DF"/>
<stop offset="1" stop-color="#2D6ADE"/>
</linearGradient>
<linearGradient id="paint20_linear_0_1" x1="1616" y1="345.214" x2="1722.45" y2="345.214" gradientUnits="userSpaceOnUse">
<stop stop-color="#BD24DF"/>
<stop offset="1" stop-color="#2D6ADE"/>
</linearGradient>
<linearGradient id="paint21_linear_0_1" x1="1632.86" y1="362.071" x2="1739.3" y2="362.071" gradientUnits="userSpaceOnUse">
<stop stop-color="#BD24DF"/>
<stop offset="1" stop-color="#2D6ADE"/>
</linearGradient>
<linearGradient id="paint22_linear_0_1" x1="1649.71" y1="378.929" x2="1756.16" y2="378.929" gradientUnits="userSpaceOnUse">
<stop stop-color="#BD24DF"/>
<stop offset="1" stop-color="#2D6ADE"/>
</linearGradient>
<linearGradient id="paint23_linear_0_1" x1="1616" y1="395.786" x2="1722.45" y2="395.786" gradientUnits="userSpaceOnUse">
<stop stop-color="#BD24DF"/>
<stop offset="1" stop-color="#2D6ADE"/>
</linearGradient>
<linearGradient id="paint24_linear_0_1" x1="1866" y1="247.214" x2="1972.45" y2="247.214" gradientUnits="userSpaceOnUse">
<stop stop-color="#BD24DF"/>
<stop offset="1" stop-color="#2D6ADE"/>
</linearGradient>
<linearGradient id="paint25_linear_0_1" x1="1882.86" y1="264.071" x2="1989.3" y2="264.071" gradientUnits="userSpaceOnUse">
<stop stop-color="#BD24DF"/>
<stop offset="1" stop-color="#2D6ADE"/>
</linearGradient>
<linearGradient id="paint26_linear_0_1" x1="1899.71" y1="280.929" x2="2006.16" y2="280.929" gradientUnits="userSpaceOnUse">
<stop stop-color="#BD24DF"/>
<stop offset="1" stop-color="#2D6ADE"/>
</linearGradient>
<linearGradient id="paint27_linear_0_1" x1="1866" y1="297.786" x2="1972.45" y2="297.786" gradientUnits="userSpaceOnUse">
<stop stop-color="#BD24DF"/>
<stop offset="1" stop-color="#2D6ADE"/>
</linearGradient>
</defs>
</svg>
