<svg width="49" height="49" viewBox="0 0 49 49" fill="none" xmlns="http://www.w3.org/2000/svg">
<path d="M48 24.5C48 11.526 37.474 1 24.5 1C11.526 1 1 11.526 1 24.5C1 37.474 11.526 48 24.5 48C37.474 48 48 37.474 48 24.5Z" stroke="url(#paint0_linear_7_49646)" stroke-miterlimit="10"/>
<path d="M19.6421 34.1007L33.6503 25.6383C33.8455 25.5193 34.0069 25.3521 34.1189 25.1528C34.2309 24.9534 34.2897 24.7286 34.2897 24.5C34.2897 24.2713 34.2309 24.0465 34.1189 23.8472C34.0069 23.6478 33.8455 23.4807 33.6503 23.3617L19.6421 14.8993C19.4413 14.779 19.2121 14.7142 18.978 14.7117C18.744 14.7092 18.5135 14.7691 18.3102 14.885C18.1069 15.001 17.9381 15.169 17.8211 15.3717C17.7041 15.5745 17.6432 15.8047 17.6446 16.0388V32.9612C17.6432 33.1953 17.7041 33.4255 17.8211 33.6282C17.9381 33.831 18.1069 33.9989 18.3102 34.1149C18.5135 34.2309 18.744 34.2907 18.978 34.2882C19.2121 34.2857 19.4413 34.221 19.6421 34.1007Z" fill="white"/>
<defs>
<linearGradient id="paint0_linear_7_49646" x1="1" y1="24.5" x2="46.6594" y2="24.5" gradientUnits="userSpaceOnUse">
<stop stop-color="#BD24DF"/>
<stop offset="1" stop-color="#2D6ADE"/>
</linearGradient>
</defs>
</svg>
