<svg width="44" height="44" viewBox="0 0 44 44" fill="none" xmlns="http://www.w3.org/2000/svg">
<path d="M0 11C0 9.54131 0.579463 8.14236 1.61091 7.11091C2.64236 6.07946 4.04131 5.5 5.5 5.5H38.5C39.9587 5.5 41.3576 6.07946 42.3891 7.11091C43.4205 8.14236 44 9.54131 44 11V33C44 34.4587 43.4205 35.8576 42.3891 36.8891C41.3576 37.9205 39.9587 38.5 38.5 38.5H5.5C4.04131 38.5 2.64236 37.9205 1.61091 36.8891C0.579463 35.8576 0 34.4587 0 33V11ZM5.5 8.25C4.77065 8.25 4.07118 8.53973 3.55546 9.05546C3.03973 9.57118 2.75 10.2707 2.75 11V13.75H41.25V11C41.25 10.2707 40.9603 9.57118 40.4445 9.05546C39.9288 8.53973 39.2293 8.25 38.5 8.25H5.5ZM41.25 19.25H2.75V33C2.75 33.7293 3.03973 34.4288 3.55546 34.9445C4.07118 35.4603 4.77065 35.75 5.5 35.75H38.5C39.2293 35.75 39.9288 35.4603 40.4445 34.9445C40.9603 34.4288 41.25 33.7293 41.25 33V19.25Z" fill="white"/>
<path d="M5.5 27.5C5.5 26.7707 5.78973 26.0712 6.30546 25.5555C6.82118 25.0397 7.52065 24.75 8.25 24.75H11C11.7293 24.75 12.4288 25.0397 12.9445 25.5555C13.4603 26.0712 13.75 26.7707 13.75 27.5V30.25C13.75 30.9793 13.4603 31.6788 12.9445 32.1945C12.4288 32.7103 11.7293 33 11 33H8.25C7.52065 33 6.82118 32.7103 6.30546 32.1945C5.78973 31.6788 5.5 30.9793 5.5 30.25V27.5Z" fill="white"/>
</svg>
