<svg width="44" height="44" viewBox="0 0 44 44" fill="none" xmlns="http://www.w3.org/2000/svg">
<path d="M21.9987 1.83331C18.0101 1.83331 14.1111 3.01607 10.7947 5.23201C7.47832 7.44795 4.8935 10.5976 3.36714 14.2825C1.84077 17.9675 1.4414 22.0224 2.21954 25.9343C2.99767 29.8462 4.91836 33.4396 7.73872 36.26C10.5591 39.0803 14.1524 41.001 18.0644 41.7791C21.9763 42.5573 26.0312 42.1579 29.7162 40.6315C33.4011 39.1052 36.5507 36.5204 38.7667 33.204C40.9826 29.8876 42.1654 25.9886 42.1654 22C42.1654 16.6514 40.0407 11.522 36.2587 7.73999C32.4767 3.95801 27.3472 1.83331 21.9987 1.83331ZM21.9987 38.5C18.7353 38.5 15.5452 37.5323 12.8318 35.7192C10.1184 33.9062 8.00354 31.3292 6.75469 28.3143C5.50585 25.2993 5.17909 21.9817 5.81575 18.781C6.45241 15.5803 8.02388 12.6403 10.3314 10.3327C12.639 8.02515 15.579 6.45368 18.7797 5.81702C21.9804 5.18037 25.298 5.50712 28.313 6.75597C31.328 8.00481 33.9049 10.1197 35.718 12.8331C37.531 15.5465 38.4987 18.7366 38.4987 22C38.4987 26.3761 36.7603 30.5729 33.666 33.6672C30.5716 36.7616 26.3748 38.5 21.9987 38.5ZM25.6654 12.8333V11C25.6654 10.5137 25.4722 10.0474 25.1284 9.70362C24.7846 9.3598 24.3183 9.16665 23.832 9.16665C23.3458 9.16665 22.8795 9.3598 22.5357 9.70362C22.1919 10.0474 21.9987 10.5137 21.9987 11V12.8333H20.1654V11C20.1654 10.5137 19.9722 10.0474 19.6284 9.70362C19.2846 9.3598 18.8183 9.16665 18.332 9.16665C17.8458 9.16665 17.3795 9.3598 17.0357 9.70362C16.6919 10.0474 16.4987 10.5137 16.4987 11V12.8333H14.6654C14.1791 12.8333 13.7128 13.0265 13.369 13.3703C13.0252 13.7141 12.832 14.1804 12.832 14.6666C12.832 15.1529 13.0252 15.6192 13.369 15.963C13.7128 16.3068 14.1791 16.5 14.6654 16.5H16.4987V27.5H14.6654C14.1791 27.5 13.7128 27.6931 13.369 28.0369C13.0252 28.3808 12.832 28.8471 12.832 29.3333C12.832 29.8195 13.0252 30.2859 13.369 30.6297C13.7128 30.9735 14.1791 31.1666 14.6654 31.1666H16.4987V33C16.4987 33.4862 16.6919 33.9525 17.0357 34.2963C17.3795 34.6402 17.8458 34.8333 18.332 34.8333C18.8183 34.8333 19.2846 34.6402 19.6284 34.2963C19.9722 33.9525 20.1654 33.4862 20.1654 33V31.1666H21.9987V33C21.9987 33.4862 22.1919 33.9525 22.5357 34.2963C22.8795 34.6402 23.3458 34.8333 23.832 34.8333C24.3183 34.8333 24.7846 34.6402 25.1284 34.2963C25.4722 33.9525 25.6654 33.4862 25.6654 33V31.1666C27.1241 31.1666 28.523 30.5872 29.5545 29.5557C30.5859 28.5243 31.1654 27.1253 31.1654 25.6666C31.1623 24.3123 30.6597 23.0067 29.7537 22C30.6597 20.9933 31.1623 19.6877 31.1654 18.3333C31.1654 16.8746 30.5859 15.4757 29.5545 14.4442C28.523 13.4128 27.1241 12.8333 25.6654 12.8333ZM25.6654 27.5H20.1654V23.8333H25.6654C26.1516 23.8333 26.6179 24.0265 26.9617 24.3703C27.3056 24.7141 27.4987 25.1804 27.4987 25.6666C27.4987 26.1529 27.3056 26.6192 26.9617 26.963C26.6179 27.3068 26.1516 27.5 25.6654 27.5ZM25.6654 20.1666H20.1654V16.5H25.6654C26.1516 16.5 26.6179 16.6931 26.9617 17.037C27.3056 17.3808 27.4987 17.8471 27.4987 18.3333C27.4987 18.8195 27.3056 19.2859 26.9617 19.6297C26.6179 19.9735 26.1516 20.1666 25.6654 20.1666Z" fill="white"/>
</svg>
