<svg width="30" height="30" viewBox="0 0 30 30" fill="none" xmlns="http://www.w3.org/2000/svg">
<path d="M14.9921 10.0186H17.9231C18.1548 10.0186 18.377 9.92656 18.5408 9.76272C18.7046 9.59889 18.7967 9.37668 18.7967 9.14499C18.7967 8.91329 18.7046 8.69108 18.5408 8.52725C18.377 8.36341 18.1548 8.27137 17.9231 8.27137H15.8657V7.39776C15.8657 7.16606 15.7737 6.94385 15.6098 6.78002C15.446 6.61618 15.2238 6.52414 14.9921 6.52414C14.7604 6.52414 14.5382 6.61618 14.3744 6.78002C14.2105 6.94385 14.1185 7.16606 14.1185 7.39776V8.38057C13.2242 8.60789 12.4428 9.15212 11.9195 9.91214C11.3963 10.6722 11.1667 11.5963 11.2734 12.5128C11.3802 13.4294 11.816 14.276 12.5 14.8954C13.1839 15.5148 14.0695 15.8649 14.9921 15.8806C15.2694 15.8678 15.5464 15.9113 15.8063 16.0086C16.0663 16.1059 16.3038 16.2549 16.5046 16.4466C16.7053 16.6383 16.8651 16.8687 16.9743 17.1239C17.0835 17.3791 17.1398 17.6538 17.1398 17.9314C17.1398 18.2089 17.0835 18.4836 16.9743 18.7388C16.8651 18.994 16.7053 19.2245 16.5046 19.4162C16.3038 19.6079 16.0663 19.7568 15.8063 19.8541C15.5464 19.9514 15.2694 19.995 14.9921 19.9822H12.0611C11.8294 19.9822 11.6072 20.0742 11.4434 20.2381C11.2795 20.4019 11.1875 20.6241 11.1875 20.8558C11.1875 21.0875 11.2795 21.3097 11.4434 21.4735C11.6072 21.6374 11.8294 21.7294 12.0611 21.7294H14.1185V22.603C14.1185 22.8347 14.2105 23.0569 14.3744 23.2208C14.5382 23.3846 14.7604 23.4766 14.9921 23.4766C15.2238 23.4766 15.446 23.3846 15.6098 23.2208C15.7737 23.0569 15.8657 22.8347 15.8657 22.603V21.6377C16.7638 21.4136 17.5496 20.8702 18.0762 20.109C18.6028 19.3478 18.8342 18.4209 18.7272 17.5015C18.6201 16.5821 18.182 15.7332 17.4946 15.1133C16.8072 14.4934 15.9176 14.1451 14.9921 14.1333C14.7148 14.1461 14.4378 14.1026 14.1779 14.0053C13.9179 13.908 13.6804 13.759 13.4796 13.5673C13.2789 13.3756 13.1191 13.1452 13.0099 12.89C12.9007 12.6348 12.8444 12.3601 12.8444 12.0825C12.8444 11.8049 12.9007 11.5303 13.0099 11.275C13.1191 11.0198 13.2789 10.7894 13.4796 10.5977C13.6804 10.406 13.9179 10.257 14.1779 10.1598C14.4378 10.0625 14.7148 10.0189 14.9921 10.0317V10.0186Z" fill="white"/>
<path d="M25.6013 4.38815C23.1466 1.93592 19.9177 0.410492 16.4646 0.0717003C13.0115 -0.267091 9.54771 0.601707 6.66324 2.53011C3.77878 4.45852 1.65205 7.32726 0.645304 10.6477C-0.361446 13.9681 -0.185948 17.5349 1.1419 20.7405C2.46976 23.946 4.86783 26.5921 7.92767 28.2281C10.9875 29.864 14.5199 30.3886 17.923 29.7124C21.3262 29.0363 24.3898 27.2012 26.5919 24.5199C28.7939 21.8385 29.9984 18.4767 30 15.0069C30.0064 13.0339 29.6209 11.0792 28.8658 9.25633C28.1107 7.43346 27.0011 5.77872 25.6013 4.38815ZM24.3608 24.3677C22.1935 26.5357 19.3416 27.885 16.291 28.1857C13.2403 28.4864 10.1798 27.72 7.63098 26.0169C5.08215 24.3139 3.20276 21.7797 2.3131 18.8462C1.42344 15.9128 1.57856 12.7616 2.75203 9.92963C3.9255 7.09771 6.04469 4.76035 8.74845 3.31589C11.4522 1.87143 14.5732 1.40926 17.5796 2.00815C20.5859 2.60703 23.2916 4.22991 25.2354 6.60021C27.1792 8.97051 28.2409 11.9415 28.2396 15.0069C28.2434 16.7461 27.9026 18.4688 27.2368 20.0755C26.5711 21.6821 25.5935 23.141 24.3608 24.3677Z" fill="white"/>
</svg>
