<svg width="23" height="28" viewBox="0 0 23 28" fill="none" xmlns="http://www.w3.org/2000/svg">
<path d="M11.4678 0C11.0323 0 0.765625 0.0311109 0.765625 3.01778V24.9822C0.765625 27.9689 11.0323 28 11.4678 28C11.9034 28 22.1701 27.9689 22.1701 24.9822V3.01778C22.1701 0.0311109 11.9034 0 11.4678 0ZM2.07229 4.63556C4.15674 5.69333 8.35674 6.06667 11.4678 6.06667C14.5478 6.06667 18.779 5.69333 20.8634 4.63556V8.83556C20.739 9.24 17.6901 10.4844 11.4678 10.4844C5.27674 10.4844 2.19674 9.24 2.07229 8.83556V4.63556ZM20.7701 3.11111C20.739 3.14222 20.6767 3.17333 20.6456 3.20444L20.6145 3.23556C20.5523 3.26667 20.4901 3.29778 20.3967 3.36L20.4901 3.54667L20.3345 3.39111C20.2723 3.42222 20.179 3.45333 20.0856 3.48444L19.9923 3.51556C19.899 3.54667 19.8056 3.57778 19.6812 3.64L19.5878 3.67111C19.4634 3.70222 19.3701 3.73333 19.2456 3.79556L19.0901 3.82667C18.9656 3.85778 18.8412 3.88889 18.6856 3.92L18.499 3.95111C18.3434 3.98222 18.1878 4.01333 18.0323 4.04444C17.939 4.07556 17.8145 4.07556 17.6901 4.10667L17.379 4.16889C17.2856 4.2 17.1612 4.2 17.0678 4.23111H17.0056C16.8812 4.26222 16.7878 4.26222 16.6634 4.29333C16.539 4.32444 16.4145 4.32444 16.259 4.35556C16.1345 4.38667 15.979 4.38667 15.8545 4.41778C15.7301 4.41778 15.5745 4.44889 15.4501 4.44889C15.2945 4.48 15.139 4.48 14.9834 4.48C14.859 4.48 14.7034 4.51111 14.579 4.51111C14.3923 4.51111 14.2056 4.54222 14.019 4.54222L13.6145 4.57333C13.3967 4.57333 13.179 4.60444 12.9612 4.60444H12.619C12.2767 4.60444 11.9034 4.60444 11.5301 4.60444C11.1567 4.60444 10.8145 4.60444 10.4723 4.60444H10.1301C9.91229 4.60444 9.69451 4.60444 9.47674 4.57333L9.07229 4.54222C8.88562 4.54222 8.69896 4.51111 8.51229 4.51111C8.38785 4.51111 8.23229 4.48 8.10785 4.48C7.95229 4.48 7.79674 4.44889 7.64118 4.44889C7.51674 4.44889 7.36118 4.41778 7.23674 4.41778C7.08118 4.38667 6.95674 4.38667 6.83229 4.35556C6.70785 4.32444 6.55229 4.32444 6.42785 4.29333C6.3034 4.26222 6.21007 4.26222 6.08563 4.23111L5.86785 4.26222C5.77451 4.26222 5.68118 4.23111 5.58785 4.23111L5.27674 4.16889C5.15229 4.13778 5.02785 4.13778 4.93451 4.10667C4.77896 4.07556 4.6234 4.04444 4.46785 4.01333L4.28118 3.98222C4.12562 3.95111 4.00118 3.92 3.87674 3.88889L3.72118 3.82667C3.59674 3.79556 3.47229 3.76444 3.37896 3.70222L3.25451 3.67111C3.16118 3.64 3.06785 3.60889 2.97451 3.57778L2.88118 3.54667C2.78785 3.51556 2.72563 3.48444 2.63229 3.42222L2.60118 3.39111C2.53896 3.36 2.44562 3.32889 2.3834 3.26667L2.35229 3.23556C2.29007 3.20444 2.25896 3.17333 2.19674 3.11111C2.16563 3.08 2.13451 3.04889 2.13451 3.04889C2.13451 3.04889 2.13451 3.01778 2.22785 2.95556C2.29007 2.89333 2.3834 2.83111 2.50785 2.76889C2.60118 2.70667 2.69451 2.67556 2.81896 2.61333C2.91229 2.55111 3.03674 2.52 3.19229 2.45778C4.0634 2.14667 6.64562 1.36889 11.5301 1.36889C16.2278 1.36889 18.779 2.08444 19.6812 2.36444C20.6145 2.67556 20.8945 2.95556 20.8945 3.01778C20.8323 3.04889 20.8012 3.04889 20.7701 3.11111ZM2.07229 10.4222C4.15674 11.48 8.35674 11.8533 11.4678 11.8533C14.5478 11.8533 18.779 11.48 20.8634 10.4222V14.0622C20.739 14.4667 17.6901 15.7111 11.4678 15.7111C5.27674 15.7111 2.19674 14.4667 2.07229 14.0622V10.4222ZM2.07229 15.68C4.15674 16.7067 8.38785 17.1111 11.4678 17.1111C14.5478 17.1111 18.779 16.7378 20.8634 15.68V20.0044C20.739 20.4089 17.6901 21.6533 11.4678 21.6533C5.27674 21.6533 2.19674 20.4089 2.07229 20.0044V15.68ZM2.07229 21.6222C4.15674 22.68 8.35674 23.0533 11.4678 23.0533C14.5478 23.0533 18.779 22.68 20.8634 21.6222V24.9822C20.739 25.3867 17.6901 26.6311 11.4678 26.6311C5.27674 26.6311 2.19674 25.3867 2.07229 24.9822V21.6222Z" fill="white"/>
</svg>
