<svg width="25" height="30" viewBox="0 0 25 30" fill="none" xmlns="http://www.w3.org/2000/svg">
<path d="M12.1878 30C12.11 30 12.0313 29.9897 11.9553 29.9709C6.48111 28.5721 0 20.456 0 14.9996V3.49335C0 2.97583 0.420011 2.55582 0.937525 2.55582C2.6907 2.55582 5.29139 1.84236 8.58305 0.938589C9.63401 0.649831 10.7562 0.342323 11.9506 0.0301271C12.1081 -0.011124 12.2731 -0.00924897 12.4288 0.0310646C13.5266 0.322635 14.5654 0.610455 15.5451 0.882338C18.9211 1.81705 21.5865 2.55582 23.4381 2.55582C23.9566 2.55582 24.3757 2.97583 24.3757 3.49335V14.9996C24.3757 20.6547 19.0243 28.5984 12.3791 29.9803C12.3153 29.9934 12.2516 30 12.1878 30ZM1.87505 4.384V14.9996C1.87505 19.6235 7.51989 26.7337 12.2113 28.0978C17.6808 26.8049 22.5006 19.7688 22.5006 14.9996V4.38587C20.529 4.20868 18.0586 3.52428 15.0445 2.68801C14.1426 2.43769 13.1891 2.17425 12.186 1.90612C11.0881 2.19487 10.0521 2.47894 9.07993 2.74614C6.1586 3.54866 3.76135 4.2068 1.87505 4.384Z" fill="white"/>
<path d="M11.2504 19.6872C11.0019 19.6872 10.7638 19.5888 10.5875 19.4125L6.83743 15.6624C6.47086 15.2959 6.47086 14.7033 6.83743 14.3368C7.204 13.9702 7.79652 13.9702 8.16309 14.3368L11.2044 17.3781L17.1071 10.6317C17.4493 10.2407 18.0409 10.2023 18.4299 10.5435C18.8199 10.8848 18.8593 11.4764 18.519 11.8664L11.9563 19.3666C11.7857 19.5625 11.5419 19.6778 11.2822 19.6863C11.271 19.6872 11.2607 19.6872 11.2504 19.6872Z" fill="white"/>
</svg>
