<svg width="79" height="105" viewBox="0 0 79 105" fill="none" xmlns="http://www.w3.org/2000/svg">
<path d="M9.78 92.9H3.7L2.58 96H0.66L5.7 82.14H7.8L12.82 96H10.9L9.78 92.9ZM9.26 91.42L6.74 84.38L4.22 91.42H9.26ZM20.3566 84.84C21.6899 84.84 22.7699 85.2467 23.5966 86.06C24.4232 86.86 24.8366 88.02 24.8366 89.54V96H23.0366V89.8C23.0366 88.7067 22.7632 87.8733 22.2166 87.3C21.6699 86.7133 20.9232 86.42 19.9766 86.42C19.0166 86.42 18.2499 86.72 17.6766 87.32C17.1166 87.92 16.8366 88.7933 16.8366 89.94V96H15.0166V85.04H16.8366V86.6C17.1966 86.04 17.6832 85.6067 18.2966 85.3C18.9232 84.9933 19.6099 84.84 20.3566 84.84ZM27.1295 90.48C27.1295 89.36 27.3562 88.38 27.8095 87.54C28.2629 86.6867 28.8829 86.0267 29.6695 85.56C30.4695 85.0933 31.3629 84.86 32.3495 84.86C33.2029 84.86 33.9962 85.06 34.7295 85.46C35.4629 85.8467 36.0229 86.36 36.4095 87V81.2H38.2495V96H36.4095V93.94C36.0495 94.5933 35.5162 95.1333 34.8095 95.56C34.1029 95.9733 33.2762 96.18 32.3295 96.18C31.3562 96.18 30.4695 95.94 29.6695 95.46C28.8829 94.98 28.2629 94.3067 27.8095 93.44C27.3562 92.5733 27.1295 91.5867 27.1295 90.48ZM36.4095 90.5C36.4095 89.6733 36.2429 88.9533 35.9095 88.34C35.5762 87.7267 35.1229 87.26 34.5495 86.94C33.9895 86.6067 33.3695 86.44 32.6895 86.44C32.0095 86.44 31.3895 86.6 30.8295 86.92C30.2695 87.24 29.8229 87.7067 29.4895 88.32C29.1562 88.9333 28.9895 89.6533 28.9895 90.48C28.9895 91.32 29.1562 92.0533 29.4895 92.68C29.8229 93.2933 30.2695 93.7667 30.8295 94.1C31.3895 94.42 32.0095 94.58 32.6895 94.58C33.3695 94.58 33.9895 94.42 34.5495 94.1C35.1229 93.7667 35.5762 93.2933 35.9095 92.68C36.2429 92.0533 36.4095 91.3267 36.4095 90.5ZM43.1452 86.82C43.4652 86.1933 43.9185 85.7067 44.5052 85.36C45.1052 85.0133 45.8318 84.84 46.6852 84.84V86.72H46.2052C44.1652 86.72 43.1452 87.8267 43.1452 90.04V96H41.3252V85.04H43.1452V86.82ZM53.5661 96.18C52.5394 96.18 51.6061 95.9467 50.7661 95.48C49.9394 95.0133 49.2861 94.3533 48.8061 93.5C48.3394 92.6333 48.1061 91.6333 48.1061 90.5C48.1061 89.38 48.3461 88.3933 48.8261 87.54C49.3194 86.6733 49.9861 86.0133 50.8261 85.56C51.6661 85.0933 52.6061 84.86 53.6461 84.86C54.6861 84.86 55.6261 85.0933 56.4661 85.56C57.3061 86.0133 57.9661 86.6667 58.4461 87.52C58.9394 88.3733 59.1861 89.3667 59.1861 90.5C59.1861 91.6333 58.9328 92.6333 58.4261 93.5C57.9328 94.3533 57.2594 95.0133 56.4061 95.48C55.5528 95.9467 54.6061 96.18 53.5661 96.18ZM53.5661 94.58C54.2194 94.58 54.8328 94.4267 55.4061 94.12C55.9794 93.8133 56.4394 93.3533 56.7861 92.74C57.1461 92.1267 57.3261 91.38 57.3261 90.5C57.3261 89.62 57.1528 88.8733 56.8061 88.26C56.4594 87.6467 56.0061 87.1933 55.4461 86.9C54.8861 86.5933 54.2794 86.44 53.6261 86.44C52.9594 86.44 52.3461 86.5933 51.7861 86.9C51.2394 87.1933 50.7994 87.6467 50.4661 88.26C50.1328 88.8733 49.9661 89.62 49.9661 90.5C49.9661 91.3933 50.1261 92.1467 50.4461 92.76C50.7794 93.3733 51.2194 93.8333 51.7661 94.14C52.3128 94.4333 52.9128 94.58 53.5661 94.58ZM62.5191 83.26C62.1724 83.26 61.8791 83.14 61.6391 82.9C61.3991 82.66 61.2791 82.3667 61.2791 82.02C61.2791 81.6733 61.3991 81.38 61.6391 81.14C61.8791 80.9 62.1724 80.78 62.5191 80.78C62.8524 80.78 63.1324 80.9 63.3591 81.14C63.5991 81.38 63.7191 81.6733 63.7191 82.02C63.7191 82.3667 63.5991 82.66 63.3591 82.9C63.1324 83.14 62.8524 83.26 62.5191 83.26ZM63.3991 85.04V96H61.5791V85.04H63.3991ZM65.8209 90.48C65.8209 89.36 66.0476 88.38 66.5009 87.54C66.9543 86.6867 67.5743 86.0267 68.3609 85.56C69.1609 85.0933 70.0543 84.86 71.0409 84.86C71.8943 84.86 72.6876 85.06 73.4209 85.46C74.1543 85.8467 74.7143 86.36 75.1009 87V81.2H76.9409V96H75.1009V93.94C74.7409 94.5933 74.2076 95.1333 73.5009 95.56C72.7943 95.9733 71.9676 96.18 71.0209 96.18C70.0476 96.18 69.1609 95.94 68.3609 95.46C67.5743 94.98 66.9543 94.3067 66.5009 93.44C66.0476 92.5733 65.8209 91.5867 65.8209 90.48ZM75.1009 90.5C75.1009 89.6733 74.9343 88.9533 74.6009 88.34C74.2676 87.7267 73.8143 87.26 73.2409 86.94C72.6809 86.6067 72.0609 86.44 71.3809 86.44C70.7009 86.44 70.0809 86.6 69.5209 86.92C68.9609 87.24 68.5143 87.7067 68.1809 88.32C67.8476 88.9333 67.6809 89.6533 67.6809 90.48C67.6809 91.32 67.8476 92.0533 68.1809 92.68C68.5143 93.2933 68.9609 93.7667 69.5209 94.1C70.0809 94.42 70.7009 94.58 71.3809 94.58C72.0609 94.58 72.6809 94.42 73.2409 94.1C73.8143 93.7667 74.2676 93.2933 74.6009 92.68C74.9343 92.0533 75.1009 91.3267 75.1009 90.5Z" fill="url(#paint0_linear_7_50369)"/>
<path d="M22.3984 48.4501H26.3884V52.4401C26.3884 53.6495 26.8689 54.8094 27.724 55.6645C28.5792 56.5197 29.739 57.0001 30.9484 57.0001C32.1578 57.0001 33.3177 56.5197 34.1728 55.6645C35.028 54.8094 35.5084 53.6495 35.5084 52.4401V48.4501H43.4884V52.4401C43.4884 53.6495 43.9689 54.8094 44.824 55.6645C45.6792 56.5197 46.839 57.0001 48.0484 57.0001C49.2578 57.0001 50.4177 56.5197 51.2728 55.6645C52.128 54.8094 52.6084 53.6495 52.6084 52.4401V48.4501H56.5984V23.3701H22.3984V48.4501Z" fill="url(#paint1_linear_7_50369)"/>
<path d="M57.3023 0.30781C56.9567 0.1051 56.563 -0.00119347 56.1623 1.01088e-05C55.7625 0.000420215 55.3698 0.105965 55.0236 0.306056C54.6775 0.506148 54.39 0.793749 54.1901 1.14001L50.7701 7.08511C47.6533 4.35916 43.6533 2.85673 39.5126 2.85673C35.3719 2.85673 31.3719 4.35916 28.2551 7.08511L24.8123 1.14001C24.6124 0.793749 24.3249 0.506148 23.9788 0.306056C23.6326 0.105965 23.2399 0.000420215 22.8401 1.01088e-05C22.4394 -0.00119347 22.0457 0.1051 21.7001 0.30781C21.1765 0.609586 20.7941 1.10691 20.637 1.69048C20.4799 2.27405 20.5609 2.89613 20.8622 3.42001L25.0973 10.7502C23.3313 13.4931 22.395 16.6877 22.4012 19.95H56.6012C56.6074 16.6877 55.6712 13.4931 53.9051 10.7502L58.1402 3.42001C58.4415 2.89613 58.5225 2.27405 58.3654 1.69048C58.2083 1.10691 57.8259 0.609586 57.3023 0.30781ZM32.9462 15.39C32.608 15.39 32.2774 15.2897 31.9962 15.1018C31.715 14.9139 31.4958 14.6469 31.3664 14.3344C31.2369 14.0219 31.2031 13.6781 31.2691 13.3464C31.335 13.0147 31.4979 12.71 31.7371 12.4709C31.9762 12.2317 32.2809 12.0688 32.6126 12.0029C32.9443 11.9369 33.2881 11.9707 33.6006 12.1002C33.9131 12.2296 34.1801 12.4488 34.368 12.73C34.5559 13.0112 34.6562 13.3418 34.6562 13.68C34.6562 14.1335 34.476 14.5685 34.1554 14.8892C33.8347 15.2098 33.3997 15.39 32.9462 15.39ZM46.0562 15.39C45.718 15.39 45.3874 15.2897 45.1062 15.1018C44.825 14.9139 44.6058 14.6469 44.4764 14.3344C44.3469 14.0219 44.3131 13.6781 44.3791 13.3464C44.445 13.0147 44.6079 12.71 44.8471 12.4709C45.0862 12.2317 45.3909 12.0688 45.7226 12.0029C46.0543 11.9369 46.3981 11.9707 46.7106 12.1002C47.0231 12.2296 47.2901 12.4488 47.478 12.73C47.6659 13.0112 47.7662 13.3418 47.7662 13.68C47.7662 14.1335 47.586 14.5685 47.2654 14.8892C46.9447 15.2098 46.5097 15.39 46.0562 15.39Z" fill="url(#paint2_linear_7_50369)"/>
<path d="M64.5802 23.3701C63.6731 23.3701 62.8032 23.7304 62.1619 24.3718C61.5205 25.0132 61.1602 25.8831 61.1602 26.7901V38.1901C61.1602 39.0972 61.5205 39.967 62.1619 40.6084C62.8032 41.2498 63.6731 41.6101 64.5802 41.6101C65.4872 41.6101 66.3571 41.2498 66.9985 40.6084C67.6398 39.967 68.0002 39.0972 68.0002 38.1901V26.7901C68.0002 25.8831 67.6398 25.0132 66.9985 24.3718C66.3571 23.7304 65.4872 23.3701 64.5802 23.3701Z" fill="url(#paint3_linear_7_50369)"/>
<path d="M14.42 23.3701C13.513 23.3701 12.6431 23.7304 12.0017 24.3718C11.3603 25.0132 11 25.8831 11 26.7901V38.1901C11 39.0972 11.3603 39.967 12.0017 40.6084C12.6431 41.2498 13.513 41.6101 14.42 41.6101C15.327 41.6101 16.1969 41.2498 16.8383 40.6084C17.4797 39.967 17.84 39.0972 17.84 38.1901V26.7901C17.84 25.8831 17.4797 25.0132 16.8383 24.3718C16.1969 23.7304 15.327 23.3701 14.42 23.3701Z" fill="url(#paint4_linear_7_50369)"/>
<defs>
<linearGradient id="paint0_linear_7_50369" x1="0" y1="89" x2="76.7466" y2="89" gradientUnits="userSpaceOnUse">
<stop stop-color="#BD24DF"/>
<stop offset="1" stop-color="#2D6ADE"/>
</linearGradient>
<linearGradient id="paint1_linear_7_50369" x1="22.3984" y1="40.1851" x2="55.6229" y2="40.1851" gradientUnits="userSpaceOnUse">
<stop stop-color="#BD24DF"/>
<stop offset="1" stop-color="#2D6ADE"/>
</linearGradient>
<linearGradient id="paint2_linear_7_50369" x1="20.5586" y1="9.975" x2="57.3632" y2="9.975" gradientUnits="userSpaceOnUse">
<stop stop-color="#BD24DF"/>
<stop offset="1" stop-color="#2D6ADE"/>
</linearGradient>
<linearGradient id="paint3_linear_7_50369" x1="61.1602" y1="32.4901" x2="67.8051" y2="32.4901" gradientUnits="userSpaceOnUse">
<stop stop-color="#BD24DF"/>
<stop offset="1" stop-color="#2D6ADE"/>
</linearGradient>
<linearGradient id="paint4_linear_7_50369" x1="11" y1="32.4901" x2="17.6449" y2="32.4901" gradientUnits="userSpaceOnUse">
<stop stop-color="#BD24DF"/>
<stop offset="1" stop-color="#2D6ADE"/>
</linearGradient>
</defs>
</svg>
