<svg width="98" height="105" viewBox="0 0 98 105" fill="none" xmlns="http://www.w3.org/2000/svg">
<path d="M9.78 92.9H3.7L2.58 96H0.66L5.7 82.14H7.8L12.82 96H10.9L9.78 92.9ZM9.26 91.42L6.74 84.38L4.22 91.42H9.26ZM16.8366 87.06C17.1966 86.4333 17.7299 85.9133 18.4366 85.5C19.1566 85.0733 19.9899 84.86 20.9366 84.86C21.9099 84.86 22.7899 85.0933 23.5766 85.56C24.3766 86.0267 25.0032 86.6867 25.4566 87.54C25.9099 88.38 26.1366 89.36 26.1366 90.48C26.1366 91.5867 25.9099 92.5733 25.4566 93.44C25.0032 94.3067 24.3766 94.98 23.5766 95.46C22.7899 95.94 21.9099 96.18 20.9366 96.18C20.0032 96.18 19.1766 95.9733 18.4566 95.56C17.7499 95.1333 17.2099 94.6067 16.8366 93.98V101.2H15.0166V85.04H16.8366V87.06ZM24.2766 90.48C24.2766 89.6533 24.1099 88.9333 23.7766 88.32C23.4432 87.7067 22.9899 87.24 22.4166 86.92C21.8566 86.6 21.2366 86.44 20.5566 86.44C19.8899 86.44 19.2699 86.6067 18.6966 86.94C18.1366 87.26 17.6832 87.7333 17.3366 88.36C17.0032 88.9733 16.8366 89.6867 16.8366 90.5C16.8366 91.3267 17.0032 92.0533 17.3366 92.68C17.6832 93.2933 18.1366 93.7667 18.6966 94.1C19.2699 94.42 19.8899 94.58 20.5566 94.58C21.2366 94.58 21.8566 94.42 22.4166 94.1C22.9899 93.7667 23.4432 93.2933 23.7766 92.68C24.1099 92.0533 24.2766 91.32 24.2766 90.48ZM30.3522 87.06C30.7122 86.4333 31.2455 85.9133 31.9522 85.5C32.6722 85.0733 33.5055 84.86 34.4522 84.86C35.4255 84.86 36.3055 85.0933 37.0922 85.56C37.8922 86.0267 38.5189 86.6867 38.9722 87.54C39.4255 88.38 39.6522 89.36 39.6522 90.48C39.6522 91.5867 39.4255 92.5733 38.9722 93.44C38.5189 94.3067 37.8922 94.98 37.0922 95.46C36.3055 95.94 35.4255 96.18 34.4522 96.18C33.5189 96.18 32.6922 95.9733 31.9722 95.56C31.2655 95.1333 30.7255 94.6067 30.3522 93.98V101.2H28.5322V85.04H30.3522V87.06ZM37.7922 90.48C37.7922 89.6533 37.6255 88.9333 37.2922 88.32C36.9589 87.7067 36.5055 87.24 35.9322 86.92C35.3722 86.6 34.7522 86.44 34.0722 86.44C33.4055 86.44 32.7855 86.6067 32.2122 86.94C31.6522 87.26 31.1989 87.7333 30.8522 88.36C30.5189 88.9733 30.3522 89.6867 30.3522 90.5C30.3522 91.3267 30.5189 92.0533 30.8522 92.68C31.1989 93.2933 31.6522 93.7667 32.2122 94.1C32.7855 94.42 33.4055 94.58 34.0722 94.58C34.7522 94.58 35.3722 94.42 35.9322 94.1C36.5055 93.7667 36.9589 93.2933 37.2922 92.68C37.6255 92.0533 37.7922 91.32 37.7922 90.48ZM51.7998 96.14C50.8798 96.14 50.0532 95.98 49.3198 95.66C48.5998 95.3267 48.0332 94.8733 47.6198 94.3C47.2065 93.7133 46.9932 93.04 46.9798 92.28H48.9198C48.9865 92.9333 49.2532 93.4867 49.7198 93.94C50.1998 94.38 50.8932 94.6 51.7998 94.6C52.6665 94.6 53.3465 94.3867 53.8398 93.96C54.3465 93.52 54.5998 92.96 54.5998 92.28C54.5998 91.7467 54.4532 91.3133 54.1598 90.98C53.8665 90.6467 53.4998 90.3933 53.0598 90.22C52.6198 90.0467 52.0265 89.86 51.2798 89.66C50.3598 89.42 49.6198 89.18 49.0598 88.94C48.5132 88.7 48.0398 88.3267 47.6398 87.82C47.2532 87.3 47.0598 86.6067 47.0598 85.74C47.0598 84.98 47.2532 84.3067 47.6398 83.72C48.0265 83.1333 48.5665 82.68 49.2598 82.36C49.9665 82.04 50.7732 81.88 51.6798 81.88C52.9865 81.88 54.0532 82.2067 54.8798 82.86C55.7198 83.5133 56.1932 84.38 56.2998 85.46H54.2998C54.2332 84.9267 53.9532 84.46 53.4598 84.06C52.9665 83.6467 52.3132 83.44 51.4998 83.44C50.7398 83.44 50.1198 83.64 49.6398 84.04C49.1598 84.4267 48.9198 84.9733 48.9198 85.68C48.9198 86.1867 49.0598 86.6 49.3398 86.92C49.6332 87.24 49.9865 87.4867 50.3998 87.66C50.8265 87.82 51.4198 88.0067 52.1798 88.22C53.0998 88.4733 53.8398 88.7267 54.3998 88.98C54.9598 89.22 55.4398 89.6 55.8398 90.12C56.2398 90.6267 56.4398 91.32 56.4398 92.2C56.4398 92.88 56.2598 93.52 55.8998 94.12C55.5398 94.72 55.0065 95.2067 54.2998 95.58C53.5932 95.9533 52.7598 96.14 51.7998 96.14ZM61.3381 86.54V93C61.3381 93.5333 61.4515 93.9133 61.6781 94.14C61.9048 94.3533 62.2981 94.46 62.8581 94.46H64.1981V96H62.5581C61.5448 96 60.7848 95.7667 60.2781 95.3C59.7715 94.8333 59.5181 94.0667 59.5181 93V86.54H58.0981V85.04H59.5181V82.28H61.3381V85.04H64.1981V86.54H61.3381ZM71.1833 96.18C70.1566 96.18 69.2233 95.9467 68.3833 95.48C67.5566 95.0133 66.9033 94.3533 66.4233 93.5C65.9566 92.6333 65.7233 91.6333 65.7233 90.5C65.7233 89.38 65.9633 88.3933 66.4433 87.54C66.9366 86.6733 67.6033 86.0133 68.4433 85.56C69.2833 85.0933 70.2233 84.86 71.2633 84.86C72.3033 84.86 73.2433 85.0933 74.0833 85.56C74.9233 86.0133 75.5833 86.6667 76.0633 87.52C76.5566 88.3733 76.8033 89.3667 76.8033 90.5C76.8033 91.6333 76.5499 92.6333 76.0433 93.5C75.5499 94.3533 74.8766 95.0133 74.0233 95.48C73.1699 95.9467 72.2233 96.18 71.1833 96.18ZM71.1833 94.58C71.8366 94.58 72.4499 94.4267 73.0233 94.12C73.5966 93.8133 74.0566 93.3533 74.4033 92.74C74.7633 92.1267 74.9433 91.38 74.9433 90.5C74.9433 89.62 74.7699 88.8733 74.4233 88.26C74.0766 87.6467 73.6233 87.1933 73.0633 86.9C72.5033 86.5933 71.8966 86.44 71.2433 86.44C70.5766 86.44 69.9633 86.5933 69.4033 86.9C68.8566 87.1933 68.4166 87.6467 68.0833 88.26C67.7499 88.8733 67.5833 89.62 67.5833 90.5C67.5833 91.3933 67.7433 92.1467 68.0633 92.76C68.3966 93.3733 68.8366 93.8333 69.3833 94.14C69.9299 94.4333 70.5299 94.58 71.1833 94.58ZM81.0163 86.82C81.3363 86.1933 81.7896 85.7067 82.3763 85.36C82.9763 85.0133 83.7029 84.84 84.5563 84.84V86.72H84.0763C82.0363 86.72 81.0163 87.8267 81.0163 90.04V96H79.1963V85.04H81.0163V86.82ZM96.6572 90.1C96.6572 90.4467 96.6372 90.8133 96.5972 91.2H87.8372C87.9039 92.28 88.2705 93.1267 88.9372 93.74C89.6172 94.34 90.4372 94.64 91.3972 94.64C92.1839 94.64 92.8372 94.46 93.3572 94.1C93.8905 93.7267 94.2639 93.2333 94.4772 92.62H96.4372C96.1439 93.6733 95.5572 94.5333 94.6772 95.2C93.7972 95.8533 92.7039 96.18 91.3972 96.18C90.3572 96.18 89.4239 95.9467 88.5972 95.48C87.7839 95.0133 87.1439 94.3533 86.6772 93.5C86.2105 92.6333 85.9772 91.6333 85.9772 90.5C85.9772 89.3667 86.2039 88.3733 86.6572 87.52C87.1105 86.6667 87.7439 86.0133 88.5572 85.56C89.3839 85.0933 90.3305 84.86 91.3972 84.86C92.4372 84.86 93.3572 85.0867 94.1572 85.54C94.9572 85.9933 95.5705 86.62 95.9972 87.42C96.4372 88.2067 96.6572 89.1 96.6572 90.1ZM94.7772 89.72C94.7772 89.0267 94.6239 88.4333 94.3172 87.94C94.0105 87.4333 93.5905 87.0533 93.0572 86.8C92.5372 86.5333 91.9572 86.4 91.3172 86.4C90.3972 86.4 89.6105 86.6933 88.9572 87.28C88.3172 87.8667 87.9505 88.68 87.8572 89.72H94.7772Z" fill="url(#paint0_linear_7_50364)"/>
<path d="M61.2777 13.3407C56.148 13.3407 53.9801 15.7885 50.4077 15.7885C46.7449 15.7885 43.9511 13.3585 39.5059 13.3585C35.1549 13.3585 30.515 16.0149 27.5685 20.5403C23.4312 26.9218 24.1335 38.9406 30.8343 49.1796C33.2312 52.8449 36.4322 56.9555 40.6306 57H40.7069C44.3557 57 45.4396 54.6108 50.4611 54.5828H50.5375C55.4839 54.5828 56.4763 56.986 60.1098 56.986H60.1861C64.3845 56.9415 67.7572 52.3869 70.1541 48.7356C71.8792 46.1097 72.5204 44.7917 73.8436 41.821C64.1504 38.1417 62.5932 24.4002 72.1795 19.1319C69.2533 15.4679 65.1415 13.3458 61.265 13.3458L61.2777 13.3407Z" fill="url(#paint1_linear_7_50364)"/>
<path d="M60.149 0C57.0957 0.207375 53.5334 2.15135 51.4469 4.68946C49.5539 6.98967 47.9966 10.4018 48.6073 13.7109H48.8516C52.1034 13.7109 55.4316 11.7529 57.3756 9.24407C59.2483 6.85608 60.6681 3.47193 60.149 0Z" fill="url(#paint2_linear_7_50364)"/>
<defs>
<linearGradient id="paint0_linear_7_50364" x1="0" y1="89" x2="95.2047" y2="89" gradientUnits="userSpaceOnUse">
<stop stop-color="#BD24DF"/>
<stop offset="1" stop-color="#2D6ADE"/>
</linearGradient>
<linearGradient id="paint1_linear_7_50364" x1="25" y1="35.1704" x2="72.4504" y2="35.1704" gradientUnits="userSpaceOnUse">
<stop stop-color="#BD24DF"/>
<stop offset="1" stop-color="#2D6ADE"/>
</linearGradient>
<linearGradient id="paint2_linear_7_50364" x1="48.4727" y1="6.85545" x2="59.921" y2="6.85545" gradientUnits="userSpaceOnUse">
<stop stop-color="#BD24DF"/>
<stop offset="1" stop-color="#2D6ADE"/>
</linearGradient>
</defs>
</svg>
