<svg width="72" height="105" viewBox="0 0 72 105" fill="none" xmlns="http://www.w3.org/2000/svg">
<path d="M62.9631 0H9.14355C6.85625 0 5 1.8679 5 4.17073V42.3986C5 44.7053 6.85625 46.5693 9.14355 46.5693H29.7875C29.7875 46.5693 26.1604 54.9146 16.2229 54.9146V57H23.5236H41.2628H54.8274V54.9146C44.6103 54.9146 42.2997 46.5693 42.2997 46.5693H62.9592C65.2426 46.5693 67.095 44.7053 67.095 42.3986V4.17073C67.1027 1.8679 65.2465 0 62.9631 0ZM36.0514 45.7111C34.766 45.7111 33.7252 44.6703 33.7252 43.3849C33.7252 42.1034 34.766 41.0627 36.0514 41.0627C37.3329 41.0627 38.3775 42.1034 38.3775 43.3849C38.3736 44.6703 37.3329 45.7111 36.0514 45.7111ZM62.6641 39.8045H9.43868V4.4348H62.6679L62.6641 39.8045Z" fill="url(#paint0_linear_7_50376)"/>
<path d="M31.5005 32.9191C33.0266 32.857 33.6052 31.9289 35.4498 31.9289C37.2983 31.9289 37.8148 32.9191 39.4264 32.8881C41.0691 32.857 42.1098 31.393 43.1117 29.929C44.2767 28.228 44.7544 26.5815 44.7854 26.4999C44.7466 26.4805 41.5855 25.2689 41.5506 21.6263C41.5195 18.574 44.0437 17.11 44.1525 17.0362C42.7389 14.9664 40.5293 14.6829 39.7448 14.6518C37.8731 14.4615 36.0867 15.7547 35.1314 15.7547C34.1839 15.7547 32.7121 14.679 31.1587 14.7062C29.1122 14.7372 27.2288 15.8984 26.1725 17.7274C24.0483 21.4166 25.6288 26.8766 27.6986 29.8707C28.7083 31.3347 29.916 32.9774 31.5005 32.9191Z" fill="url(#paint1_linear_7_50376)"/>
<path d="M39.7709 8.823C38.5593 8.87348 37.0953 9.63074 36.2215 10.6482C35.4448 11.553 34.7614 12.9937 34.9439 14.3762C36.2992 14.4811 37.6778 13.6889 38.5205 12.6714C39.3593 11.6501 39.9262 10.2365 39.7709 8.823Z" fill="url(#paint2_linear_7_50376)"/>
<path d="M15.68 82.16V96H13.86V85.68L9.26 96H7.98L3.36 85.66V96H1.54V82.16H3.5L8.62 93.6L13.74 82.16H15.68ZM18.0866 90.48C18.0866 89.36 18.3132 88.38 18.7666 87.54C19.2199 86.6867 19.8399 86.0267 20.6266 85.56C21.4266 85.0933 22.3132 84.86 23.2866 84.86C24.2466 84.86 25.0799 85.0667 25.7866 85.48C26.4932 85.8933 27.0199 86.4133 27.3666 87.04V85.04H29.2066V96H27.3666V93.96C27.0066 94.6 26.4666 95.1333 25.7466 95.56C25.0399 95.9733 24.2132 96.18 23.2666 96.18C22.2932 96.18 21.4132 95.94 20.6266 95.46C19.8399 94.98 19.2199 94.3067 18.7666 93.44C18.3132 92.5733 18.0866 91.5867 18.0866 90.48ZM27.3666 90.5C27.3666 89.6733 27.1999 88.9533 26.8666 88.34C26.5332 87.7267 26.0799 87.26 25.5066 86.94C24.9466 86.6067 24.3266 86.44 23.6466 86.44C22.9666 86.44 22.3466 86.6 21.7866 86.92C21.2266 87.24 20.7799 87.7067 20.4466 88.32C20.1132 88.9333 19.9466 89.6533 19.9466 90.48C19.9466 91.32 20.1132 92.0533 20.4466 92.68C20.7799 93.2933 21.2266 93.7667 21.7866 94.1C22.3466 94.42 22.9666 94.58 23.6466 94.58C24.3266 94.58 24.9466 94.42 25.5066 94.1C26.0799 93.7667 26.5332 93.2933 26.8666 92.68C27.1999 92.0533 27.3666 91.3267 27.3666 90.5ZM31.6022 90.5C31.6022 89.3667 31.8289 88.38 32.2822 87.54C32.7355 86.6867 33.3622 86.0267 34.1622 85.56C34.9755 85.0933 35.9022 84.86 36.9422 84.86C38.2889 84.86 39.3955 85.1867 40.2622 85.84C41.1422 86.4933 41.7222 87.4 42.0022 88.56H40.0422C39.8555 87.8933 39.4889 87.3667 38.9422 86.98C38.4089 86.5933 37.7422 86.4 36.9422 86.4C35.9022 86.4 35.0622 86.76 34.4222 87.48C33.7822 88.1867 33.4622 89.1933 33.4622 90.5C33.4622 91.82 33.7822 92.84 34.4222 93.56C35.0622 94.28 35.9022 94.64 36.9422 94.64C37.7422 94.64 38.4089 94.4533 38.9422 94.08C39.4755 93.7067 39.8422 93.1733 40.0422 92.48H42.0022C41.7089 93.6 41.1222 94.5 40.2422 95.18C39.3622 95.8467 38.2622 96.18 36.9422 96.18C35.9022 96.18 34.9755 95.9467 34.1622 95.48C33.3622 95.0133 32.7355 94.3533 32.2822 93.5C31.8289 92.6467 31.6022 91.6467 31.6022 90.5ZM54.5427 96.18C53.516 96.18 52.5827 95.9467 51.7427 95.48C50.916 95.0133 50.2627 94.3533 49.7827 93.5C49.316 92.6333 49.0827 91.6333 49.0827 90.5C49.0827 89.38 49.3227 88.3933 49.8027 87.54C50.296 86.6733 50.9627 86.0133 51.8027 85.56C52.6427 85.0933 53.5827 84.86 54.6227 84.86C55.6627 84.86 56.6027 85.0933 57.4427 85.56C58.2827 86.0133 58.9427 86.6667 59.4227 87.52C59.916 88.3733 60.1627 89.3667 60.1627 90.5C60.1627 91.6333 59.9093 92.6333 59.4027 93.5C58.9093 94.3533 58.236 95.0133 57.3827 95.48C56.5293 95.9467 55.5827 96.18 54.5427 96.18ZM54.5427 94.58C55.196 94.58 55.8093 94.4267 56.3827 94.12C56.956 93.8133 57.416 93.3533 57.7627 92.74C58.1227 92.1267 58.3027 91.38 58.3027 90.5C58.3027 89.62 58.1293 88.8733 57.7827 88.26C57.436 87.6467 56.9827 87.1933 56.4227 86.9C55.8627 86.5933 55.256 86.44 54.6027 86.44C53.936 86.44 53.3227 86.5933 52.7627 86.9C52.216 87.1933 51.776 87.6467 51.4427 88.26C51.1093 88.8733 50.9427 89.62 50.9427 90.5C50.9427 91.3933 51.1027 92.1467 51.4227 92.76C51.756 93.3733 52.196 93.8333 52.7427 94.14C53.2893 94.4333 53.8893 94.58 54.5427 94.58ZM66.4356 96.18C65.5956 96.18 64.8423 96.04 64.1756 95.76C63.509 95.4667 62.9823 95.0667 62.5956 94.56C62.209 94.04 61.9956 93.4467 61.9556 92.78H63.8356C63.889 93.3267 64.1423 93.7733 64.5956 94.12C65.0623 94.4667 65.669 94.64 66.4156 94.64C67.109 94.64 67.6556 94.4867 68.0556 94.18C68.4556 93.8733 68.6556 93.4867 68.6556 93.02C68.6556 92.54 68.4423 92.1867 68.0156 91.96C67.589 91.72 66.929 91.4867 66.0356 91.26C65.2223 91.0467 64.5556 90.8333 64.0356 90.62C63.529 90.3933 63.089 90.0667 62.7156 89.64C62.3556 89.2 62.1756 88.6267 62.1756 87.92C62.1756 87.36 62.3423 86.8467 62.6756 86.38C63.009 85.9133 63.4823 85.5467 64.0956 85.28C64.709 85 65.409 84.86 66.1956 84.86C67.409 84.86 68.389 85.1667 69.1356 85.78C69.8823 86.3933 70.2823 87.2333 70.3356 88.3H68.5156C68.4756 87.7267 68.2423 87.2667 67.8156 86.92C67.4023 86.5733 66.8423 86.4 66.1356 86.4C65.4823 86.4 64.9623 86.54 64.5756 86.82C64.189 87.1 63.9956 87.4667 63.9956 87.92C63.9956 88.28 64.109 88.58 64.3356 88.82C64.5756 89.0467 64.869 89.2333 65.2156 89.38C65.5756 89.5133 66.069 89.6667 66.6956 89.84C67.4823 90.0533 68.1223 90.2667 68.6156 90.48C69.109 90.68 69.529 90.9867 69.8756 91.4C70.2356 91.8133 70.4223 92.3533 70.4356 93.02C70.4356 93.62 70.269 94.16 69.9356 94.64C69.6023 95.12 69.129 95.5 68.5156 95.78C67.9156 96.0467 67.2223 96.18 66.4356 96.18Z" fill="url(#paint3_linear_7_50376)"/>
<defs>
<linearGradient id="paint0_linear_7_50376" x1="5" y1="28.5" x2="65.3238" y2="28.5" gradientUnits="userSpaceOnUse">
<stop stop-color="#BD24DF"/>
<stop offset="1" stop-color="#2D6ADE"/>
</linearGradient>
<linearGradient id="paint1_linear_7_50376" x1="25.1641" y1="23.7767" x2="44.2258" y2="23.7767" gradientUnits="userSpaceOnUse">
<stop stop-color="#BD24DF"/>
<stop offset="1" stop-color="#2D6ADE"/>
</linearGradient>
<linearGradient id="paint2_linear_7_50376" x1="34.9141" y1="11.6043" x2="39.6573" y2="11.6043" gradientUnits="userSpaceOnUse">
<stop stop-color="#BD24DF"/>
<stop offset="1" stop-color="#2D6ADE"/>
</linearGradient>
<linearGradient id="paint3_linear_7_50376" x1="0" y1="89" x2="69.9463" y2="89" gradientUnits="userSpaceOnUse">
<stop stop-color="#BD24DF"/>
<stop offset="1" stop-color="#2D6ADE"/>
</linearGradient>
</defs>
</svg>
