<svg width="91" height="105" viewBox="0 0 91 105" fill="none" xmlns="http://www.w3.org/2000/svg">
<path d="M17 49.1561L40.3619 52.3759V30.076H17V49.1561Z" fill="url(#paint0_linear_7_50383)"/>
<path d="M17 27.1984H40.3619V4.62451L17 7.84428V27.1984Z" fill="url(#paint1_linear_7_50383)"/>
<path d="M42.9297 52.7188L73.9987 57.0001V30.0762V30.0758H42.9297V52.7188Z" fill="url(#paint2_linear_7_50383)"/>
<path d="M42.9297 4.28182V27.1983H73.9983V0L42.9297 4.28182Z" fill="url(#paint3_linear_7_50383)"/>
<path d="M19.06 82.06L15.02 96H12.98L9.74 84.78L6.38 96L4.36 96.02L0.46 82.06H2.4L5.44 93.88L8.8 82.06H10.84L14.04 93.84L17.1 82.06H19.06ZM21.9917 83.26C21.6451 83.26 21.3517 83.14 21.1117 82.9C20.8717 82.66 20.7517 82.3667 20.7517 82.02C20.7517 81.6733 20.8717 81.38 21.1117 81.14C21.3517 80.9 21.6451 80.78 21.9917 80.78C22.3251 80.78 22.6051 80.9 22.8317 81.14C23.0717 81.38 23.1917 81.6733 23.1917 82.02C23.1917 82.3667 23.0717 82.66 22.8317 82.9C22.6051 83.14 22.3251 83.26 21.9917 83.26ZM22.8717 85.04V96H21.0517V85.04H22.8717ZM31.3136 84.84C32.6469 84.84 33.7269 85.2467 34.5536 86.06C35.3803 86.86 35.7936 88.02 35.7936 89.54V96H33.9936V89.8C33.9936 88.7067 33.7203 87.8733 33.1736 87.3C32.6269 86.7133 31.8803 86.42 30.9336 86.42C29.9736 86.42 29.2069 86.72 28.6336 87.32C28.0736 87.92 27.7936 88.7933 27.7936 89.94V96H25.9736V85.04H27.7936V86.6C28.1536 86.04 28.6403 85.6067 29.2536 85.3C29.8803 84.9933 30.5669 84.84 31.3136 84.84ZM38.0866 90.48C38.0866 89.36 38.3132 88.38 38.7666 87.54C39.2199 86.6867 39.8399 86.0267 40.6266 85.56C41.4266 85.0933 42.3199 84.86 43.3066 84.86C44.1599 84.86 44.9532 85.06 45.6866 85.46C46.4199 85.8467 46.9799 86.36 47.3666 87V81.2H49.2066V96H47.3666V93.94C47.0066 94.5933 46.4732 95.1333 45.7666 95.56C45.0599 95.9733 44.2332 96.18 43.2866 96.18C42.3132 96.18 41.4266 95.94 40.6266 95.46C39.8399 94.98 39.2199 94.3067 38.7666 93.44C38.3132 92.5733 38.0866 91.5867 38.0866 90.48ZM47.3666 90.5C47.3666 89.6733 47.1999 88.9533 46.8666 88.34C46.5332 87.7267 46.0799 87.26 45.5066 86.94C44.9466 86.6067 44.3266 86.44 43.6466 86.44C42.9666 86.44 42.3466 86.6 41.7866 86.92C41.2266 87.24 40.7799 87.7067 40.4466 88.32C40.1132 88.9333 39.9466 89.6533 39.9466 90.48C39.9466 91.32 40.1132 92.0533 40.4466 92.68C40.7799 93.2933 41.2266 93.7667 41.7866 94.1C42.3466 94.42 42.9666 94.58 43.6466 94.58C44.3266 94.58 44.9466 94.42 45.5066 94.1C46.0799 93.7667 46.5332 93.2933 46.8666 92.68C47.1999 92.0533 47.3666 91.3267 47.3666 90.5ZM57.0622 96.18C56.0355 96.18 55.1022 95.9467 54.2622 95.48C53.4355 95.0133 52.7822 94.3533 52.3022 93.5C51.8355 92.6333 51.6022 91.6333 51.6022 90.5C51.6022 89.38 51.8422 88.3933 52.3222 87.54C52.8155 86.6733 53.4822 86.0133 54.3222 85.56C55.1622 85.0933 56.1022 84.86 57.1422 84.86C58.1822 84.86 59.1222 85.0933 59.9622 85.56C60.8022 86.0133 61.4622 86.6667 61.9422 87.52C62.4355 88.3733 62.6822 89.3667 62.6822 90.5C62.6822 91.6333 62.4289 92.6333 61.9222 93.5C61.4289 94.3533 60.7555 95.0133 59.9022 95.48C59.0489 95.9467 58.1022 96.18 57.0622 96.18ZM57.0622 94.58C57.7155 94.58 58.3289 94.4267 58.9022 94.12C59.4755 93.8133 59.9355 93.3533 60.2822 92.74C60.6422 92.1267 60.8222 91.38 60.8222 90.5C60.8222 89.62 60.6489 88.8733 60.3022 88.26C59.9555 87.6467 59.5022 87.1933 58.9422 86.9C58.3822 86.5933 57.7755 86.44 57.1222 86.44C56.4555 86.44 55.8422 86.5933 55.2822 86.9C54.7355 87.1933 54.2955 87.6467 53.9622 88.26C53.6289 88.8733 53.4622 89.62 53.4622 90.5C53.4622 91.3933 53.6222 92.1467 53.9422 92.76C54.2755 93.3733 54.7155 93.8333 55.2622 94.14C55.8089 94.4333 56.4089 94.58 57.0622 94.58ZM79.6752 85.04L76.2552 96H74.3752L71.7352 87.3L69.0952 96H67.2152L63.7752 85.04H65.6352L68.1552 94.24L70.8752 85.04H72.7352L75.3952 94.26L77.8752 85.04H79.6752ZM85.3614 96.18C84.5214 96.18 83.7681 96.04 83.1014 95.76C82.4347 95.4667 81.9081 95.0667 81.5214 94.56C81.1347 94.04 80.9214 93.4467 80.8814 92.78H82.7614C82.8147 93.3267 83.0681 93.7733 83.5214 94.12C83.9881 94.4667 84.5947 94.64 85.3414 94.64C86.0347 94.64 86.5814 94.4867 86.9814 94.18C87.3814 93.8733 87.5814 93.4867 87.5814 93.02C87.5814 92.54 87.3681 92.1867 86.9414 91.96C86.5147 91.72 85.8547 91.4867 84.9614 91.26C84.1481 91.0467 83.4814 90.8333 82.9614 90.62C82.4547 90.3933 82.0147 90.0667 81.6414 89.64C81.2814 89.2 81.1014 88.6267 81.1014 87.92C81.1014 87.36 81.2681 86.8467 81.6014 86.38C81.9347 85.9133 82.4081 85.5467 83.0214 85.28C83.6347 85 84.3347 84.86 85.1214 84.86C86.3347 84.86 87.3147 85.1667 88.0614 85.78C88.8081 86.3933 89.2081 87.2333 89.2614 88.3H87.4414C87.4014 87.7267 87.1681 87.2667 86.7414 86.92C86.3281 86.5733 85.7681 86.4 85.0614 86.4C84.4081 86.4 83.8881 86.54 83.5014 86.82C83.1147 87.1 82.9214 87.4667 82.9214 87.92C82.9214 88.28 83.0347 88.58 83.2614 88.82C83.5014 89.0467 83.7947 89.2333 84.1414 89.38C84.5014 89.5133 84.9947 89.6667 85.6214 89.84C86.4081 90.0533 87.0481 90.2667 87.5414 90.48C88.0347 90.68 88.4547 90.9867 88.8014 91.4C89.1614 91.8133 89.3481 92.3533 89.3614 93.02C89.3614 93.62 89.1947 94.16 88.8614 94.64C88.5281 95.12 88.0547 95.5 87.4414 95.78C86.8414 96.0467 86.1481 96.18 85.3614 96.18Z" fill="url(#paint4_linear_7_50383)"/>
<defs>
<linearGradient id="paint0_linear_7_50383" x1="17" y1="41.226" x2="39.6955" y2="41.226" gradientUnits="userSpaceOnUse">
<stop stop-color="#BD24DF"/>
<stop offset="1" stop-color="#2D6ADE"/>
</linearGradient>
<linearGradient id="paint1_linear_7_50383" x1="17" y1="15.9114" x2="39.6955" y2="15.9114" gradientUnits="userSpaceOnUse">
<stop stop-color="#BD24DF"/>
<stop offset="1" stop-color="#2D6ADE"/>
</linearGradient>
<linearGradient id="paint2_linear_7_50383" x1="42.9297" y1="43.538" x2="73.1125" y2="43.538" gradientUnits="userSpaceOnUse">
<stop stop-color="#BD24DF"/>
<stop offset="1" stop-color="#2D6ADE"/>
</linearGradient>
<linearGradient id="paint3_linear_7_50383" x1="42.9297" y1="13.5992" x2="73.1121" y2="13.5992" gradientUnits="userSpaceOnUse">
<stop stop-color="#BD24DF"/>
<stop offset="1" stop-color="#2D6ADE"/>
</linearGradient>
<linearGradient id="paint4_linear_7_50383" x1="0" y1="89" x2="88.4044" y2="89" gradientUnits="userSpaceOnUse">
<stop stop-color="#BD24DF"/>
<stop offset="1" stop-color="#2D6ADE"/>
</linearGradient>
</defs>
</svg>
