<svg width="203" height="101" viewBox="0 0 203 101" fill="none" xmlns="http://www.w3.org/2000/svg">
<g clip-path="url(#clip0_7_49651)">
<path d="M48.5001 41.6251C48.5001 41.9959 48.3901 42.3584 48.1841 42.6668C47.978 42.9751 47.6852 43.2154 47.3426 43.3574C47 43.4993 46.623 43.5364 46.2593 43.4641C45.8956 43.3917 45.5615 43.2131 45.2992 42.9509C45.037 42.6887 44.8584 42.3546 44.7861 41.9909C44.7137 41.6272 44.7509 41.2502 44.8928 40.9076C45.0347 40.5649 45.275 40.2721 45.5834 40.0661C45.8917 39.86 46.2542 39.7501 46.6251 39.7501C47.1223 39.7501 47.5993 39.9476 47.9509 40.2993C48.3025 40.6509 48.5001 41.1278 48.5001 41.6251ZM40.5502 51.2898C40.4241 51.1847 40.2786 51.1054 40.1218 51.0566C39.9651 51.0077 39.8003 50.9903 39.6368 51.0051C39.4734 51.02 39.3144 51.0669 39.1691 51.1432C39.0237 51.2195 38.8948 51.3237 38.7898 51.4498L32.5398 58.9498C32.4347 59.0759 32.3554 59.2214 32.3066 59.3782C32.2577 59.5349 32.2402 59.6997 32.2551 59.8632C32.2699 60.0266 32.3168 60.1856 32.3931 60.331C32.4694 60.4763 32.5736 60.6052 32.6997 60.7103C32.8258 60.8154 32.9713 60.8946 33.1281 60.9435C33.2848 60.9923 33.4496 61.0098 33.6131 60.995C33.9432 60.965 34.248 60.8051 34.4602 60.5504L40.7102 53.0504C40.8153 52.9243 40.8946 52.7787 40.9435 52.622C40.9923 52.4653 41.0098 52.3004 40.995 52.1369C40.9801 51.9734 40.9332 51.8145 40.8569 51.6691C40.7806 51.5238 40.6764 51.3949 40.5502 51.2898ZM58.5001 43.5001C58.5 43.7059 58.4492 43.9085 58.3521 44.0899C58.255 44.2713 58.1146 44.426 57.9433 44.5401L54.7501 46.669V49.7501C54.7452 54.0584 53.0316 58.1888 49.9852 61.2352C46.9388 64.2816 42.8083 65.9952 38.5001 66.0001H22.2501C22.0146 66.0001 21.7839 65.9336 21.5846 65.8082C21.3852 65.6829 21.2254 65.5038 21.1234 65.2916C21.0214 65.0793 20.9814 64.8426 21.008 64.6086C21.0347 64.3747 21.1269 64.153 21.274 63.9691L36.0001 45.5616V42.8751C36.0005 40.6372 36.8014 38.4733 38.2579 36.7743C39.7144 35.0753 41.7306 33.9533 43.9421 33.6109C46.1536 33.2685 48.4147 33.7284 50.3168 34.9075C52.2189 36.0865 53.6365 37.907 54.3137 40.0399L57.9433 42.4601C58.1146 42.5742 58.255 42.7289 58.3521 42.9103C58.4492 43.0917 58.5 43.2943 58.5001 43.5001ZM54.9966 43.5001L52.5463 41.8663C52.2908 41.696 52.107 41.4377 52.0298 41.1406C51.6078 39.5225 50.6108 38.1137 49.2252 37.1777C47.8395 36.2417 46.1603 35.8427 44.5018 36.0553C42.8432 36.2679 41.319 37.0777 40.2143 38.3329C39.1096 39.5882 38.5002 41.203 38.5001 42.8751V46.0001C38.5001 46.2839 38.4035 46.5594 38.2262 46.781L24.8508 63.5001H38.5001C42.1455 63.4959 45.6405 62.046 48.2182 59.4682C50.7959 56.8905 52.2459 53.3955 52.2501 49.7501V46.0001C52.2501 45.7943 52.3009 45.5917 52.398 45.4103C52.4951 45.2289 52.6354 45.0742 52.8066 44.9601L54.9966 43.5001Z" fill="#01A7EE"/>
</g>
<path d="M68.9368 60H76.8853C81.3821 60 83.5874 57.7085 83.5874 54.6499C83.5874 51.6776 81.478 49.9325 79.3878 49.8271V49.6353C81.3054 49.1847 82.8203 47.8423 82.8203 45.4549C82.8203 42.5305 80.7109 40.3636 76.4538 40.3636H68.9368V60ZM72.494 57.0277V51.2749H76.4155C78.6112 51.2749 79.9727 52.6172 79.9727 54.3718C79.9727 55.9347 78.8988 57.0277 76.3196 57.0277H72.494ZM72.494 48.7148V43.2976H76.0895C78.1797 43.2976 79.2631 44.4002 79.2631 45.9151C79.2631 47.641 77.8633 48.7148 76.0128 48.7148H72.494ZM86.5285 60H89.9994V45.2727H86.5285V60ZM88.2735 43.1825C89.3762 43.1825 90.2774 42.3388 90.2774 41.3033C90.2774 40.2582 89.3762 39.4144 88.2735 39.4144C87.1613 39.4144 86.26 40.2582 86.26 41.3033C86.26 42.3388 87.1613 43.1825 88.2735 43.1825ZM93.5685 60H97.0394V51.342C97.0394 49.4723 98.4489 48.1491 100.357 48.1491C100.942 48.1491 101.67 48.2546 101.968 48.3505V45.1577C101.651 45.1001 101.105 45.0618 100.721 45.0618C99.0337 45.0618 97.6243 46.0206 97.0874 47.7273H96.9339V45.2727H93.5685V60ZM109.132 60.2589C111.664 60.2589 112.805 58.7536 113.351 57.6797H113.562V60H116.975V40.3636H113.495V47.7081H113.351C112.824 46.6438 111.74 45.081 109.142 45.081C105.738 45.081 103.063 47.7464 103.063 52.6555C103.063 57.5071 105.661 60.2589 109.132 60.2589ZM110.101 57.4112C107.809 57.4112 106.601 55.3977 106.601 52.6364C106.601 49.8942 107.79 47.9286 110.101 47.9286C112.335 47.9286 113.562 49.7791 113.562 52.6364C113.562 55.4936 112.316 57.4112 110.101 57.4112ZM132.314 49.1655C131.835 46.6726 129.84 45.081 126.388 45.081C122.841 45.081 120.425 46.826 120.434 49.549C120.425 51.6967 121.748 53.1158 124.576 53.7006L127.088 54.228C128.44 54.5252 129.073 55.0717 129.073 55.9059C129.073 56.9126 127.98 57.6701 126.331 57.6701C124.739 57.6701 123.704 56.9798 123.407 55.6566L120.022 55.9826C120.453 58.6864 122.726 60.2876 126.341 60.2876C130.022 60.2876 132.621 58.3796 132.63 55.5895C132.621 53.4897 131.269 52.2049 128.488 51.6009L125.976 51.0639C124.48 50.7283 123.886 50.2106 123.896 49.3572C123.886 48.3601 124.989 47.6697 126.436 47.6697C128.038 47.6697 128.881 48.5423 129.15 49.5107L132.314 49.1655Z" fill="#ECF2FF"/>
<path d="M142.012 60.2876C145.445 60.2876 147.803 58.6097 148.417 56.0497L145.176 55.6854C144.706 56.9318 143.556 57.5838 142.06 57.5838C139.817 57.5838 138.33 56.1072 138.302 53.5856H148.561V52.5213C148.561 47.3533 145.454 45.081 141.83 45.081C137.611 45.081 134.86 48.1779 134.86 52.7227C134.86 57.3441 137.573 60.2876 142.012 60.2876ZM138.311 51.2461C138.417 49.3668 139.807 47.7848 141.878 47.7848C143.872 47.7848 145.215 49.2422 145.234 51.2461H138.311ZM153.233 65.5227C155.937 65.5227 157.499 64.1325 158.334 61.7834L164.249 45.2919L160.539 45.2727L157.135 56.3949H156.982L153.587 45.2727H149.906L155.246 60.3068L154.949 61.1026C154.307 62.7805 153.29 62.8956 151.775 62.4545L150.97 65.1584C151.44 65.3501 152.283 65.5227 153.233 65.5227ZM172.677 60.2876C176.11 60.2876 178.468 58.6097 179.082 56.0497L175.841 55.6854C175.372 56.9318 174.221 57.5838 172.725 57.5838C170.482 57.5838 168.995 56.1072 168.967 53.5856H179.226V52.5213C179.226 47.3533 176.119 45.081 172.495 45.081C168.276 45.081 165.525 48.1779 165.525 52.7227C165.525 57.3441 168.238 60.2876 172.677 60.2876ZM168.976 51.2461C169.082 49.3668 170.472 47.7848 172.543 47.7848C174.537 47.7848 175.88 49.2422 175.899 51.2461H168.976Z" fill="#01A7EE"/>
<defs>
<clipPath id="clip0_7_49651">
<rect width="40" height="40" fill="white" transform="translate(21 31)"/>
</clipPath>
</defs>
</svg>
