<svg width="203" height="101" viewBox="0 0 203 101" fill="none" xmlns="http://www.w3.org/2000/svg">
<path d="M46.6493 49.7456C46.6493 51.654 46.4333 52.9776 46.0012 53.7163C45.7542 54.1473 45.3221 54.4243 44.7049 54.5474C44.0876 54.6705 43.532 54.6705 43.0382 54.5474L42.39 54.3627V46.6059C42.4518 46.5444 42.5289 46.452 42.6215 46.3289C42.7141 46.2058 42.9765 46.0827 43.4086 45.9595C43.8407 45.8364 44.3654 45.8056 44.9826 45.8672C46.0938 45.9903 46.6493 47.2831 46.6493 49.7456ZM60.9086 31.1847V57.9641C60.9086 59.0722 60.2913 59.9033 59.0567 60.4574C58.2542 60.8267 54.6894 62.1195 48.3623 64.3358C42.0351 66.552 35.9086 68.6759 29.9826 70.7074L21.0938 73.6624L28.8715 33.6779C28.9333 33.4933 29.0258 33.2624 29.1493 32.9854C29.2728 32.7083 29.6894 32.339 30.3993 31.8773C31.1092 31.4155 31.9579 31.1847 32.9456 31.1847H60.9086ZM50.6308 44.5744C50.0752 43.0969 49.1647 42.1735 47.8993 41.8041C46.6339 41.4347 45.4765 41.4809 44.4271 41.9426C43.3777 42.4043 42.8221 42.9122 42.7604 43.4663H42.39V35.5248L37.2049 36.3559V56.3019C37.4518 56.4866 37.7913 56.7329 38.2234 57.0407C38.6555 57.3485 39.566 57.7025 40.9549 58.1026C42.3438 58.5028 43.7789 58.5797 45.2604 58.3335C46.7419 58.0872 47.961 57.5486 48.9178 56.7175C49.8746 55.8864 50.4456 55.1323 50.6308 54.4551L51.0012 53.347C51.9271 50.6382 51.8036 47.7141 50.6308 44.5744Z" fill="#74BA1C"/>
<path d="M68.9368 60H72.3501V57.6797H72.5515C73.098 58.7536 74.239 60.2589 76.7702 60.2589C80.2411 60.2589 82.8395 57.5071 82.8395 52.6555C82.8395 47.7464 80.1644 45.081 76.7607 45.081C74.1623 45.081 73.0788 46.6438 72.5515 47.7081H72.4077V40.3636H68.9368V60ZM72.3406 52.6364C72.3406 49.7791 73.5678 47.9286 75.8018 47.9286C78.1126 47.9286 79.3015 49.8942 79.3015 52.6364C79.3015 55.3977 78.0934 57.4112 75.8018 57.4112C73.587 57.4112 72.3406 55.4936 72.3406 52.6364ZM85.7902 60H89.2611V51.342C89.2611 49.4723 90.6705 48.1491 92.5786 48.1491C93.1634 48.1491 93.8921 48.2546 94.1894 48.3505V45.1577C93.873 45.1001 93.3264 45.0618 92.9429 45.0618C91.2554 45.0618 89.846 46.0206 89.309 47.7273H89.1556V45.2727H85.7902V60ZM102.409 60.2876C105.841 60.2876 108.2 58.6097 108.814 56.0497L105.573 55.6854C105.103 56.9318 103.952 57.5838 102.457 57.5838C100.213 57.5838 98.7269 56.1072 98.6982 53.5856H108.957V52.5213C108.957 47.3533 105.851 45.081 102.227 45.081C98.0078 45.081 95.256 48.1779 95.256 52.7227C95.256 57.3441 97.9695 60.2876 102.409 60.2876ZM98.7077 51.2461C98.8132 49.3668 100.203 47.7848 102.275 47.7848C104.269 47.7848 105.611 49.2422 105.63 51.2461H98.7077ZM116.132 60.2972C118.442 60.2972 119.823 59.2138 120.456 57.9769H120.571V60H123.908V50.1435C123.908 46.2507 120.734 45.081 117.925 45.081C114.828 45.081 112.45 46.4616 111.683 49.1463L114.924 49.6065C115.269 48.5998 116.247 47.7369 117.944 47.7369C119.555 47.7369 120.437 48.5614 120.437 50.0092V50.0668C120.437 51.0639 119.392 51.1119 116.793 51.3899C113.936 51.6967 111.203 52.5501 111.203 55.8675C111.203 58.7631 113.322 60.2972 116.132 60.2972ZM117.033 57.7468C115.585 57.7468 114.55 57.0852 114.55 55.81C114.55 54.4773 115.71 53.9212 117.263 53.7006C118.174 53.576 119.996 53.3459 120.446 52.9815V54.717C120.446 56.3565 119.123 57.7468 117.033 57.7468ZM127.398 60H130.869V55.0526L132.134 53.7006L136.641 60H140.792L134.752 51.6296L140.457 45.2727H136.401L131.108 51.1886H130.869V40.3636H127.398V60ZM170.216 45.2727H167.31V41.7443H163.839V45.2727H161.749V47.9574H163.839V56.1456C163.82 58.9165 165.834 60.2781 168.442 60.2013C169.429 60.1726 170.11 59.9808 170.484 59.8562L169.899 57.1428C169.707 57.1907 169.314 57.277 168.883 57.277C168.01 57.277 167.31 56.9702 167.31 55.5703V47.9574H170.216V45.2727Z" fill="#ECF2FF"/>
<path d="M142.923 60H146.48V51.6584H155.579V60H159.146V40.3636H155.579V48.6765H146.48V40.3636H142.923V60Z" fill="#74BA1C"/>
</svg>
