<svg width="203" height="101" viewBox="0 0 203 101" fill="none" xmlns="http://www.w3.org/2000/svg">
<g clip-path="url(#clip0_7_49668)">
<path d="M61 66.5556C61 67.7343 60.5317 68.8648 59.6983 69.6983C58.8648 70.5317 57.7343 71 56.5556 71H25.4444C24.2657 71 23.1352 70.5317 22.3017 69.6983C21.4683 68.8648 21 67.7343 21 66.5556V35.4444C21 34.2657 21.4683 33.1352 22.3017 32.3017C23.1352 31.4683 24.2657 31 25.4444 31H56.5556C57.7343 31 58.8648 31.4683 59.6983 32.3017C60.5317 33.1352 61 34.2657 61 35.4444V66.5556Z" fill="#01A7EE"/>
<path d="M32.0285 41.0356C32.0285 39.6234 33.0618 38.4867 34.6118 38.4867C36.0929 38.4867 37.1951 39.4512 37.1951 41.0356V48.4767L45.6696 39.45C46.0496 39.0367 46.7029 38.4856 47.6685 38.4856C48.9773 38.4856 50.2185 39.4845 50.2185 40.9656C50.2185 41.8612 49.6673 42.5845 48.5296 43.7212L42.0173 50.1289L49.9751 58.4323C50.8018 59.2589 51.4229 60.0167 51.4229 61.0512C51.4229 62.67 50.1496 63.4278 48.7362 63.4278C47.7385 63.4278 47.0829 62.8434 46.1173 61.8089L37.194 52.1623V60.9467C37.194 62.2912 36.1607 63.4267 34.6107 63.4267C33.1296 63.4267 32.0273 62.4634 32.0273 60.9467V41.0356H32.0285Z" fill="white"/>
</g>
<path d="M68.9368 60H72.494V54.1513L74.6705 51.5817L80.5288 60H84.805L77.1442 49.1751L84.7379 40.3636H80.3945L72.7337 49.386H72.494V40.3636H68.9368V60ZM92.4947 60.2876C95.9272 60.2876 98.2859 58.6097 98.8995 56.0497L95.6587 55.6854C95.1889 56.9318 94.0384 57.5838 92.5426 57.5838C90.299 57.5838 88.8129 56.1072 88.7841 53.5856H99.0433V52.5213C99.0433 47.3533 95.9368 45.081 92.3125 45.081C88.0938 45.081 85.342 48.1779 85.342 52.7227C85.342 57.3441 88.0554 60.2876 92.4947 60.2876ZM88.7937 51.2461C88.8991 49.3668 90.2894 47.7848 92.3604 47.7848C94.3548 47.7848 95.6971 49.2422 95.7163 51.2461H88.7937ZM107.445 60.2589C109.976 60.2589 111.117 58.7536 111.664 57.6797H111.875V60H115.288V40.3636H111.807V47.7081H111.664C111.136 46.6438 110.053 45.081 107.454 45.081C104.051 45.081 101.376 47.7464 101.376 52.6555C101.376 57.5071 103.974 60.2589 107.445 60.2589ZM108.413 57.4112C106.122 57.4112 104.914 55.3977 104.914 52.6364C104.914 49.8942 106.103 47.9286 108.413 47.9286C110.647 47.9286 111.875 49.7791 111.875 52.6364C111.875 55.4936 110.628 57.4112 108.413 57.4112ZM124.452 60.2589C126.983 60.2589 128.124 58.7536 128.67 57.6797H128.881V60H132.295V40.3636H128.814V47.7081H128.67C128.143 46.6438 127.06 45.081 124.461 45.081C121.058 45.081 118.382 47.7464 118.382 52.6555C118.382 57.5071 120.981 60.2589 124.452 60.2589ZM125.42 57.4112C123.129 57.4112 121.92 55.3977 121.92 52.6364C121.92 49.8942 123.109 47.9286 125.42 47.9286C127.654 47.9286 128.881 49.7791 128.881 52.6364C128.881 55.4936 127.635 57.4112 125.42 57.4112ZM140.231 60.2972C142.542 60.2972 143.923 59.2138 144.555 57.9769H144.671V60H148.007V50.1435C148.007 46.2507 144.834 45.081 142.024 45.081C138.927 45.081 136.549 46.4616 135.782 49.1463L139.023 49.6065C139.368 48.5998 140.346 47.7369 142.043 47.7369C143.654 47.7369 144.536 48.5614 144.536 50.0092V50.0668C144.536 51.0639 143.491 51.1119 140.893 51.3899C138.036 51.6967 135.303 52.5501 135.303 55.8675C135.303 58.7631 137.422 60.2972 140.231 60.2972ZM141.133 57.7468C139.685 57.7468 138.649 57.0852 138.649 55.81C138.649 54.4773 139.809 53.9212 141.363 53.7006C142.274 53.576 144.095 53.3459 144.546 52.9815V54.717C144.546 56.3565 143.223 57.7468 141.133 57.7468ZM151.497 60H154.968V51.342C154.968 49.4723 156.378 48.1491 158.286 48.1491C158.87 48.1491 159.599 48.2546 159.896 48.3505V45.1577C159.58 45.1001 159.033 45.0618 158.65 45.0618C156.962 45.0618 155.553 46.0206 155.016 47.7273H154.863V45.2727H151.497V60ZM178.492 40.3636H174.954V53.7486H174.782L165.539 40.3636H162.356V60H165.913V46.6246H166.076L175.328 60H178.492V40.3636Z" fill="#ECF2FF"/>
<defs>
<clipPath id="clip0_7_49668">
<rect width="40" height="40" fill="white" transform="translate(21 31)"/>
</clipPath>
</defs>
</svg>
