<svg width="203" height="101" viewBox="0 0 203 101" fill="none" xmlns="http://www.w3.org/2000/svg">
<path d="M44.0813 50.165H53.5013C53.9433 50.165 54.3673 50.3406 54.6798 50.6532C54.9924 50.9658 55.168 51.3897 55.168 51.8317C55.168 52.2737 54.9924 52.6977 54.6798 53.0102C54.3673 53.3228 53.9433 53.4984 53.5013 53.4984H49.523C50.6066 54.7349 51.199 56.3259 51.188 57.97C51.188 62.8517 45.7213 66.16 39.4663 65.4334C35.5863 64.9834 32.858 63.4017 31.4213 60.7134C30.988 59.9017 31.0763 59.0217 31.8346 58.4967C32.593 57.97 33.928 58.33 34.3613 59.1434C35.2496 60.805 37.0346 61.7951 39.8496 62.1234C44.1613 62.6234 47.8546 60.6067 47.8546 57.97C47.8546 56.14 46.9413 54.7384 44.343 53.4967H29.3346C28.8926 53.4967 28.4687 53.3211 28.1561 53.0086C27.8436 52.696 27.668 52.2721 27.668 51.8301C27.668 51.388 27.8436 50.9641 28.1561 50.6515C28.4687 50.339 28.8926 50.1634 29.3346 50.1634H44.0813V50.165ZM32.6463 47.1567C32.4645 46.8832 32.2987 46.5994 32.1496 46.3067C31.6496 45.3234 31.3696 44.2834 31.4246 43.2484C31.6913 38.3084 36.3146 35.395 42.428 36.1067C46.1946 36.5434 49.0763 37.9117 51.0063 40.2501C51.5913 40.9601 51.4596 41.9967 50.7496 42.5834C50.0413 43.1667 49.003 43.125 48.4163 42.4167C47.063 40.775 44.9713 39.7567 42.043 39.4167C37.7763 38.92 34.758 40.6134 34.758 43.2884C34.758 44.4767 35.1563 45.3217 36.0263 46.305C36.403 46.7267 37.1046 47.18 38.1363 47.6617H32.988C32.803 47.39 32.688 47.2217 32.6463 47.1567Z" fill="#FCB936"/>
<path d="M79.6083 45.7617H83.0312C82.9641 42.4442 80.1357 40.0952 75.9553 40.0952C71.8324 40.0952 68.7354 42.4155 68.745 45.8864C68.745 48.7053 70.7489 50.3256 73.9801 51.1598L76.2141 51.7351C78.3331 52.272 79.733 52.9336 79.7425 54.4581C79.733 56.136 78.1413 57.2578 75.821 57.2578C73.5966 57.2578 71.8707 56.2607 71.7269 54.1992H68.2273C68.3711 58.1016 71.2763 60.2972 75.8498 60.2972C80.5575 60.2972 83.2901 57.9482 83.2997 54.4869C83.2901 51.0831 80.4808 49.5298 77.5277 48.8299L75.6868 48.3697C74.076 47.9862 72.331 47.3054 72.3501 45.6658C72.3597 44.1893 73.6829 43.1058 75.9073 43.1058C78.0263 43.1058 79.4261 44.0934 79.6083 45.7617ZM89.7884 51.3707C89.7884 49.2422 91.1116 48.0149 92.9717 48.0149C94.7934 48.0149 95.8673 49.1751 95.8673 51.1598V60H99.3382V50.6229C99.3382 47.0657 97.3247 45.081 94.2661 45.081C92.0033 45.081 90.5651 46.1069 89.8843 47.7752H89.7117V40.3636H86.3176V60H89.7884V51.3707ZM102.876 60H106.347V45.2727H102.876V60ZM104.621 43.1825C105.724 43.1825 106.625 42.3388 106.625 41.3033C106.625 40.2582 105.724 39.4144 104.621 39.4144C103.509 39.4144 102.608 40.2582 102.608 41.3033C102.608 42.3388 103.509 43.1825 104.621 43.1825ZM116.436 60.2876C119.869 60.2876 122.227 58.6097 122.841 56.0497L119.6 55.6854C119.13 56.9318 117.98 57.5838 116.484 57.5838C114.24 57.5838 112.754 56.1072 112.725 53.5856H122.985V52.5213C122.985 47.3533 119.878 45.081 116.254 45.081C112.035 45.081 109.283 48.1779 109.283 52.7227C109.283 57.3441 111.997 60.2876 116.436 60.2876ZM112.735 51.2461C112.841 49.3668 114.231 47.7848 116.302 47.7848C118.296 47.7848 119.638 49.2422 119.658 51.2461H112.735ZM129.392 40.3636H125.921V60H129.392V40.3636ZM138.426 60.2589C140.958 60.2589 142.099 58.7536 142.645 57.6797H142.856V60H146.269V40.3636H142.789V47.7081H142.645C142.118 46.6438 141.034 45.081 138.436 45.081C135.032 45.081 132.357 47.7464 132.357 52.6555C132.357 57.5071 134.955 60.2589 138.426 60.2589ZM139.395 57.4112C137.103 57.4112 135.895 55.3977 135.895 52.6364C135.895 49.8942 137.084 47.9286 139.395 47.9286C141.629 47.9286 142.856 49.7791 142.856 52.6364C142.856 55.4936 141.61 57.4112 139.395 57.4112Z" fill="#ECF2FF"/>
<path d="M149.258 43.3455H155.328V60H158.856V43.3455H164.925V40.3636H149.258V43.3455Z" fill="#FCB936"/>
</svg>
