<svg width="203" height="101" viewBox="0 0 203 101" fill="none" xmlns="http://www.w3.org/2000/svg">
<circle cx="40.5" cy="51.5" r="16.5" fill="#ECF2FF"/>
<g clip-path="url(#clip0_7_49655)">
<path d="M41 71C29.9538 71 21 62.0462 21 51C21 39.9538 29.9538 31 41 31C52.0462 31 61 39.9538 61 51C61 62.0462 52.0462 71 41 71ZM37.365 40.8913H37.3188V56.8162C37.3188 63.9875 46.2188 64.4388 49.475 62.545L48.145 58.575C46.6763 59.3412 42.7775 59.0712 42.7775 56.77V49.1912H49.75V44.8163H42.8237L42.8688 38.5L37.365 40.8913ZM32.2275 50.3638C33.595 50.3638 34.7038 49.0312 34.7038 47.3875C34.7038 45.7425 33.595 44.41 32.2275 44.41C30.8588 44.41 29.75 45.7425 29.75 47.3875C29.75 49.0312 30.8588 50.3638 32.2275 50.3638Z" fill="#0D6AAF"/>
</g>
<path d="M68.0739 43.3455H74.1431V60H77.6715V43.3455H83.7408V40.3636H68.0739V43.3455ZM88.8416 60.2972C91.1523 60.2972 92.533 59.2138 93.1658 57.9769H93.2809V60H96.6175V50.1435C96.6175 46.2507 93.4439 45.081 90.6346 45.081C87.5376 45.081 85.1598 46.4616 84.3928 49.1463L87.6335 49.6065C87.9787 48.5998 88.9567 47.7369 90.6538 47.7369C92.2646 47.7369 93.1467 48.5614 93.1467 50.0092V50.0668C93.1467 51.0639 92.1016 51.1119 89.5032 51.3899C86.646 51.6967 83.9134 52.5501 83.9134 55.8675C83.9134 58.7631 86.0323 60.2972 88.8416 60.2972ZM89.7429 57.7468C88.2951 57.7468 87.2596 57.0852 87.2596 55.81C87.2596 54.4773 88.4197 53.9212 89.973 53.7006C90.8839 53.576 92.7056 53.3459 93.1562 52.9815V54.717C93.1562 56.3565 91.8331 57.7468 89.7429 57.7468ZM103.578 51.3707C103.578 49.2422 104.863 48.0149 106.695 48.0149C108.488 48.0149 109.561 49.1942 109.561 51.1598V60H113.032V50.6229C113.042 47.0945 111.028 45.081 107.989 45.081C105.784 45.081 104.269 46.1357 103.598 47.7752H103.425V45.2727H100.108V60H103.578V51.3707ZM122.026 60.2589C124.557 60.2589 125.698 58.7536 126.245 57.6797H126.456V60H129.869V40.3636H126.388V47.7081H126.245C125.717 46.6438 124.634 45.081 122.036 45.081C118.632 45.081 115.957 47.7464 115.957 52.6555C115.957 57.5071 118.555 60.2589 122.026 60.2589ZM122.994 57.4112C120.703 57.4112 119.495 55.3977 119.495 52.6364C119.495 49.8942 120.684 47.9286 122.994 47.9286C125.228 47.9286 126.456 49.7791 126.456 52.6364C126.456 55.4936 125.209 57.4112 122.994 57.4112ZM139.992 60.2876C144.306 60.2876 147.048 57.2482 147.048 52.6939C147.048 48.13 144.306 45.081 139.992 45.081C135.677 45.081 132.935 48.13 132.935 52.6939C132.935 57.2482 135.677 60.2876 139.992 60.2876ZM140.011 57.5071C137.623 57.5071 136.454 55.3786 136.454 52.6843C136.454 49.9901 137.623 47.8327 140.011 47.8327C142.36 47.8327 143.53 49.9901 143.53 52.6843C143.53 55.3786 142.36 57.5071 140.011 57.5071ZM162.648 45.2727H158.957L155.563 56.2127H155.409L152.025 45.2727H148.324L153.568 60H157.403L162.648 45.2727Z" fill="#ECF2FF"/>
<defs>
<clipPath id="clip0_7_49655">
<rect width="40" height="40" fill="white" transform="translate(21 31)"/>
</clipPath>
</defs>
</svg>
