<svg width="203" height="101" viewBox="0 0 203 101" fill="none" xmlns="http://www.w3.org/2000/svg">
<path d="M41.0011 33.2223C33.0011 32.8889 26.3344 39.1112 26.0011 47.1112C25.6677 55.1112 31.89 61.7778 39.89 62.1112V56.3334L34.1122 50.5556C33.6677 50.1112 33.6677 49.4445 34.1122 49C34.5566 48.5556 35.2233 48.5556 35.6677 49L39.89 53.2223V46.3334L36.89 43.3334C36.4455 42.8889 36.4455 42.2223 36.89 41.7778C37.3344 41.3334 38.0011 41.3334 38.4455 41.7778L42.1122 45.4445V48.7778L45.7788 45.1112C46.2233 44.6667 46.89 44.6667 47.3344 45.1112C47.7789 45.5556 47.7789 46.2223 47.3344 46.6667L42.1122 51.8889V62.1112C50.1122 61.7778 56.3344 55.1112 56.0011 47.1112C55.6677 39.1112 49.0011 32.8889 41.0011 33.2223Z" fill="#23BF5A"/>
<path d="M41.0017 62.1111H39.8906V67.6666C39.8906 68.3333 40.3351 68.7778 41.0017 68.7778C41.6684 68.7778 42.1128 68.3333 42.1128 67.6666V62.1111H41.0017Z" fill="#23BF5A"/>
<path d="M68.0739 43.3455H74.1431V60H77.6715V43.3455H83.7408V40.3636H68.0739V43.3455ZM85.0783 60H88.5492V51.342C88.5492 49.4723 89.9586 48.1491 91.8667 48.1491C92.4515 48.1491 93.1802 48.2546 93.4775 48.3505V45.1577C93.161 45.1001 92.6145 45.0618 92.231 45.0618C90.5435 45.0618 89.1341 46.0206 88.5971 47.7273H88.4437V45.2727H85.0783V60ZM101.697 60.2876C105.129 60.2876 107.488 58.6097 108.102 56.0497L104.861 55.6854C104.391 56.9318 103.241 57.5838 101.745 57.5838C99.5012 57.5838 98.015 56.1072 97.9862 53.5856H108.245V52.5213C108.245 47.3533 105.139 45.081 101.515 45.081C97.2959 45.081 94.5441 48.1779 94.5441 52.7227C94.5441 57.3441 97.2575 60.2876 101.697 60.2876ZM97.9958 51.2461C98.1013 49.3668 99.4916 47.7848 101.563 47.7848C103.557 47.7848 104.899 49.2422 104.918 51.2461H97.9958ZM117.702 60.2876C121.134 60.2876 123.493 58.6097 124.107 56.0497L120.866 55.6854C120.396 56.9318 119.245 57.5838 117.75 57.5838C115.506 57.5838 114.02 56.1072 113.991 53.5856H124.25V52.5213C124.25 47.3533 121.144 45.081 117.52 45.081C113.301 45.081 110.549 48.1779 110.549 52.7227C110.549 57.3441 113.262 60.2876 117.702 60.2876ZM114.001 51.2461C114.106 49.3668 115.496 47.7848 117.567 47.7848C119.562 47.7848 120.904 49.2422 120.923 51.2461H114.001ZM127.34 60H130.897V51.6584H139.057V48.6765H130.897V43.3455H139.92V40.3636H127.34V60ZM142.796 60H146.267V51.342C146.267 49.4723 147.676 48.1491 149.584 48.1491C150.169 48.1491 150.898 48.2546 151.195 48.3505V45.1577C150.879 45.1001 150.332 45.0618 149.949 45.0618C148.261 45.0618 146.852 46.0206 146.315 47.7273H146.161V45.2727H142.796V60ZM156.972 51.3707C156.972 49.2422 158.295 48.0149 160.155 48.0149C161.977 48.0149 163.051 49.1751 163.051 51.1598V60H166.522V50.6229C166.522 47.0657 164.508 45.081 161.45 45.081C159.187 45.081 157.749 46.1069 157.068 47.7752H156.895V40.3636H153.501V60H156.972V51.3707Z" fill="#ECF2FF"/>
</svg>
