<svg width="144" height="59" viewBox="0 0 144 59" fill="none" xmlns="http://www.w3.org/2000/svg">
<g opacity="0.6">
<path fill-rule="evenodd" clip-rule="evenodd" d="M8.42857 4.21429C8.42857 6.54177 6.54177 8.42857 4.21429 8.42857C1.8868 8.42857 0 6.54177 0 4.21429C0 1.8868 1.8868 0 4.21429 0C6.54177 0 8.42857 1.8868 8.42857 4.21429ZM25.2857 4.21429C25.2857 6.54177 23.3989 8.42857 21.0714 8.42857C18.7439 8.42857 16.8571 6.54177 16.8571 4.21429C16.8571 1.8868 18.7439 0 21.0714 0C23.3989 0 25.2857 1.8868 25.2857 4.21429ZM37.9286 8.42857C40.2561 8.42857 42.1429 6.54177 42.1429 4.21429C42.1429 1.8868 40.2561 0 37.9286 0C35.6011 0 33.7143 1.8868 33.7143 4.21429C33.7143 6.54177 35.6011 8.42857 37.9286 8.42857ZM59 4.21429C59 6.54177 57.1132 8.42857 54.7857 8.42857C52.4582 8.42857 50.5714 6.54177 50.5714 4.21429C50.5714 1.8868 52.4582 0 54.7857 0C57.1132 0 59 1.8868 59 4.21429ZM71.6429 8.42857C73.9703 8.42857 75.8571 6.54177 75.8571 4.21429C75.8571 1.8868 73.9703 0 71.6429 0C69.3154 0 67.4286 1.8868 67.4286 4.21429C67.4286 6.54177 69.3154 8.42857 71.6429 8.42857ZM92.7143 4.21429C92.7143 6.54177 90.8275 8.42857 88.5 8.42857C86.1725 8.42857 84.2857 6.54177 84.2857 4.21429C84.2857 1.8868 86.1725 0 88.5 0C90.8275 0 92.7143 1.8868 92.7143 4.21429ZM105.357 8.42857C107.685 8.42857 109.571 6.54177 109.571 4.21429C109.571 1.8868 107.685 0 105.357 0C103.03 0 101.143 1.8868 101.143 4.21429C101.143 6.54177 103.03 8.42857 105.357 8.42857Z" fill="url(#paint0_linear_7_50291)"/>
<path fill-rule="evenodd" clip-rule="evenodd" d="M42.1411 21.0715C42.1411 23.3989 40.2543 25.2857 37.9269 25.2857C35.5994 25.2857 33.7126 23.3989 33.7126 21.0715C33.7126 18.744 35.5994 16.8572 37.9269 16.8572C40.2543 16.8572 42.1411 18.744 42.1411 21.0715ZM25.284 21.0715C25.284 23.399 23.3972 25.2858 21.0698 25.2858C18.7423 25.2858 16.8555 23.399 16.8555 21.0715C16.8555 18.744 18.7423 16.8572 21.0698 16.8572C23.3972 16.8572 25.284 18.744 25.284 21.0715ZM54.784 25.2857C57.1115 25.2857 58.9983 23.3989 58.9983 21.0715C58.9983 18.744 57.1115 16.8572 54.784 16.8572C52.4565 16.8572 50.5697 18.744 50.5697 21.0715C50.5697 23.3989 52.4565 25.2857 54.784 25.2857ZM75.8554 21.0715C75.8554 23.3989 73.9686 25.2857 71.6411 25.2857C69.3137 25.2857 67.4269 23.3989 67.4269 21.0715C67.4269 18.744 69.3137 16.8572 71.6411 16.8572C73.9686 16.8572 75.8554 18.744 75.8554 21.0715ZM88.4983 25.2857C90.8258 25.2857 92.7126 23.3989 92.7126 21.0715C92.7126 18.744 90.8258 16.8572 88.4983 16.8572C86.1708 16.8572 84.284 18.744 84.284 21.0715C84.284 23.3989 86.1708 25.2857 88.4983 25.2857ZM109.57 21.0715C109.57 23.3989 107.683 25.2857 105.355 25.2857C103.028 25.2857 101.141 23.3989 101.141 21.0715C101.141 18.744 103.028 16.8572 105.355 16.8572C107.683 16.8572 109.57 18.744 109.57 21.0715ZM122.213 25.2857C124.54 25.2857 126.427 23.3989 126.427 21.0715C126.427 18.744 124.54 16.8572 122.213 16.8572C119.885 16.8572 117.998 18.744 117.998 21.0715C117.998 23.3989 119.885 25.2857 122.213 25.2857Z" fill="url(#paint1_linear_7_50291)"/>
<path fill-rule="evenodd" clip-rule="evenodd" d="M59.0006 37.9285C59.0006 40.256 57.1138 42.1428 54.7863 42.1428C52.4588 42.1428 50.572 40.256 50.572 37.9285C50.572 35.601 52.4588 33.7142 54.7863 33.7142C57.1138 33.7142 59.0006 35.601 59.0006 37.9285ZM42.1434 37.9286C42.1434 40.2561 40.2566 42.1429 37.9291 42.1429C35.6016 42.1429 33.7148 40.2561 33.7148 37.9286C33.7148 35.6011 35.6016 33.7143 37.9291 33.7143C40.2566 33.7143 42.1434 35.6011 42.1434 37.9286ZM71.6435 42.1428C73.971 42.1428 75.8577 40.256 75.8577 37.9285C75.8577 35.601 73.971 33.7142 71.6435 33.7142C69.316 33.7142 67.4292 35.601 67.4292 37.9285C67.4292 40.256 69.316 42.1428 71.6435 42.1428ZM92.7149 37.9285C92.7149 40.256 90.8281 42.1428 88.5006 42.1428C86.1731 42.1428 84.2863 40.256 84.2863 37.9285C84.2863 35.601 86.1731 33.7142 88.5006 33.7142C90.8281 33.7142 92.7149 35.601 92.7149 37.9285ZM105.358 42.1428C107.685 42.1428 109.572 40.256 109.572 37.9285C109.572 35.601 107.685 33.7142 105.358 33.7142C103.03 33.7142 101.143 35.601 101.143 37.9285C101.143 40.256 103.03 42.1428 105.358 42.1428ZM126.429 37.9285C126.429 40.256 124.542 42.1428 122.215 42.1428C119.887 42.1428 118.001 40.256 118.001 37.9285C118.001 35.601 119.887 33.7142 122.215 33.7142C124.542 33.7142 126.429 35.601 126.429 37.9285ZM139.072 42.1428C141.4 42.1428 143.286 40.256 143.286 37.9285C143.286 35.601 141.4 33.7142 139.072 33.7142C136.745 33.7142 134.858 35.601 134.858 37.9285C134.858 40.256 136.745 42.1428 139.072 42.1428Z" fill="url(#paint2_linear_7_50291)"/>
<path fill-rule="evenodd" clip-rule="evenodd" d="M25.2857 54.7856C25.2857 57.1131 23.3989 58.9999 21.0714 58.9999C18.7439 58.9999 16.8571 57.1131 16.8571 54.7856C16.8571 52.4581 18.7439 50.5713 21.0714 50.5713C23.3989 50.5713 25.2857 52.4581 25.2857 54.7856ZM8.42857 54.7857C8.42857 57.1132 6.54177 59 4.21429 59C1.8868 59 0 57.1132 0 54.7857C0 52.4582 1.8868 50.5714 4.21429 50.5714C6.54177 50.5714 8.42857 52.4582 8.42857 54.7857ZM37.9286 58.9999C40.2561 58.9999 42.1429 57.1131 42.1429 54.7856C42.1429 52.4581 40.2561 50.5713 37.9286 50.5713C35.6011 50.5713 33.7143 52.4581 33.7143 54.7856C33.7143 57.1131 35.6011 58.9999 37.9286 58.9999ZM59 54.7856C59 57.1131 57.1132 58.9999 54.7857 58.9999C52.4582 58.9999 50.5714 57.1131 50.5714 54.7856C50.5714 52.4581 52.4582 50.5713 54.7857 50.5713C57.1132 50.5713 59 52.4581 59 54.7856ZM71.6429 58.9999C73.9703 58.9999 75.8571 57.1131 75.8571 54.7856C75.8571 52.4581 73.9703 50.5713 71.6429 50.5713C69.3154 50.5713 67.4286 52.4581 67.4286 54.7856C67.4286 57.1131 69.3154 58.9999 71.6429 58.9999ZM92.7143 54.7856C92.7143 57.1131 90.8275 58.9999 88.5 58.9999C86.1725 58.9999 84.2857 57.1131 84.2857 54.7856C84.2857 52.4581 86.1725 50.5713 88.5 50.5713C90.8275 50.5713 92.7143 52.4581 92.7143 54.7856ZM105.357 58.9999C107.685 58.9999 109.571 57.1131 109.571 54.7856C109.571 52.4581 107.685 50.5713 105.357 50.5713C103.03 50.5713 101.143 52.4581 101.143 54.7856C101.143 57.1131 103.03 58.9999 105.357 58.9999Z" fill="url(#paint3_linear_7_50291)"/>
</g>
<defs>
<linearGradient id="paint0_linear_7_50291" x1="0" y1="4.21429" x2="106.446" y2="4.2143" gradientUnits="userSpaceOnUse">
<stop stop-color="#BD24DF"/>
<stop offset="1" stop-color="#2D6ADE"/>
</linearGradient>
<linearGradient id="paint1_linear_7_50291" x1="16.8555" y1="21.0715" x2="123.302" y2="21.0715" gradientUnits="userSpaceOnUse">
<stop stop-color="#BD24DF"/>
<stop offset="1" stop-color="#2D6ADE"/>
</linearGradient>
<linearGradient id="paint2_linear_7_50291" x1="33.7148" y1="37.9285" x2="140.161" y2="37.9285" gradientUnits="userSpaceOnUse">
<stop stop-color="#BD24DF"/>
<stop offset="1" stop-color="#2D6ADE"/>
</linearGradient>
<linearGradient id="paint3_linear_7_50291" x1="0" y1="54.7856" x2="106.446" y2="54.7856" gradientUnits="userSpaceOnUse">
<stop stop-color="#BD24DF"/>
<stop offset="1" stop-color="#2D6ADE"/>
</linearGradient>
</defs>
</svg>
