<svg width="81" height="59" viewBox="0 0 81 59" fill="none" xmlns="http://www.w3.org/2000/svg">
<path fill-rule="evenodd" clip-rule="evenodd" d="M-54.5714 4.21429C-54.5714 6.54177 -56.4582 8.42857 -58.7857 8.42857C-61.1132 8.42857 -63 6.54177 -63 4.21429C-63 1.8868 -61.1132 0 -58.7857 0C-56.4582 0 -54.5714 1.8868 -54.5714 4.21429ZM-37.7143 4.21429C-37.7143 6.54177 -39.6011 8.42857 -41.9286 8.42857C-44.2561 8.42857 -46.1429 6.54177 -46.1429 4.21429C-46.1429 1.8868 -44.2561 0 -41.9286 0C-39.6011 0 -37.7143 1.8868 -37.7143 4.21429ZM-25.0714 8.42857C-22.7439 8.42857 -20.8571 6.54177 -20.8571 4.21429C-20.8571 1.8868 -22.7439 0 -25.0714 0C-27.3989 0 -29.2857 1.8868 -29.2857 4.21429C-29.2857 6.54177 -27.3989 8.42857 -25.0714 8.42857ZM-4 4.21429C-4 6.54177 -5.8868 8.42857 -8.21428 8.42857C-10.5418 8.42857 -12.4286 6.54177 -12.4286 4.21429C-12.4286 1.8868 -10.5418 0 -8.21428 0C-5.8868 0 -4 1.8868 -4 4.21429ZM8.64286 8.42857C10.9703 8.42857 12.8571 6.54177 12.8571 4.21429C12.8571 1.8868 10.9703 0 8.64286 0C6.31538 0 4.42857 1.8868 4.42857 4.21429C4.42857 6.54177 6.31538 8.42857 8.64286 8.42857ZM29.7143 4.21429C29.7143 6.54177 27.8275 8.42857 25.5 8.42857C23.1725 8.42857 21.2857 6.54177 21.2857 4.21429C21.2857 1.8868 23.1725 0 25.5 0C27.8275 0 29.7143 1.8868 29.7143 4.21429ZM42.3571 8.42857C44.6846 8.42857 46.5714 6.54177 46.5714 4.21429C46.5714 1.8868 44.6846 0 42.3571 0C40.0297 0 38.1429 1.8868 38.1429 4.21429C38.1429 6.54177 40.0297 8.42857 42.3571 8.42857Z" fill="url(#paint0_linear_7_50027)"/>
<path fill-rule="evenodd" clip-rule="evenodd" d="M-20.8589 21.0714C-20.8589 23.3989 -22.7457 25.2857 -25.0731 25.2857C-27.4006 25.2857 -29.2874 23.3989 -29.2874 21.0714C-29.2874 18.7439 -27.4006 16.8571 -25.0731 16.8571C-22.7457 16.8571 -20.8589 18.7439 -20.8589 21.0714ZM-37.716 21.0714C-37.716 23.3989 -39.6028 25.2857 -41.9302 25.2857C-44.2577 25.2857 -46.1445 23.3989 -46.1445 21.0714C-46.1445 18.744 -44.2577 16.8572 -41.9302 16.8572C-39.6028 16.8572 -37.716 18.744 -37.716 21.0714ZM-8.21599 25.2857C-5.88851 25.2857 -4.00171 23.3989 -4.00171 21.0714C-4.00171 18.7439 -5.88851 16.8571 -8.21599 16.8571C-10.5435 16.8571 -12.4303 18.7439 -12.4303 21.0714C-12.4303 23.3989 -10.5435 25.2857 -8.21599 25.2857ZM12.8554 21.0714C12.8554 23.3989 10.9686 25.2857 8.64115 25.2857C6.31366 25.2857 4.42686 23.3989 4.42686 21.0714C4.42686 18.7439 6.31366 16.8571 8.64115 16.8571C10.9686 16.8571 12.8554 18.7439 12.8554 21.0714ZM25.4983 25.2857C27.8258 25.2857 29.7126 23.3989 29.7126 21.0714C29.7126 18.7439 27.8258 16.8571 25.4983 16.8571C23.1708 16.8571 21.284 18.7439 21.284 21.0714C21.284 23.3989 23.1708 25.2857 25.4983 25.2857ZM46.5697 21.0714C46.5697 23.3989 44.6829 25.2857 42.3554 25.2857C40.028 25.2857 38.1412 23.3989 38.1412 21.0714C38.1412 18.7439 40.028 16.8571 42.3554 16.8571C44.6829 16.8571 46.5697 18.7439 46.5697 21.0714ZM59.2126 25.2857C61.5401 25.2857 63.4269 23.3989 63.4269 21.0714C63.4269 18.7439 61.5401 16.8571 59.2126 16.8571C56.8851 16.8571 54.9983 18.7439 54.9983 21.0714C54.9983 23.3989 56.8851 25.2857 59.2126 25.2857Z" fill="url(#paint1_linear_7_50027)"/>
<path fill-rule="evenodd" clip-rule="evenodd" d="M-3.99939 37.9286C-3.99939 40.2561 -5.88619 42.1429 -8.21368 42.1429C-10.5412 42.1429 -12.428 40.2561 -12.428 37.9286C-12.428 35.6011 -10.5412 33.7143 -8.21368 33.7143C-5.88619 33.7143 -3.99939 35.6011 -3.99939 37.9286ZM-20.8566 37.9286C-20.8566 40.2561 -22.7434 42.1429 -25.0709 42.1429C-27.3984 42.1429 -29.2852 40.2561 -29.2852 37.9286C-29.2852 35.6012 -27.3984 33.7144 -25.0709 33.7144C-22.7434 33.7144 -20.8566 35.6012 -20.8566 37.9286ZM8.64347 42.1429C10.971 42.1429 12.8577 40.2561 12.8577 37.9286C12.8577 35.6011 10.971 33.7143 8.64347 33.7143C6.31598 33.7143 4.42918 35.6011 4.42918 37.9286C4.42918 40.2561 6.31598 42.1429 8.64347 42.1429ZM29.7149 37.9286C29.7149 40.2561 27.8281 42.1429 25.5006 42.1429C23.1731 42.1429 21.2863 40.2561 21.2863 37.9286C21.2863 35.6011 23.1731 33.7143 25.5006 33.7143C27.8281 33.7143 29.7149 35.6011 29.7149 37.9286ZM42.3578 42.1429C44.6852 42.1429 46.572 40.2561 46.572 37.9286C46.572 35.6011 44.6852 33.7143 42.3578 33.7143C40.0303 33.7143 38.1435 35.6011 38.1435 37.9286C38.1435 40.2561 40.0303 42.1429 42.3578 42.1429ZM63.4292 37.9286C63.4292 40.2561 61.5424 42.1429 59.2149 42.1429C56.8874 42.1429 55.0006 40.2561 55.0006 37.9286C55.0006 35.6011 56.8874 33.7143 59.2149 33.7143C61.5424 33.7143 63.4292 35.6011 63.4292 37.9286ZM76.072 42.1429C78.3995 42.1429 80.2863 40.2561 80.2863 37.9286C80.2863 35.6011 78.3995 33.7143 76.072 33.7143C73.7446 33.7143 71.8577 35.6011 71.8577 37.9286C71.8577 40.2561 73.7446 42.1429 76.072 42.1429Z" fill="url(#paint2_linear_7_50027)"/>
<path fill-rule="evenodd" clip-rule="evenodd" d="M-37.7143 54.7856C-37.7143 57.1131 -39.6011 58.9999 -41.9286 58.9999C-44.2561 58.9999 -46.1429 57.1131 -46.1429 54.7856C-46.1429 52.4581 -44.2561 50.5713 -41.9286 50.5713C-39.6011 50.5713 -37.7143 52.4581 -37.7143 54.7856ZM-54.5714 54.7857C-54.5714 57.1132 -56.4582 59 -58.7857 59C-61.1132 59 -63 57.1132 -63 54.7857C-63 52.4582 -61.1132 50.5714 -58.7857 50.5714C-56.4582 50.5714 -54.5714 52.4582 -54.5714 54.7857ZM-25.0714 58.9999C-22.7439 58.9999 -20.8571 57.1131 -20.8571 54.7856C-20.8571 52.4581 -22.7439 50.5713 -25.0714 50.5713C-27.3989 50.5713 -29.2857 52.4581 -29.2857 54.7856C-29.2857 57.1131 -27.3989 58.9999 -25.0714 58.9999ZM-4 54.7856C-4 57.1131 -5.8868 58.9999 -8.21428 58.9999C-10.5418 58.9999 -12.4286 57.1131 -12.4286 54.7856C-12.4286 52.4581 -10.5418 50.5713 -8.21428 50.5713C-5.8868 50.5713 -4 52.4581 -4 54.7856ZM8.64286 58.9999C10.9703 58.9999 12.8571 57.1131 12.8571 54.7856C12.8571 52.4581 10.9703 50.5713 8.64286 50.5713C6.31538 50.5713 4.42857 52.4581 4.42857 54.7856C4.42857 57.1131 6.31538 58.9999 8.64286 58.9999ZM29.7143 54.7856C29.7143 57.1131 27.8275 58.9999 25.5 58.9999C23.1725 58.9999 21.2857 57.1131 21.2857 54.7856C21.2857 52.4581 23.1725 50.5713 25.5 50.5713C27.8275 50.5713 29.7143 52.4581 29.7143 54.7856ZM42.3571 58.9999C44.6846 58.9999 46.5714 57.1131 46.5714 54.7856C46.5714 52.4581 44.6846 50.5713 42.3571 50.5713C40.0297 50.5713 38.1429 52.4581 38.1429 54.7856C38.1429 57.1131 40.0297 58.9999 42.3571 58.9999Z" fill="url(#paint3_linear_7_50027)"/>
<defs>
<linearGradient id="paint0_linear_7_50027" x1="-63" y1="4.21429" x2="43.4461" y2="4.2143" gradientUnits="userSpaceOnUse">
<stop stop-color="#BD24DF"/>
<stop offset="1" stop-color="#2D6ADE"/>
</linearGradient>
<linearGradient id="paint1_linear_7_50027" x1="-46.1445" y1="21.0714" x2="60.3015" y2="21.0714" gradientUnits="userSpaceOnUse">
<stop stop-color="#BD24DF"/>
<stop offset="1" stop-color="#2D6ADE"/>
</linearGradient>
<linearGradient id="paint2_linear_7_50027" x1="-29.2852" y1="37.9286" x2="77.1609" y2="37.9286" gradientUnits="userSpaceOnUse">
<stop stop-color="#BD24DF"/>
<stop offset="1" stop-color="#2D6ADE"/>
</linearGradient>
<linearGradient id="paint3_linear_7_50027" x1="-63" y1="54.7856" x2="43.4461" y2="54.7856" gradientUnits="userSpaceOnUse">
<stop stop-color="#BD24DF"/>
<stop offset="1" stop-color="#2D6ADE"/>
</linearGradient>
</defs>
</svg>
