<svg width="949" height="386" viewBox="0 0 949 386" fill="none" xmlns="http://www.w3.org/2000/svg">
<rect width="949" height="386" fill="none"/>
<g opacity="0.5">
<path fill-rule="evenodd" clip-rule="evenodd" d="M124.582 101.104C124.582 102.818 123.181 104.207 121.453 104.207C119.725 104.207 118.324 102.818 118.324 101.104C118.324 99.3895 119.725 97.9999 121.453 97.9999C123.181 97.9999 124.582 99.3895 124.582 101.104ZM137.098 101.104C137.098 102.818 135.697 104.207 133.969 104.207C132.241 104.207 130.84 102.818 130.84 101.104C130.84 99.3896 132.241 98 133.969 98C135.697 98 137.098 99.3896 137.098 101.104ZM146.485 104.207C148.213 104.207 149.614 102.818 149.614 101.104C149.614 99.3896 148.213 98 146.485 98C144.757 98 143.356 99.3896 143.356 101.104C143.356 102.818 144.757 104.207 146.485 104.207ZM162.13 101.104C162.13 102.818 160.729 104.207 159.001 104.207C157.273 104.207 155.872 102.818 155.872 101.104C155.872 99.3896 157.273 98 159.001 98C160.729 98 162.13 99.3896 162.13 101.104ZM171.516 104.207C173.245 104.207 174.645 102.818 174.645 101.104C174.645 99.3896 173.245 98 171.516 98C169.788 98 168.387 99.3896 168.387 101.104C168.387 102.818 169.788 104.207 171.516 104.207ZM187.161 101.104C187.161 102.818 185.76 104.207 184.032 104.207C182.304 104.207 180.903 102.818 180.903 101.104C180.903 99.3896 182.304 98 184.032 98C185.76 98 187.161 99.3896 187.161 101.104ZM196.548 104.207C198.276 104.207 199.677 102.818 199.677 101.104C199.677 99.3896 198.276 98 196.548 98C194.82 98 193.419 99.3896 193.419 101.104C193.419 102.818 194.82 104.207 196.548 104.207Z" fill="url(#paint0_linear_0_1)"/>
<path fill-rule="evenodd" clip-rule="evenodd" d="M137.098 113.519C137.098 115.233 135.697 116.622 133.969 116.622C132.241 116.622 130.84 115.233 130.84 113.519C130.84 111.805 132.241 110.415 133.969 110.415C135.697 110.415 137.098 111.805 137.098 113.519ZM149.614 113.519C149.614 115.233 148.213 116.622 146.485 116.622C144.757 116.622 143.356 115.233 143.356 113.519C143.356 111.805 144.757 110.415 146.485 110.415C148.213 110.415 149.614 111.805 149.614 113.519ZM159.001 116.622C160.729 116.622 162.13 115.233 162.13 113.519C162.13 111.805 160.729 110.415 159.001 110.415C157.273 110.415 155.872 111.805 155.872 113.519C155.872 115.233 157.273 116.622 159.001 116.622ZM174.645 113.519C174.645 115.233 173.245 116.622 171.516 116.622C169.788 116.622 168.387 115.233 168.387 113.519C168.387 111.805 169.788 110.415 171.516 110.415C173.245 110.415 174.645 111.805 174.645 113.519ZM184.032 116.622C185.76 116.622 187.161 115.233 187.161 113.519C187.161 111.805 185.76 110.415 184.032 110.415C182.304 110.415 180.903 111.805 180.903 113.519C180.903 115.233 182.304 116.622 184.032 116.622ZM199.677 113.519C199.677 115.233 198.276 116.622 196.548 116.622C194.82 116.622 193.419 115.233 193.419 113.519C193.419 111.805 194.82 110.415 196.548 110.415C198.276 110.415 199.677 111.805 199.677 113.519ZM209.064 116.622C210.792 116.622 212.193 115.233 212.193 113.519C212.193 111.805 210.792 110.415 209.064 110.415C207.336 110.415 205.935 111.805 205.935 113.519C205.935 115.233 207.336 116.622 209.064 116.622Z" fill="url(#paint1_linear_0_1)"/>
<path fill-rule="evenodd" clip-rule="evenodd" d="M149.614 125.934C149.614 127.648 148.213 129.037 146.485 129.037C144.756 129.037 143.356 127.648 143.356 125.934C143.356 124.22 144.756 122.83 146.485 122.83C148.213 122.83 149.614 124.22 149.614 125.934ZM162.13 125.934C162.13 127.648 160.729 129.038 159.001 129.038C157.273 129.038 155.872 127.648 155.872 125.934C155.872 124.22 157.273 122.83 159.001 122.83C160.729 122.83 162.13 124.22 162.13 125.934ZM171.517 129.038C173.245 129.038 174.646 127.648 174.646 125.934C174.646 124.22 173.245 122.83 171.517 122.83C169.788 122.83 168.388 124.22 168.388 125.934C168.388 127.648 169.788 129.038 171.517 129.038ZM187.162 125.934C187.162 127.648 185.761 129.038 184.033 129.038C182.304 129.038 180.904 127.648 180.904 125.934C180.904 124.22 182.304 122.83 184.033 122.83C185.761 122.83 187.162 124.22 187.162 125.934ZM196.549 129.038C198.277 129.038 199.678 127.648 199.678 125.934C199.678 124.22 198.277 122.83 196.549 122.83C194.82 122.83 193.42 124.22 193.42 125.934C193.42 127.648 194.82 129.038 196.549 129.038ZM212.193 125.934C212.193 127.648 210.792 129.038 209.064 129.038C207.336 129.038 205.935 127.648 205.935 125.934C205.935 124.22 207.336 122.83 209.064 122.83C210.792 122.83 212.193 124.22 212.193 125.934ZM221.58 129.038C223.308 129.038 224.709 127.648 224.709 125.934C224.709 124.22 223.308 122.83 221.58 122.83C219.852 122.83 218.451 124.22 218.451 125.934C218.451 127.648 219.852 129.038 221.58 129.038Z" fill="url(#paint2_linear_0_1)"/>
<path fill-rule="evenodd" clip-rule="evenodd" d="M137.098 138.348C137.098 140.063 135.697 141.452 133.969 141.452C132.241 141.452 130.84 140.063 130.84 138.348C130.84 136.634 132.241 135.245 133.969 135.245C135.697 135.245 137.098 136.634 137.098 138.348ZM124.582 138.349C124.582 140.063 123.181 141.452 121.453 141.452C119.725 141.452 118.324 140.063 118.324 138.349C118.324 136.634 119.725 135.245 121.453 135.245C123.181 135.245 124.582 136.634 124.582 138.349ZM146.485 141.452C148.213 141.452 149.614 140.063 149.614 138.348C149.614 136.634 148.213 135.245 146.485 135.245C144.757 135.245 143.356 136.634 143.356 138.348C143.356 140.063 144.757 141.452 146.485 141.452ZM162.13 138.348C162.13 140.063 160.729 141.452 159.001 141.452C157.273 141.452 155.872 140.063 155.872 138.348C155.872 136.634 157.273 135.245 159.001 135.245C160.729 135.245 162.13 136.634 162.13 138.348ZM171.516 141.452C173.245 141.452 174.645 140.063 174.645 138.348C174.645 136.634 173.245 135.245 171.516 135.245C169.788 135.245 168.387 136.634 168.387 138.348C168.387 140.063 169.788 141.452 171.516 141.452ZM187.161 138.348C187.161 140.063 185.76 141.452 184.032 141.452C182.304 141.452 180.903 140.063 180.903 138.348C180.903 136.634 182.304 135.245 184.032 135.245C185.76 135.245 187.161 136.634 187.161 138.348ZM196.548 141.452C198.276 141.452 199.677 140.063 199.677 138.348C199.677 136.634 198.276 135.245 196.548 135.245C194.82 135.245 193.419 136.634 193.419 138.348C193.419 140.063 194.82 141.452 196.548 141.452Z" fill="url(#paint3_linear_0_1)"/>
</g>
<g opacity="0.5">
<path fill-rule="evenodd" clip-rule="evenodd" d="M124.582 288.907C124.582 290.621 123.181 292.011 121.453 292.011C119.725 292.011 118.324 290.621 118.324 288.907C118.324 287.193 119.725 285.803 121.453 285.803C123.181 285.803 124.582 287.193 124.582 288.907ZM137.098 288.907C137.098 290.621 135.697 292.011 133.969 292.011C132.241 292.011 130.84 290.621 130.84 288.907C130.84 287.193 132.241 285.803 133.969 285.803C135.697 285.803 137.098 287.193 137.098 288.907ZM146.485 292.011C148.213 292.011 149.614 290.621 149.614 288.907C149.614 287.193 148.213 285.803 146.485 285.803C144.757 285.803 143.356 287.193 143.356 288.907C143.356 290.621 144.757 292.011 146.485 292.011ZM162.13 288.907C162.13 290.621 160.729 292.011 159.001 292.011C157.273 292.011 155.872 290.621 155.872 288.907C155.872 287.193 157.273 285.803 159.001 285.803C160.729 285.803 162.13 287.193 162.13 288.907ZM171.516 292.011C173.245 292.011 174.645 290.621 174.645 288.907C174.645 287.193 173.245 285.803 171.516 285.803C169.788 285.803 168.387 287.193 168.387 288.907C168.387 290.621 169.788 292.011 171.516 292.011ZM187.161 288.907C187.161 290.621 185.76 292.011 184.032 292.011C182.304 292.011 180.903 290.621 180.903 288.907C180.903 287.193 182.304 285.803 184.032 285.803C185.76 285.803 187.161 287.193 187.161 288.907ZM196.548 292.011C198.276 292.011 199.677 290.621 199.677 288.907C199.677 287.193 198.276 285.803 196.548 285.803C194.82 285.803 193.419 287.193 193.419 288.907C193.419 290.621 194.82 292.011 196.548 292.011Z" fill="url(#paint4_linear_0_1)"/>
<path fill-rule="evenodd" clip-rule="evenodd" d="M149.614 301.322C149.614 303.036 148.213 304.426 146.485 304.426C144.757 304.426 143.356 303.036 143.356 301.322C143.356 299.608 144.757 298.218 146.485 298.218C148.213 298.218 149.614 299.608 149.614 301.322ZM137.098 301.322C137.098 303.037 135.697 304.426 133.969 304.426C132.241 304.426 130.84 303.037 130.84 301.322C130.84 299.608 132.241 298.219 133.969 298.219C135.697 298.219 137.098 299.608 137.098 301.322ZM159.001 304.426C160.729 304.426 162.13 303.036 162.13 301.322C162.13 299.608 160.729 298.218 159.001 298.218C157.273 298.218 155.872 299.608 155.872 301.322C155.872 303.036 157.273 304.426 159.001 304.426ZM174.645 301.322C174.645 303.036 173.245 304.426 171.516 304.426C169.788 304.426 168.387 303.036 168.387 301.322C168.387 299.608 169.788 298.218 171.516 298.218C173.245 298.218 174.645 299.608 174.645 301.322ZM184.032 304.426C185.76 304.426 187.161 303.036 187.161 301.322C187.161 299.608 185.76 298.218 184.032 298.218C182.304 298.218 180.903 299.608 180.903 301.322C180.903 303.036 182.304 304.426 184.032 304.426ZM199.677 301.322C199.677 303.036 198.276 304.426 196.548 304.426C194.82 304.426 193.419 303.036 193.419 301.322C193.419 299.608 194.82 298.218 196.548 298.218C198.276 298.218 199.677 299.608 199.677 301.322ZM209.064 304.426C210.792 304.426 212.193 303.036 212.193 301.322C212.193 299.608 210.792 298.218 209.064 298.218C207.336 298.218 205.935 299.608 205.935 301.322C205.935 303.036 207.336 304.426 209.064 304.426Z" fill="url(#paint5_linear_0_1)"/>
<path fill-rule="evenodd" clip-rule="evenodd" d="M149.614 313.737C149.614 315.451 148.213 316.841 146.485 316.841C144.756 316.841 143.356 315.451 143.356 313.737C143.356 312.023 144.756 310.633 146.485 310.633C148.213 310.633 149.614 312.023 149.614 313.737ZM162.13 313.737C162.13 315.451 160.729 316.841 159.001 316.841C157.273 316.841 155.872 315.451 155.872 313.737C155.872 312.023 157.273 310.633 159.001 310.633C160.729 310.633 162.13 312.023 162.13 313.737ZM171.517 316.841C173.245 316.841 174.646 315.451 174.646 313.737C174.646 312.023 173.245 310.633 171.517 310.633C169.788 310.633 168.388 312.023 168.388 313.737C168.388 315.451 169.788 316.841 171.517 316.841ZM187.162 313.737C187.162 315.451 185.761 316.841 184.033 316.841C182.304 316.841 180.904 315.451 180.904 313.737C180.904 312.023 182.304 310.633 184.033 310.633C185.761 310.633 187.162 312.023 187.162 313.737ZM196.549 316.841C198.277 316.841 199.678 315.451 199.678 313.737C199.678 312.023 198.277 310.633 196.549 310.633C194.82 310.633 193.42 312.023 193.42 313.737C193.42 315.451 194.82 316.841 196.549 316.841ZM212.193 313.737C212.193 315.451 210.792 316.841 209.064 316.841C207.336 316.841 205.935 315.451 205.935 313.737C205.935 312.023 207.336 310.633 209.064 310.633C210.792 310.633 212.193 312.023 212.193 313.737ZM221.58 316.841C223.308 316.841 224.709 315.451 224.709 313.737C224.709 312.023 223.308 310.633 221.58 310.633C219.852 310.633 218.451 312.023 218.451 313.737C218.451 315.451 219.852 316.841 221.58 316.841Z" fill="url(#paint6_linear_0_1)"/>
<path fill-rule="evenodd" clip-rule="evenodd" d="M137.098 326.152C137.098 327.866 135.697 329.256 133.969 329.256C132.241 329.256 130.84 327.866 130.84 326.152C130.84 324.438 132.241 323.048 133.969 323.048C135.697 323.048 137.098 324.438 137.098 326.152ZM124.582 326.152C124.582 327.866 123.181 329.256 121.453 329.256C119.725 329.256 118.324 327.866 118.324 326.152C118.324 324.438 119.725 323.048 121.453 323.048C123.181 323.048 124.582 324.438 124.582 326.152ZM146.485 329.256C148.213 329.256 149.614 327.866 149.614 326.152C149.614 324.438 148.213 323.048 146.485 323.048C144.757 323.048 143.356 324.438 143.356 326.152C143.356 327.866 144.757 329.256 146.485 329.256ZM162.13 326.152C162.13 327.866 160.729 329.256 159.001 329.256C157.273 329.256 155.872 327.866 155.872 326.152C155.872 324.438 157.273 323.048 159.001 323.048C160.729 323.048 162.13 324.438 162.13 326.152ZM171.516 329.256C173.245 329.256 174.645 327.866 174.645 326.152C174.645 324.438 173.245 323.048 171.516 323.048C169.788 323.048 168.387 324.438 168.387 326.152C168.387 327.866 169.788 329.256 171.516 329.256ZM187.161 326.152C187.161 327.866 185.76 329.256 184.032 329.256C182.304 329.256 180.903 327.866 180.903 326.152C180.903 324.438 182.304 323.048 184.032 323.048C185.76 323.048 187.161 324.438 187.161 326.152ZM196.548 329.256C198.276 329.256 199.677 327.866 199.677 326.152C199.677 324.438 198.276 323.048 196.548 323.048C194.82 323.048 193.419 324.438 193.419 326.152C193.419 327.866 194.82 329.256 196.548 329.256Z" fill="url(#paint7_linear_0_1)"/>
</g>
<g opacity="0.5">
<path fill-rule="evenodd" clip-rule="evenodd" d="M602.378 188.745C602.378 190.459 600.977 191.849 599.249 191.849C597.52 191.849 596.12 190.459 596.12 188.745C596.12 187.031 597.52 185.641 599.249 185.641C600.977 185.641 602.378 187.031 602.378 188.745ZM589.862 188.745C589.862 190.459 588.461 191.849 586.733 191.849C585.004 191.849 583.604 190.459 583.604 188.745C583.604 187.031 585.004 185.642 586.733 185.642C588.461 185.642 589.862 187.031 589.862 188.745ZM611.764 191.849C613.492 191.849 614.893 190.459 614.893 188.745C614.893 187.031 613.492 185.641 611.764 185.641C610.036 185.641 608.635 187.031 608.635 188.745C608.635 190.459 610.036 191.849 611.764 191.849ZM627.409 188.745C627.409 190.459 626.008 191.849 624.28 191.849C622.552 191.849 621.151 190.459 621.151 188.745C621.151 187.031 622.552 185.641 624.28 185.641C626.008 185.641 627.409 187.031 627.409 188.745ZM636.796 191.849C638.524 191.849 639.925 190.459 639.925 188.745C639.925 187.031 638.524 185.641 636.796 185.641C635.068 185.641 633.667 187.031 633.667 188.745C633.667 190.459 635.068 191.849 636.796 191.849ZM652.441 188.745C652.441 190.459 651.04 191.849 649.312 191.849C647.584 191.849 646.183 190.459 646.183 188.745C646.183 187.031 647.584 185.641 649.312 185.641C651.04 185.641 652.441 187.031 652.441 188.745ZM661.828 191.849C663.556 191.849 664.957 190.459 664.957 188.745C664.957 187.031 663.556 185.641 661.828 185.641C660.1 185.641 658.699 187.031 658.699 188.745C658.699 190.459 660.1 191.849 661.828 191.849Z" fill="url(#paint8_linear_0_1)"/>
<path fill-rule="evenodd" clip-rule="evenodd" d="M602.378 201.16C602.378 202.874 600.977 204.264 599.249 204.264C597.52 204.264 596.12 202.874 596.12 201.16C596.12 199.446 597.52 198.057 599.249 198.057C600.977 198.057 602.378 199.446 602.378 201.16ZM614.893 201.16C614.893 202.874 613.492 204.264 611.764 204.264C610.036 204.264 608.635 202.874 608.635 201.16C608.635 199.446 610.036 198.057 611.764 198.057C613.492 198.057 614.893 199.446 614.893 201.16ZM624.28 204.264C626.008 204.264 627.409 202.874 627.409 201.16C627.409 199.446 626.008 198.057 624.28 198.057C622.552 198.057 621.151 199.446 621.151 201.16C621.151 202.874 622.552 204.264 624.28 204.264ZM639.925 201.16C639.925 202.874 638.524 204.264 636.796 204.264C635.068 204.264 633.667 202.874 633.667 201.16C633.667 199.446 635.068 198.057 636.796 198.057C638.524 198.057 639.925 199.446 639.925 201.16ZM649.312 204.264C651.04 204.264 652.441 202.874 652.441 201.16C652.441 199.446 651.04 198.057 649.312 198.057C647.584 198.057 646.183 199.446 646.183 201.16C646.183 202.874 647.584 204.264 649.312 204.264ZM664.957 201.16C664.957 202.874 663.556 204.264 661.828 204.264C660.1 204.264 658.699 202.874 658.699 201.16C658.699 199.446 660.1 198.057 661.828 198.057C663.556 198.057 664.957 199.446 664.957 201.16ZM674.344 204.264C676.072 204.264 677.473 202.874 677.473 201.16C677.473 199.446 676.072 198.057 674.344 198.057C672.616 198.057 671.215 199.446 671.215 201.16C671.215 202.874 672.616 204.264 674.344 204.264Z" fill="url(#paint9_linear_0_1)"/>
<path fill-rule="evenodd" clip-rule="evenodd" d="M627.409 213.575C627.409 215.289 626.008 216.679 624.28 216.679C622.552 216.679 621.151 215.289 621.151 213.575C621.151 211.861 622.552 210.472 624.28 210.472C626.008 210.472 627.409 211.861 627.409 213.575ZM614.893 213.575C614.893 215.289 613.492 216.679 611.764 216.679C610.036 216.679 608.635 215.289 608.635 213.575C608.635 211.861 610.036 210.472 611.764 210.472C613.492 210.472 614.893 211.861 614.893 213.575ZM636.796 216.679C638.524 216.679 639.925 215.289 639.925 213.575C639.925 211.861 638.524 210.472 636.796 210.472C635.068 210.472 633.667 211.861 633.667 213.575C633.667 215.289 635.068 216.679 636.796 216.679ZM652.441 213.575C652.441 215.289 651.04 216.679 649.312 216.679C647.584 216.679 646.183 215.289 646.183 213.575C646.183 211.861 647.584 210.472 649.312 210.472C651.04 210.472 652.441 211.861 652.441 213.575ZM661.828 216.679C663.556 216.679 664.957 215.289 664.957 213.575C664.957 211.861 663.556 210.472 661.828 210.472C660.1 210.472 658.699 211.861 658.699 213.575C658.699 215.289 660.1 216.679 661.828 216.679ZM677.473 213.575C677.473 215.289 676.072 216.679 674.344 216.679C672.616 216.679 671.215 215.289 671.215 213.575C671.215 211.861 672.616 210.472 674.344 210.472C676.072 210.472 677.473 211.861 677.473 213.575ZM686.86 216.679C688.588 216.679 689.989 215.289 689.989 213.575C689.989 211.861 688.588 210.472 686.86 210.472C685.132 210.472 683.731 211.861 683.731 213.575C683.731 215.289 685.132 216.679 686.86 216.679Z" fill="url(#paint10_linear_0_1)"/>
<path fill-rule="evenodd" clip-rule="evenodd" d="M602.378 225.99C602.378 227.704 600.977 229.094 599.249 229.094C597.52 229.094 596.12 227.704 596.12 225.99C596.12 224.276 597.52 222.886 599.249 222.886C600.977 222.886 602.378 224.276 602.378 225.99ZM589.862 225.99C589.862 227.704 588.461 229.094 586.733 229.094C585.004 229.094 583.604 227.704 583.604 225.99C583.604 224.276 585.004 222.887 586.733 222.887C588.461 222.887 589.862 224.276 589.862 225.99ZM611.764 229.094C613.492 229.094 614.893 227.704 614.893 225.99C614.893 224.276 613.492 222.886 611.764 222.886C610.036 222.886 608.635 224.276 608.635 225.99C608.635 227.704 610.036 229.094 611.764 229.094ZM627.409 225.99C627.409 227.704 626.008 229.094 624.28 229.094C622.552 229.094 621.151 227.704 621.151 225.99C621.151 224.276 622.552 222.886 624.28 222.886C626.008 222.886 627.409 224.276 627.409 225.99ZM636.796 229.094C638.524 229.094 639.925 227.704 639.925 225.99C639.925 224.276 638.524 222.886 636.796 222.886C635.068 222.886 633.667 224.276 633.667 225.99C633.667 227.704 635.068 229.094 636.796 229.094ZM652.441 225.99C652.441 227.704 651.04 229.094 649.312 229.094C647.584 229.094 646.183 227.704 646.183 225.99C646.183 224.276 647.584 222.886 649.312 222.886C651.04 222.886 652.441 224.276 652.441 225.99ZM661.828 229.094C663.556 229.094 664.957 227.704 664.957 225.99C664.957 224.276 663.556 222.886 661.828 222.886C660.1 222.886 658.699 224.276 658.699 225.99C658.699 227.704 660.1 229.094 661.828 229.094Z" fill="url(#paint11_linear_0_1)"/>
</g>
<g opacity="0.5">
<path fill-rule="evenodd" clip-rule="evenodd" d="M860.459 188.745C860.459 190.459 859.058 191.849 857.33 191.849C855.602 191.849 854.201 190.459 854.201 188.745C854.201 187.031 855.602 185.641 857.33 185.641C859.058 185.641 860.459 187.031 860.459 188.745ZM847.943 188.745C847.943 190.459 846.542 191.849 844.814 191.849C843.086 191.849 841.685 190.459 841.685 188.745C841.685 187.031 843.086 185.642 844.814 185.642C846.542 185.642 847.943 187.031 847.943 188.745ZM869.846 191.849C871.574 191.849 872.975 190.459 872.975 188.745C872.975 187.031 871.574 185.641 869.846 185.641C868.118 185.641 866.717 187.031 866.717 188.745C866.717 190.459 868.118 191.849 869.846 191.849ZM885.491 188.745C885.491 190.459 884.09 191.849 882.362 191.849C880.634 191.849 879.233 190.459 879.233 188.745C879.233 187.031 880.634 185.641 882.362 185.641C884.09 185.641 885.491 187.031 885.491 188.745ZM894.877 191.849C896.606 191.849 898.006 190.459 898.006 188.745C898.006 187.031 896.606 185.641 894.877 185.641C893.149 185.641 891.748 187.031 891.748 188.745C891.748 190.459 893.149 191.849 894.877 191.849ZM910.522 188.745C910.522 190.459 909.121 191.849 907.393 191.849C905.665 191.849 904.264 190.459 904.264 188.745C904.264 187.031 905.665 185.641 907.393 185.641C909.121 185.641 910.522 187.031 910.522 188.745ZM919.909 191.849C921.637 191.849 923.038 190.459 923.038 188.745C923.038 187.031 921.637 185.641 919.909 185.641C918.181 185.641 916.78 187.031 916.78 188.745C916.78 190.459 918.181 191.849 919.909 191.849Z" fill="url(#paint12_linear_0_1)"/>
<path fill-rule="evenodd" clip-rule="evenodd" d="M860.459 201.16C860.459 202.874 859.058 204.264 857.33 204.264C855.602 204.264 854.201 202.874 854.201 201.16C854.201 199.446 855.602 198.057 857.33 198.057C859.058 198.057 860.459 199.446 860.459 201.16ZM872.975 201.16C872.975 202.874 871.574 204.264 869.846 204.264C868.118 204.264 866.717 202.874 866.717 201.16C866.717 199.446 868.118 198.057 869.846 198.057C871.574 198.057 872.975 199.446 872.975 201.16ZM882.362 204.264C884.09 204.264 885.491 202.874 885.491 201.16C885.491 199.446 884.09 198.057 882.362 198.057C880.634 198.057 879.233 199.446 879.233 201.16C879.233 202.874 880.634 204.264 882.362 204.264ZM898.006 201.16C898.006 202.874 896.606 204.264 894.877 204.264C893.149 204.264 891.748 202.874 891.748 201.16C891.748 199.446 893.149 198.057 894.877 198.057C896.606 198.057 898.006 199.446 898.006 201.16ZM907.393 204.264C909.121 204.264 910.522 202.874 910.522 201.16C910.522 199.446 909.121 198.057 907.393 198.057C905.665 198.057 904.264 199.446 904.264 201.16C904.264 202.874 905.665 204.264 907.393 204.264ZM923.038 201.16C923.038 202.874 921.637 204.264 919.909 204.264C918.181 204.264 916.78 202.874 916.78 201.16C916.78 199.446 918.181 198.057 919.909 198.057C921.637 198.057 923.038 199.446 923.038 201.16ZM932.425 204.264C934.153 204.264 935.554 202.874 935.554 201.16C935.554 199.446 934.153 198.057 932.425 198.057C930.697 198.057 929.296 199.446 929.296 201.16C929.296 202.874 930.697 204.264 932.425 204.264Z" fill="url(#paint13_linear_0_1)"/>
<path fill-rule="evenodd" clip-rule="evenodd" d="M885.491 213.575C885.491 215.289 884.09 216.679 882.362 216.679C880.634 216.679 879.233 215.289 879.233 213.575C879.233 211.861 880.634 210.472 882.362 210.472C884.09 210.472 885.491 211.861 885.491 213.575ZM872.975 213.575C872.975 215.289 871.574 216.679 869.846 216.679C868.118 216.679 866.717 215.289 866.717 213.575C866.717 211.861 868.118 210.472 869.846 210.472C871.574 210.472 872.975 211.861 872.975 213.575ZM894.878 216.679C896.606 216.679 898.007 215.289 898.007 213.575C898.007 211.861 896.606 210.472 894.878 210.472C893.15 210.472 891.749 211.861 891.749 213.575C891.749 215.289 893.15 216.679 894.878 216.679ZM910.523 213.575C910.523 215.289 909.122 216.679 907.394 216.679C905.666 216.679 904.265 215.289 904.265 213.575C904.265 211.861 905.666 210.472 907.394 210.472C909.122 210.472 910.523 211.861 910.523 213.575ZM919.91 216.679C921.638 216.679 923.039 215.289 923.039 213.575C923.039 211.861 921.638 210.472 919.91 210.472C918.181 210.472 916.781 211.861 916.781 213.575C916.781 215.289 918.181 216.679 919.91 216.679ZM935.554 213.575C935.554 215.289 934.153 216.679 932.425 216.679C930.697 216.679 929.296 215.289 929.296 213.575C929.296 211.861 930.697 210.472 932.425 210.472C934.153 210.472 935.554 211.861 935.554 213.575ZM944.941 216.679C946.669 216.679 948.07 215.289 948.07 213.575C948.07 211.861 946.669 210.472 944.941 210.472C943.213 210.472 941.812 211.861 941.812 213.575C941.812 215.289 943.213 216.679 944.941 216.679Z" fill="url(#paint14_linear_0_1)"/>
<path fill-rule="evenodd" clip-rule="evenodd" d="M860.459 225.99C860.459 227.704 859.058 229.094 857.33 229.094C855.602 229.094 854.201 227.704 854.201 225.99C854.201 224.276 855.602 222.886 857.33 222.886C859.058 222.886 860.459 224.276 860.459 225.99ZM847.943 225.99C847.943 227.704 846.542 229.094 844.814 229.094C843.086 229.094 841.685 227.704 841.685 225.99C841.685 224.276 843.086 222.887 844.814 222.887C846.542 222.887 847.943 224.276 847.943 225.99ZM869.846 229.094C871.574 229.094 872.975 227.704 872.975 225.99C872.975 224.276 871.574 222.886 869.846 222.886C868.118 222.886 866.717 224.276 866.717 225.99C866.717 227.704 868.118 229.094 869.846 229.094ZM885.491 225.99C885.491 227.704 884.09 229.094 882.362 229.094C880.634 229.094 879.233 227.704 879.233 225.99C879.233 224.276 880.634 222.886 882.362 222.886C884.09 222.886 885.491 224.276 885.491 225.99ZM894.877 229.094C896.606 229.094 898.006 227.704 898.006 225.99C898.006 224.276 896.606 222.886 894.877 222.886C893.149 222.886 891.748 224.276 891.748 225.99C891.748 227.704 893.149 229.094 894.877 229.094ZM910.522 225.99C910.522 227.704 909.121 229.094 907.393 229.094C905.665 229.094 904.264 227.704 904.264 225.99C904.264 224.276 905.665 222.886 907.393 222.886C909.121 222.886 910.522 224.276 910.522 225.99ZM919.909 229.094C921.637 229.094 923.038 227.704 923.038 225.99C923.038 224.276 921.637 222.886 919.909 222.886C918.181 222.886 916.78 224.276 916.78 225.99C916.78 227.704 918.181 229.094 919.909 229.094Z" fill="url(#paint15_linear_0_1)"/>
</g>
<g opacity="0.5">
<path fill-rule="evenodd" clip-rule="evenodd" d="M384.203 101.104C384.203 102.818 382.802 104.207 381.074 104.207C379.346 104.207 377.945 102.818 377.945 101.104C377.945 99.3895 379.346 97.9999 381.074 97.9999C382.802 97.9999 384.203 99.3895 384.203 101.104ZM396.719 101.104C396.719 102.818 395.318 104.207 393.59 104.207C391.862 104.207 390.461 102.818 390.461 101.104C390.461 99.3896 391.862 98 393.59 98C395.318 98 396.719 99.3896 396.719 101.104ZM406.106 104.207C407.834 104.207 409.235 102.818 409.235 101.104C409.235 99.3896 407.834 98 406.106 98C404.378 98 402.977 99.3896 402.977 101.104C402.977 102.818 404.378 104.207 406.106 104.207ZM421.751 101.104C421.751 102.818 420.35 104.207 418.622 104.207C416.894 104.207 415.493 102.818 415.493 101.104C415.493 99.3896 416.894 98 418.622 98C420.35 98 421.751 99.3896 421.751 101.104ZM431.138 104.207C432.866 104.207 434.267 102.818 434.267 101.104C434.267 99.3896 432.866 98 431.138 98C429.41 98 428.009 99.3896 428.009 101.104C428.009 102.818 429.41 104.207 431.138 104.207ZM446.783 101.104C446.783 102.818 445.382 104.207 443.654 104.207C441.926 104.207 440.525 102.818 440.525 101.104C440.525 99.3896 441.926 98 443.654 98C445.382 98 446.783 99.3896 446.783 101.104ZM456.17 104.207C457.898 104.207 459.299 102.818 459.299 101.104C459.299 99.3896 457.898 98 456.17 98C454.442 98 453.041 99.3896 453.041 101.104C453.041 102.818 454.442 104.207 456.17 104.207Z" fill="url(#paint16_linear_0_1)"/>
<path fill-rule="evenodd" clip-rule="evenodd" d="M396.719 113.519C396.719 115.233 395.318 116.622 393.59 116.622C391.862 116.622 390.461 115.233 390.461 113.519C390.461 111.805 391.862 110.415 393.59 110.415C395.318 110.415 396.719 111.805 396.719 113.519ZM409.235 113.519C409.235 115.233 407.834 116.622 406.106 116.622C404.378 116.622 402.977 115.233 402.977 113.519C402.977 111.805 404.378 110.415 406.106 110.415C407.834 110.415 409.235 111.805 409.235 113.519ZM418.622 116.622C420.35 116.622 421.751 115.233 421.751 113.519C421.751 111.805 420.35 110.415 418.622 110.415C416.894 110.415 415.493 111.805 415.493 113.519C415.493 115.233 416.894 116.622 418.622 116.622ZM434.267 113.519C434.267 115.233 432.866 116.622 431.138 116.622C429.41 116.622 428.009 115.233 428.009 113.519C428.009 111.805 429.41 110.415 431.138 110.415C432.866 110.415 434.267 111.805 434.267 113.519ZM443.654 116.622C445.382 116.622 446.783 115.233 446.783 113.519C446.783 111.805 445.382 110.415 443.654 110.415C441.926 110.415 440.525 111.805 440.525 113.519C440.525 115.233 441.926 116.622 443.654 116.622ZM459.299 113.519C459.299 115.233 457.898 116.622 456.17 116.622C454.442 116.622 453.041 115.233 453.041 113.519C453.041 111.805 454.442 110.415 456.17 110.415C457.898 110.415 459.299 111.805 459.299 113.519ZM468.686 116.622C470.414 116.622 471.815 115.233 471.815 113.519C471.815 111.805 470.414 110.415 468.686 110.415C466.958 110.415 465.557 111.805 465.557 113.519C465.557 115.233 466.958 116.622 468.686 116.622Z" fill="url(#paint17_linear_0_1)"/>
<path fill-rule="evenodd" clip-rule="evenodd" d="M409.235 125.934C409.235 127.648 407.834 129.037 406.106 129.037C404.378 129.037 402.977 127.648 402.977 125.934C402.977 124.22 404.378 122.83 406.106 122.83C407.834 122.83 409.235 124.22 409.235 125.934ZM421.751 125.934C421.751 127.648 420.35 129.038 418.622 129.038C416.894 129.038 415.493 127.648 415.493 125.934C415.493 124.22 416.894 122.83 418.622 122.83C420.35 122.83 421.751 124.22 421.751 125.934ZM431.138 129.038C432.866 129.038 434.267 127.648 434.267 125.934C434.267 124.22 432.866 122.83 431.138 122.83C429.41 122.83 428.009 124.22 428.009 125.934C428.009 127.648 429.41 129.038 431.138 129.038ZM446.783 125.934C446.783 127.648 445.382 129.038 443.654 129.038C441.926 129.038 440.525 127.648 440.525 125.934C440.525 124.22 441.926 122.83 443.654 122.83C445.382 122.83 446.783 124.22 446.783 125.934ZM456.17 129.038C457.898 129.038 459.299 127.648 459.299 125.934C459.299 124.22 457.898 122.83 456.17 122.83C454.442 122.83 453.041 124.22 453.041 125.934C453.041 127.648 454.442 129.038 456.17 129.038ZM471.815 125.934C471.815 127.648 470.414 129.038 468.686 129.038C466.958 129.038 465.557 127.648 465.557 125.934C465.557 124.22 466.958 122.83 468.686 122.83C470.414 122.83 471.815 124.22 471.815 125.934ZM481.202 129.038C482.93 129.038 484.331 127.648 484.331 125.934C484.331 124.22 482.93 122.83 481.202 122.83C479.473 122.83 478.073 124.22 478.073 125.934C478.073 127.648 479.473 129.038 481.202 129.038Z" fill="url(#paint18_linear_0_1)"/>
<path fill-rule="evenodd" clip-rule="evenodd" d="M396.719 138.348C396.719 140.063 395.318 141.452 393.59 141.452C391.862 141.452 390.461 140.063 390.461 138.348C390.461 136.634 391.862 135.245 393.59 135.245C395.318 135.245 396.719 136.634 396.719 138.348ZM384.203 138.349C384.203 140.063 382.802 141.452 381.074 141.452C379.346 141.452 377.945 140.063 377.945 138.349C377.945 136.634 379.346 135.245 381.074 135.245C382.802 135.245 384.203 136.634 384.203 138.349ZM406.106 141.452C407.834 141.452 409.235 140.063 409.235 138.348C409.235 136.634 407.834 135.245 406.106 135.245C404.378 135.245 402.977 136.634 402.977 138.348C402.977 140.063 404.378 141.452 406.106 141.452ZM421.751 138.348C421.751 140.063 420.35 141.452 418.622 141.452C416.894 141.452 415.493 140.063 415.493 138.348C415.493 136.634 416.894 135.245 418.622 135.245C420.35 135.245 421.751 136.634 421.751 138.348ZM431.138 141.452C432.866 141.452 434.267 140.063 434.267 138.348C434.267 136.634 432.866 135.245 431.138 135.245C429.41 135.245 428.009 136.634 428.009 138.348C428.009 140.063 429.41 141.452 431.138 141.452ZM446.783 138.348C446.783 140.063 445.382 141.452 443.654 141.452C441.926 141.452 440.525 140.063 440.525 138.348C440.525 136.634 441.926 135.245 443.654 135.245C445.382 135.245 446.783 136.634 446.783 138.348ZM456.17 141.452C457.898 141.452 459.299 140.063 459.299 138.348C459.299 136.634 457.898 135.245 456.17 135.245C454.442 135.245 453.041 136.634 453.041 138.348C453.041 140.063 454.442 141.452 456.17 141.452Z" fill="url(#paint19_linear_0_1)"/>
</g>
<g opacity="0.5">
<path fill-rule="evenodd" clip-rule="evenodd" d="M642.284 101.104C642.284 102.818 640.883 104.207 639.155 104.207C637.427 104.207 636.026 102.818 636.026 101.104C636.026 99.3895 637.427 97.9999 639.155 97.9999C640.883 97.9999 642.284 99.3895 642.284 101.104ZM654.8 101.104C654.8 102.818 653.399 104.207 651.671 104.207C649.943 104.207 648.542 102.818 648.542 101.104C648.542 99.3896 649.943 98 651.671 98C653.399 98 654.8 99.3896 654.8 101.104ZM664.187 104.207C665.915 104.207 667.316 102.818 667.316 101.104C667.316 99.3896 665.915 98 664.187 98C662.459 98 661.058 99.3896 661.058 101.104C661.058 102.818 662.459 104.207 664.187 104.207ZM679.832 101.104C679.832 102.818 678.431 104.207 676.703 104.207C674.975 104.207 673.574 102.818 673.574 101.104C673.574 99.3896 674.975 98 676.703 98C678.431 98 679.832 99.3896 679.832 101.104ZM689.219 104.207C690.947 104.207 692.348 102.818 692.348 101.104C692.348 99.3896 690.947 98 689.219 98C687.491 98 686.09 99.3896 686.09 101.104C686.09 102.818 687.491 104.207 689.219 104.207ZM704.864 101.104C704.864 102.818 703.463 104.207 701.735 104.207C700.007 104.207 698.606 102.818 698.606 101.104C698.606 99.3896 700.007 98 701.735 98C703.463 98 704.864 99.3896 704.864 101.104ZM714.251 104.207C715.979 104.207 717.38 102.818 717.38 101.104C717.38 99.3896 715.979 98 714.251 98C712.523 98 711.122 99.3896 711.122 101.104C711.122 102.818 712.523 104.207 714.251 104.207Z" fill="url(#paint20_linear_0_1)"/>
<path fill-rule="evenodd" clip-rule="evenodd" d="M654.8 113.519C654.8 115.233 653.399 116.622 651.671 116.622C649.943 116.622 648.542 115.233 648.542 113.519C648.542 111.805 649.943 110.415 651.671 110.415C653.399 110.415 654.8 111.805 654.8 113.519ZM667.316 113.519C667.316 115.233 665.915 116.622 664.187 116.622C662.459 116.622 661.058 115.233 661.058 113.519C661.058 111.805 662.459 110.415 664.187 110.415C665.915 110.415 667.316 111.805 667.316 113.519ZM676.703 116.622C678.431 116.622 679.832 115.233 679.832 113.519C679.832 111.805 678.431 110.415 676.703 110.415C674.975 110.415 673.574 111.805 673.574 113.519C673.574 115.233 674.975 116.622 676.703 116.622ZM692.348 113.519C692.348 115.233 690.947 116.622 689.219 116.622C687.491 116.622 686.09 115.233 686.09 113.519C686.09 111.805 687.491 110.415 689.219 110.415C690.947 110.415 692.348 111.805 692.348 113.519ZM701.735 116.622C703.463 116.622 704.864 115.233 704.864 113.519C704.864 111.805 703.463 110.415 701.735 110.415C700.007 110.415 698.606 111.805 698.606 113.519C698.606 115.233 700.007 116.622 701.735 116.622ZM717.38 113.519C717.38 115.233 715.979 116.622 714.251 116.622C712.523 116.622 711.122 115.233 711.122 113.519C711.122 111.805 712.523 110.415 714.251 110.415C715.979 110.415 717.38 111.805 717.38 113.519ZM726.767 116.622C728.495 116.622 729.896 115.233 729.896 113.519C729.896 111.805 728.495 110.415 726.767 110.415C725.039 110.415 723.638 111.805 723.638 113.519C723.638 115.233 725.039 116.622 726.767 116.622Z" fill="url(#paint21_linear_0_1)"/>
<path fill-rule="evenodd" clip-rule="evenodd" d="M667.316 125.934C667.316 127.648 665.915 129.037 664.187 129.037C662.459 129.037 661.058 127.648 661.058 125.934C661.058 124.22 662.459 122.83 664.187 122.83C665.915 122.83 667.316 124.22 667.316 125.934ZM679.832 125.934C679.832 127.648 678.431 129.038 676.703 129.038C674.975 129.038 673.574 127.648 673.574 125.934C673.574 124.22 674.975 122.83 676.703 122.83C678.431 122.83 679.832 124.22 679.832 125.934ZM689.219 129.038C690.947 129.038 692.348 127.648 692.348 125.934C692.348 124.22 690.947 122.83 689.219 122.83C687.491 122.83 686.09 124.22 686.09 125.934C686.09 127.648 687.491 129.038 689.219 129.038ZM704.864 125.934C704.864 127.648 703.463 129.038 701.735 129.038C700.007 129.038 698.606 127.648 698.606 125.934C698.606 124.22 700.007 122.83 701.735 122.83C703.463 122.83 704.864 124.22 704.864 125.934ZM714.251 129.038C715.979 129.038 717.38 127.648 717.38 125.934C717.38 124.22 715.979 122.83 714.251 122.83C712.523 122.83 711.122 124.22 711.122 125.934C711.122 127.648 712.523 129.038 714.251 129.038ZM729.896 125.934C729.896 127.648 728.495 129.038 726.767 129.038C725.039 129.038 723.638 127.648 723.638 125.934C723.638 124.22 725.039 122.83 726.767 122.83C728.495 122.83 729.896 124.22 729.896 125.934ZM739.283 129.038C741.011 129.038 742.412 127.648 742.412 125.934C742.412 124.22 741.011 122.83 739.283 122.83C737.555 122.83 736.154 124.22 736.154 125.934C736.154 127.648 737.555 129.038 739.283 129.038Z" fill="url(#paint22_linear_0_1)"/>
<path fill-rule="evenodd" clip-rule="evenodd" d="M654.8 138.348C654.8 140.063 653.399 141.452 651.671 141.452C649.943 141.452 648.542 140.063 648.542 138.348C648.542 136.634 649.943 135.245 651.671 135.245C653.399 135.245 654.8 136.634 654.8 138.348ZM642.284 138.349C642.284 140.063 640.883 141.452 639.155 141.452C637.427 141.452 636.026 140.063 636.026 138.349C636.026 136.634 637.427 135.245 639.155 135.245C640.883 135.245 642.284 136.634 642.284 138.349ZM664.187 141.452C665.915 141.452 667.316 140.063 667.316 138.348C667.316 136.634 665.915 135.245 664.187 135.245C662.459 135.245 661.058 136.634 661.058 138.348C661.058 140.063 662.459 141.452 664.187 141.452ZM679.832 138.348C679.832 140.063 678.431 141.452 676.703 141.452C674.975 141.452 673.574 140.063 673.574 138.348C673.574 136.634 674.975 135.245 676.703 135.245C678.431 135.245 679.832 136.634 679.832 138.348ZM689.219 141.452C690.947 141.452 692.348 140.063 692.348 138.348C692.348 136.634 690.947 135.245 689.219 135.245C687.491 135.245 686.09 136.634 686.09 138.348C686.09 140.063 687.491 141.452 689.219 141.452ZM704.864 138.348C704.864 140.063 703.463 141.452 701.735 141.452C700.007 141.452 698.606 140.063 698.606 138.348C698.606 136.634 700.007 135.245 701.735 135.245C703.463 135.245 704.864 136.634 704.864 138.348ZM714.251 141.452C715.979 141.452 717.38 140.063 717.38 138.348C717.38 136.634 715.979 135.245 714.251 135.245C712.523 135.245 711.122 136.634 711.122 138.348C711.122 140.063 712.523 141.452 714.251 141.452Z" fill="url(#paint23_linear_0_1)"/>
</g>
<g opacity="0.5">
<path fill-rule="evenodd" clip-rule="evenodd" d="M25.7271 188.745C25.7271 190.459 24.3262 191.849 22.5981 191.849C20.87 191.849 19.4691 190.459 19.4691 188.745C19.4691 187.031 20.87 185.641 22.5981 185.641C24.3262 185.641 25.7271 187.031 25.7271 188.745ZM13.2111 188.745C13.2111 190.459 11.8102 191.849 10.0821 191.849C8.35402 191.849 6.95312 190.459 6.95312 188.745C6.95312 187.031 8.35402 185.642 10.0821 185.642C11.8102 185.642 13.2111 187.031 13.2111 188.745ZM35.114 191.849C36.8421 191.849 38.243 190.459 38.243 188.745C38.243 187.031 36.8421 185.641 35.114 185.641C33.386 185.641 31.9851 187.031 31.9851 188.745C31.9851 190.459 33.386 191.849 35.114 191.849ZM50.759 188.745C50.759 190.459 49.3581 191.849 47.63 191.849C45.9019 191.849 44.501 190.459 44.501 188.745C44.501 187.031 45.9019 185.641 47.63 185.641C49.3581 185.641 50.759 187.031 50.759 188.745ZM60.1458 191.849C61.8739 191.849 63.2748 190.459 63.2748 188.745C63.2748 187.031 61.8739 185.641 60.1458 185.641C58.4177 185.641 57.0168 187.031 57.0168 188.745C57.0168 190.459 58.4177 191.849 60.1458 191.849ZM75.7907 188.745C75.7907 190.459 74.3899 191.849 72.6618 191.849C70.9337 191.849 69.5328 190.459 69.5328 188.745C69.5328 187.031 70.9337 185.641 72.6618 185.641C74.3899 185.641 75.7907 187.031 75.7907 188.745ZM85.1777 191.849C86.9058 191.849 88.3067 190.459 88.3067 188.745C88.3067 187.031 86.9058 185.641 85.1777 185.641C83.4496 185.641 82.0487 187.031 82.0487 188.745C82.0487 190.459 83.4496 191.849 85.1777 191.849Z" fill="url(#paint24_linear_0_1)"/>
<path fill-rule="evenodd" clip-rule="evenodd" d="M25.7271 201.16C25.7271 202.874 24.3262 204.264 22.5981 204.264C20.87 204.264 19.4691 202.874 19.4691 201.16C19.4691 199.446 20.87 198.057 22.5981 198.057C24.3262 198.057 25.7271 199.446 25.7271 201.16ZM38.243 201.16C38.243 202.874 36.8421 204.264 35.114 204.264C33.3859 204.264 31.985 202.874 31.985 201.16C31.985 199.446 33.3859 198.057 35.114 198.057C36.8421 198.057 38.243 199.446 38.243 201.16ZM47.63 204.264C49.3581 204.264 50.759 202.874 50.759 201.16C50.759 199.446 49.3581 198.057 47.63 198.057C45.9019 198.057 44.501 199.446 44.501 201.16C44.501 202.874 45.9019 204.264 47.63 204.264ZM63.2748 201.16C63.2748 202.874 61.8739 204.264 60.1458 204.264C58.4177 204.264 57.0168 202.874 57.0168 201.16C57.0168 199.446 58.4177 198.057 60.1458 198.057C61.8739 198.057 63.2748 199.446 63.2748 201.16ZM72.6617 204.264C74.3898 204.264 75.7907 202.874 75.7907 201.16C75.7907 199.446 74.3898 198.057 72.6617 198.057C70.9337 198.057 69.5328 199.446 69.5328 201.16C69.5328 202.874 70.9337 204.264 72.6617 204.264ZM88.3067 201.16C88.3067 202.874 86.9058 204.264 85.1777 204.264C83.4496 204.264 82.0487 202.874 82.0487 201.16C82.0487 199.446 83.4496 198.057 85.1777 198.057C86.9058 198.057 88.3067 199.446 88.3067 201.16ZM97.6937 204.264C99.4218 204.264 100.823 202.874 100.823 201.16C100.823 199.446 99.4218 198.057 97.6937 198.057C95.9656 198.057 94.5647 199.446 94.5647 201.16C94.5647 202.874 95.9656 204.264 97.6937 204.264Z" fill="url(#paint25_linear_0_1)"/>
<path fill-rule="evenodd" clip-rule="evenodd" d="M50.759 213.575C50.759 215.289 49.3581 216.679 47.63 216.679C45.9019 216.679 44.501 215.289 44.501 213.575C44.501 211.861 45.9019 210.472 47.63 210.472C49.3581 210.472 50.759 211.861 50.759 213.575ZM38.243 213.575C38.243 215.289 36.8421 216.679 35.114 216.679C33.3859 216.679 31.985 215.289 31.985 213.575C31.985 211.861 33.3859 210.472 35.114 210.472C36.8421 210.472 38.243 211.861 38.243 213.575ZM60.1459 216.679C61.874 216.679 63.2749 215.289 63.2749 213.575C63.2749 211.861 61.874 210.472 60.1459 210.472C58.4179 210.472 57.017 211.861 57.017 213.575C57.017 215.289 58.4179 216.679 60.1459 216.679ZM75.7909 213.575C75.7909 215.289 74.39 216.679 72.6619 216.679C70.9338 216.679 69.5329 215.289 69.5329 213.575C69.5329 211.861 70.9338 210.472 72.6619 210.472C74.39 210.472 75.7909 211.861 75.7909 213.575ZM85.1779 216.679C86.906 216.679 88.3069 215.289 88.3069 213.575C88.3069 211.861 86.906 210.472 85.1779 210.472C83.4498 210.472 82.0489 211.861 82.0489 213.575C82.0489 215.289 83.4498 216.679 85.1779 216.679ZM100.823 213.575C100.823 215.289 99.4218 216.679 97.6937 216.679C95.9656 216.679 94.5647 215.289 94.5647 213.575C94.5647 211.861 95.9656 210.472 97.6937 210.472C99.4218 210.472 100.823 211.861 100.823 213.575ZM110.21 216.679C111.938 216.679 113.339 215.289 113.339 213.575C113.339 211.861 111.938 210.472 110.21 210.472C108.482 210.472 107.081 211.861 107.081 213.575C107.081 215.289 108.482 216.679 110.21 216.679Z" fill="url(#paint26_linear_0_1)"/>
<path fill-rule="evenodd" clip-rule="evenodd" d="M25.7271 225.99C25.7271 227.704 24.3262 229.094 22.5981 229.094C20.87 229.094 19.4691 227.704 19.4691 225.99C19.4691 224.276 20.87 222.886 22.5981 222.886C24.3262 222.886 25.7271 224.276 25.7271 225.99ZM13.2111 225.99C13.2111 227.704 11.8102 229.094 10.0821 229.094C8.35402 229.094 6.95312 227.704 6.95312 225.99C6.95312 224.276 8.35402 222.887 10.0821 222.887C11.8102 222.887 13.2111 224.276 13.2111 225.99ZM35.114 229.094C36.8421 229.094 38.243 227.704 38.243 225.99C38.243 224.276 36.8421 222.886 35.114 222.886C33.386 222.886 31.9851 224.276 31.9851 225.99C31.9851 227.704 33.386 229.094 35.114 229.094ZM50.759 225.99C50.759 227.704 49.3581 229.094 47.63 229.094C45.9019 229.094 44.501 227.704 44.501 225.99C44.501 224.276 45.9019 222.886 47.63 222.886C49.3581 222.886 50.759 224.276 50.759 225.99ZM60.1458 229.094C61.8739 229.094 63.2748 227.704 63.2748 225.99C63.2748 224.276 61.8739 222.886 60.1458 222.886C58.4177 222.886 57.0168 224.276 57.0168 225.99C57.0168 227.704 58.4177 229.094 60.1458 229.094ZM75.7907 225.99C75.7907 227.704 74.3899 229.094 72.6618 229.094C70.9337 229.094 69.5328 227.704 69.5328 225.99C69.5328 224.276 70.9337 222.886 72.6618 222.886C74.3899 222.886 75.7907 224.276 75.7907 225.99ZM85.1777 229.094C86.9058 229.094 88.3067 227.704 88.3067 225.99C88.3067 224.276 86.9058 222.886 85.1777 222.886C83.4496 222.886 82.0487 224.276 82.0487 225.99C82.0487 227.704 83.4496 229.094 85.1777 229.094Z" fill="url(#paint27_linear_0_1)"/>
</g>
<g opacity="0.5">
<path fill-rule="evenodd" clip-rule="evenodd" d="M314.052 188.745C314.052 190.459 312.651 191.849 310.923 191.849C309.195 191.849 307.794 190.459 307.794 188.745C307.794 187.031 309.195 185.641 310.923 185.641C312.651 185.641 314.052 187.031 314.052 188.745ZM301.536 188.745C301.536 190.459 300.135 191.849 298.407 191.849C296.679 191.849 295.278 190.459 295.278 188.745C295.278 187.031 296.679 185.642 298.407 185.642C300.135 185.642 301.536 187.031 301.536 188.745ZM323.439 191.849C325.167 191.849 326.568 190.459 326.568 188.745C326.568 187.031 325.167 185.641 323.439 185.641C321.711 185.641 320.31 187.031 320.31 188.745C320.31 190.459 321.711 191.849 323.439 191.849ZM339.084 188.745C339.084 190.459 337.683 191.849 335.955 191.849C334.227 191.849 332.826 190.459 332.826 188.745C332.826 187.031 334.227 185.641 335.955 185.641C337.683 185.641 339.084 187.031 339.084 188.745ZM348.471 191.849C350.199 191.849 351.6 190.459 351.6 188.745C351.6 187.031 350.199 185.641 348.471 185.641C346.743 185.641 345.342 187.031 345.342 188.745C345.342 190.459 346.743 191.849 348.471 191.849ZM364.116 188.745C364.116 190.459 362.715 191.849 360.987 191.849C359.259 191.849 357.858 190.459 357.858 188.745C357.858 187.031 359.259 185.641 360.987 185.641C362.715 185.641 364.116 187.031 364.116 188.745ZM373.503 191.849C375.231 191.849 376.632 190.459 376.632 188.745C376.632 187.031 375.231 185.641 373.503 185.641C371.775 185.641 370.374 187.031 370.374 188.745C370.374 190.459 371.775 191.849 373.503 191.849Z" fill="url(#paint28_linear_0_1)"/>
<path fill-rule="evenodd" clip-rule="evenodd" d="M314.052 201.16C314.052 202.874 312.651 204.264 310.923 204.264C309.195 204.264 307.794 202.874 307.794 201.16C307.794 199.446 309.195 198.057 310.923 198.057C312.651 198.057 314.052 199.446 314.052 201.16ZM326.568 201.16C326.568 202.874 325.167 204.264 323.439 204.264C321.711 204.264 320.31 202.874 320.31 201.16C320.31 199.446 321.711 198.057 323.439 198.057C325.167 198.057 326.568 199.446 326.568 201.16ZM335.955 204.264C337.683 204.264 339.084 202.874 339.084 201.16C339.084 199.446 337.683 198.057 335.955 198.057C334.227 198.057 332.826 199.446 332.826 201.16C332.826 202.874 334.227 204.264 335.955 204.264ZM351.6 201.16C351.6 202.874 350.199 204.264 348.471 204.264C346.743 204.264 345.342 202.874 345.342 201.16C345.342 199.446 346.743 198.057 348.471 198.057C350.199 198.057 351.6 199.446 351.6 201.16ZM360.987 204.264C362.715 204.264 364.116 202.874 364.116 201.16C364.116 199.446 362.715 198.057 360.987 198.057C359.259 198.057 357.858 199.446 357.858 201.16C357.858 202.874 359.259 204.264 360.987 204.264ZM376.632 201.16C376.632 202.874 375.231 204.264 373.503 204.264C371.775 204.264 370.374 202.874 370.374 201.16C370.374 199.446 371.775 198.057 373.503 198.057C375.231 198.057 376.632 199.446 376.632 201.16ZM386.019 204.264C387.747 204.264 389.148 202.874 389.148 201.16C389.148 199.446 387.747 198.057 386.019 198.057C384.291 198.057 382.89 199.446 382.89 201.16C382.89 202.874 384.291 204.264 386.019 204.264Z" fill="url(#paint29_linear_0_1)"/>
<path fill-rule="evenodd" clip-rule="evenodd" d="M339.084 213.575C339.084 215.289 337.683 216.679 335.955 216.679C334.227 216.679 332.826 215.289 332.826 213.575C332.826 211.861 334.227 210.472 335.955 210.472C337.683 210.472 339.084 211.861 339.084 213.575ZM326.568 213.575C326.568 215.289 325.167 216.679 323.439 216.679C321.711 216.679 320.31 215.289 320.31 213.575C320.31 211.861 321.711 210.472 323.439 210.472C325.167 210.472 326.568 211.861 326.568 213.575ZM348.471 216.679C350.199 216.679 351.6 215.289 351.6 213.575C351.6 211.861 350.199 210.472 348.471 210.472C346.743 210.472 345.342 211.861 345.342 213.575C345.342 215.289 346.743 216.679 348.471 216.679ZM364.116 213.575C364.116 215.289 362.715 216.679 360.987 216.679C359.259 216.679 357.858 215.289 357.858 213.575C357.858 211.861 359.259 210.472 360.987 210.472C362.715 210.472 364.116 211.861 364.116 213.575ZM373.503 216.679C375.231 216.679 376.632 215.289 376.632 213.575C376.632 211.861 375.231 210.472 373.503 210.472C371.775 210.472 370.374 211.861 370.374 213.575C370.374 215.289 371.775 216.679 373.503 216.679ZM389.148 213.575C389.148 215.289 387.747 216.679 386.019 216.679C384.291 216.679 382.89 215.289 382.89 213.575C382.89 211.861 384.291 210.472 386.019 210.472C387.747 210.472 389.148 211.861 389.148 213.575ZM398.535 216.679C400.263 216.679 401.664 215.289 401.664 213.575C401.664 211.861 400.263 210.472 398.535 210.472C396.807 210.472 395.406 211.861 395.406 213.575C395.406 215.289 396.807 216.679 398.535 216.679Z" fill="url(#paint30_linear_0_1)"/>
<path fill-rule="evenodd" clip-rule="evenodd" d="M314.052 225.99C314.052 227.704 312.651 229.094 310.923 229.094C309.195 229.094 307.794 227.704 307.794 225.99C307.794 224.276 309.195 222.886 310.923 222.886C312.651 222.886 314.052 224.276 314.052 225.99ZM301.536 225.99C301.536 227.704 300.135 229.094 298.407 229.094C296.679 229.094 295.278 227.704 295.278 225.99C295.278 224.276 296.679 222.887 298.407 222.887C300.135 222.887 301.536 224.276 301.536 225.99ZM323.439 229.094C325.167 229.094 326.568 227.704 326.568 225.99C326.568 224.276 325.167 222.886 323.439 222.886C321.711 222.886 320.31 224.276 320.31 225.99C320.31 227.704 321.711 229.094 323.439 229.094ZM339.084 225.99C339.084 227.704 337.683 229.094 335.955 229.094C334.227 229.094 332.826 227.704 332.826 225.99C332.826 224.276 334.227 222.886 335.955 222.886C337.683 222.886 339.084 224.276 339.084 225.99ZM348.471 229.094C350.199 229.094 351.6 227.704 351.6 225.99C351.6 224.276 350.199 222.886 348.471 222.886C346.743 222.886 345.342 224.276 345.342 225.99C345.342 227.704 346.743 229.094 348.471 229.094ZM364.116 225.99C364.116 227.704 362.715 229.094 360.987 229.094C359.259 229.094 357.858 227.704 357.858 225.99C357.858 224.276 359.259 222.886 360.987 222.886C362.715 222.886 364.116 224.276 364.116 225.99ZM373.503 229.094C375.231 229.094 376.632 227.704 376.632 225.99C376.632 224.276 375.231 222.886 373.503 222.886C371.775 222.886 370.374 224.276 370.374 225.99C370.374 227.704 371.775 229.094 373.503 229.094Z" fill="url(#paint31_linear_0_1)"/>
</g>
<g opacity="0.5">
<path fill-rule="evenodd" clip-rule="evenodd" d="M470.37 288.907C470.37 290.621 468.969 292.011 467.241 292.011C465.513 292.011 464.112 290.621 464.112 288.907C464.112 287.193 465.513 285.803 467.241 285.803C468.969 285.803 470.37 287.193 470.37 288.907ZM482.886 288.907C482.886 290.621 481.485 292.011 479.757 292.011C478.029 292.011 476.628 290.621 476.628 288.907C476.628 287.193 478.029 285.803 479.757 285.803C481.485 285.803 482.886 287.193 482.886 288.907ZM492.273 292.011C494.001 292.011 495.402 290.621 495.402 288.907C495.402 287.193 494.001 285.803 492.273 285.803C490.545 285.803 489.144 287.193 489.144 288.907C489.144 290.621 490.545 292.011 492.273 292.011ZM507.918 288.907C507.918 290.621 506.517 292.011 504.789 292.011C503.061 292.011 501.66 290.621 501.66 288.907C501.66 287.193 503.061 285.803 504.789 285.803C506.517 285.803 507.918 287.193 507.918 288.907ZM517.305 292.011C519.033 292.011 520.434 290.621 520.434 288.907C520.434 287.193 519.033 285.803 517.305 285.803C515.577 285.803 514.176 287.193 514.176 288.907C514.176 290.621 515.577 292.011 517.305 292.011ZM532.95 288.907C532.95 290.621 531.549 292.011 529.821 292.011C528.093 292.011 526.692 290.621 526.692 288.907C526.692 287.193 528.093 285.803 529.821 285.803C531.549 285.803 532.95 287.193 532.95 288.907ZM542.337 292.011C544.065 292.011 545.466 290.621 545.466 288.907C545.466 287.193 544.065 285.803 542.337 285.803C540.609 285.803 539.208 287.193 539.208 288.907C539.208 290.621 540.609 292.011 542.337 292.011Z" fill="url(#paint32_linear_0_1)"/>
<path fill-rule="evenodd" clip-rule="evenodd" d="M495.402 301.322C495.402 303.036 494.001 304.426 492.273 304.426C490.545 304.426 489.144 303.036 489.144 301.322C489.144 299.608 490.545 298.218 492.273 298.218C494.001 298.218 495.402 299.608 495.402 301.322ZM482.886 301.322C482.886 303.037 481.485 304.426 479.757 304.426C478.029 304.426 476.628 303.037 476.628 301.322C476.628 299.608 478.029 298.219 479.757 298.219C481.485 298.219 482.886 299.608 482.886 301.322ZM504.789 304.426C506.517 304.426 507.918 303.036 507.918 301.322C507.918 299.608 506.517 298.218 504.789 298.218C503.061 298.218 501.66 299.608 501.66 301.322C501.66 303.036 503.061 304.426 504.789 304.426ZM520.434 301.322C520.434 303.036 519.033 304.426 517.305 304.426C515.577 304.426 514.176 303.036 514.176 301.322C514.176 299.608 515.577 298.218 517.305 298.218C519.033 298.218 520.434 299.608 520.434 301.322ZM529.821 304.426C531.549 304.426 532.95 303.036 532.95 301.322C532.95 299.608 531.549 298.218 529.821 298.218C528.093 298.218 526.692 299.608 526.692 301.322C526.692 303.036 528.093 304.426 529.821 304.426ZM545.466 301.322C545.466 303.036 544.065 304.426 542.337 304.426C540.609 304.426 539.208 303.036 539.208 301.322C539.208 299.608 540.609 298.218 542.337 298.218C544.065 298.218 545.466 299.608 545.466 301.322ZM554.853 304.426C556.581 304.426 557.982 303.036 557.982 301.322C557.982 299.608 556.581 298.218 554.853 298.218C553.125 298.218 551.724 299.608 551.724 301.322C551.724 303.036 553.125 304.426 554.853 304.426Z" fill="url(#paint33_linear_0_1)"/>
<path fill-rule="evenodd" clip-rule="evenodd" d="M495.402 313.737C495.402 315.451 494.001 316.841 492.273 316.841C490.545 316.841 489.144 315.451 489.144 313.737C489.144 312.023 490.545 310.633 492.273 310.633C494.001 310.633 495.402 312.023 495.402 313.737ZM507.918 313.737C507.918 315.451 506.517 316.841 504.789 316.841C503.061 316.841 501.66 315.451 501.66 313.737C501.66 312.023 503.061 310.633 504.789 310.633C506.517 310.633 507.918 312.023 507.918 313.737ZM517.305 316.841C519.033 316.841 520.434 315.451 520.434 313.737C520.434 312.023 519.033 310.633 517.305 310.633C515.577 310.633 514.176 312.023 514.176 313.737C514.176 315.451 515.577 316.841 517.305 316.841ZM532.95 313.737C532.95 315.451 531.549 316.841 529.821 316.841C528.093 316.841 526.692 315.451 526.692 313.737C526.692 312.023 528.093 310.633 529.821 310.633C531.549 310.633 532.95 312.023 532.95 313.737ZM542.337 316.841C544.065 316.841 545.466 315.451 545.466 313.737C545.466 312.023 544.065 310.633 542.337 310.633C540.609 310.633 539.208 312.023 539.208 313.737C539.208 315.451 540.609 316.841 542.337 316.841ZM557.982 313.737C557.982 315.451 556.581 316.841 554.853 316.841C553.125 316.841 551.724 315.451 551.724 313.737C551.724 312.023 553.125 310.633 554.853 310.633C556.581 310.633 557.982 312.023 557.982 313.737ZM567.369 316.841C569.097 316.841 570.498 315.451 570.498 313.737C570.498 312.023 569.097 310.633 567.369 310.633C565.641 310.633 564.24 312.023 564.24 313.737C564.24 315.451 565.641 316.841 567.369 316.841Z" fill="url(#paint34_linear_0_1)"/>
<path fill-rule="evenodd" clip-rule="evenodd" d="M482.886 326.152C482.886 327.866 481.485 329.256 479.757 329.256C478.029 329.256 476.628 327.866 476.628 326.152C476.628 324.438 478.029 323.048 479.757 323.048C481.485 323.048 482.886 324.438 482.886 326.152ZM470.37 326.152C470.37 327.866 468.969 329.256 467.241 329.256C465.513 329.256 464.112 327.866 464.112 326.152C464.112 324.438 465.513 323.048 467.241 323.048C468.969 323.048 470.37 324.438 470.37 326.152ZM492.273 329.256C494.001 329.256 495.402 327.866 495.402 326.152C495.402 324.438 494.001 323.048 492.273 323.048C490.545 323.048 489.144 324.438 489.144 326.152C489.144 327.866 490.545 329.256 492.273 329.256ZM507.918 326.152C507.918 327.866 506.517 329.256 504.789 329.256C503.061 329.256 501.66 327.866 501.66 326.152C501.66 324.438 503.061 323.048 504.789 323.048C506.517 323.048 507.918 324.438 507.918 326.152ZM517.305 329.256C519.033 329.256 520.434 327.866 520.434 326.152C520.434 324.438 519.033 323.048 517.305 323.048C515.577 323.048 514.176 324.438 514.176 326.152C514.176 327.866 515.577 329.256 517.305 329.256ZM532.95 326.152C532.95 327.866 531.549 329.256 529.821 329.256C528.093 329.256 526.692 327.866 526.692 326.152C526.692 324.438 528.093 323.048 529.821 323.048C531.549 323.048 532.95 324.438 532.95 326.152ZM542.337 329.256C544.065 329.256 545.466 327.866 545.466 326.152C545.466 324.438 544.065 323.048 542.337 323.048C540.609 323.048 539.208 324.438 539.208 326.152C539.208 327.866 540.609 329.256 542.337 329.256Z" fill="url(#paint35_linear_0_1)"/>
</g>
<g opacity="0.5">
<path fill-rule="evenodd" clip-rule="evenodd" d="M728.452 288.907C728.452 290.621 727.051 292.011 725.323 292.011C723.594 292.011 722.194 290.621 722.194 288.907C722.194 287.193 723.594 285.803 725.323 285.803C727.051 285.803 728.452 287.193 728.452 288.907ZM740.968 288.907C740.968 290.621 739.567 292.011 737.839 292.011C736.111 292.011 734.71 290.621 734.71 288.907C734.71 287.193 736.111 285.803 737.839 285.803C739.567 285.803 740.968 287.193 740.968 288.907ZM750.355 292.011C752.083 292.011 753.484 290.621 753.484 288.907C753.484 287.193 752.083 285.803 750.355 285.803C748.626 285.803 747.226 287.193 747.226 288.907C747.226 290.621 748.626 292.011 750.355 292.011ZM766 288.907C766 290.621 764.599 292.011 762.871 292.011C761.142 292.011 759.742 290.621 759.742 288.907C759.742 287.193 761.142 285.803 762.871 285.803C764.599 285.803 766 287.193 766 288.907ZM775.386 292.011C777.114 292.011 778.515 290.621 778.515 288.907C778.515 287.193 777.114 285.803 775.386 285.803C773.658 285.803 772.257 287.193 772.257 288.907C772.257 290.621 773.658 292.011 775.386 292.011ZM791.031 288.907C791.031 290.621 789.63 292.011 787.902 292.011C786.174 292.011 784.773 290.621 784.773 288.907C784.773 287.193 786.174 285.803 787.902 285.803C789.63 285.803 791.031 287.193 791.031 288.907ZM800.418 292.011C802.146 292.011 803.547 290.621 803.547 288.907C803.547 287.193 802.146 285.803 800.418 285.803C798.69 285.803 797.289 287.193 797.289 288.907C797.289 290.621 798.69 292.011 800.418 292.011Z" fill="url(#paint36_linear_0_1)"/>
<path fill-rule="evenodd" clip-rule="evenodd" d="M753.484 301.322C753.484 303.036 752.083 304.426 750.355 304.426C748.626 304.426 747.226 303.036 747.226 301.322C747.226 299.608 748.626 298.218 750.355 298.218C752.083 298.218 753.484 299.608 753.484 301.322ZM740.968 301.322C740.968 303.037 739.567 304.426 737.839 304.426C736.11 304.426 734.71 303.037 734.71 301.322C734.71 299.608 736.11 298.219 737.839 298.219C739.567 298.219 740.968 299.608 740.968 301.322ZM762.871 304.426C764.599 304.426 766 303.036 766 301.322C766 299.608 764.599 298.218 762.871 298.218C761.142 298.218 759.742 299.608 759.742 301.322C759.742 303.036 761.142 304.426 762.871 304.426ZM778.515 301.322C778.515 303.036 777.114 304.426 775.386 304.426C773.658 304.426 772.257 303.036 772.257 301.322C772.257 299.608 773.658 298.218 775.386 298.218C777.114 298.218 778.515 299.608 778.515 301.322ZM787.902 304.426C789.63 304.426 791.031 303.036 791.031 301.322C791.031 299.608 789.63 298.218 787.902 298.218C786.174 298.218 784.773 299.608 784.773 301.322C784.773 303.036 786.174 304.426 787.902 304.426ZM803.547 301.322C803.547 303.036 802.146 304.426 800.418 304.426C798.69 304.426 797.289 303.036 797.289 301.322C797.289 299.608 798.69 298.218 800.418 298.218C802.146 298.218 803.547 299.608 803.547 301.322ZM812.934 304.426C814.662 304.426 816.063 303.036 816.063 301.322C816.063 299.608 814.662 298.218 812.934 298.218C811.206 298.218 809.805 299.608 809.805 301.322C809.805 303.036 811.206 304.426 812.934 304.426Z" fill="url(#paint37_linear_0_1)"/>
<path fill-rule="evenodd" clip-rule="evenodd" d="M753.483 313.737C753.483 315.451 752.083 316.841 750.354 316.841C748.626 316.841 747.226 315.451 747.226 313.737C747.226 312.023 748.626 310.633 750.354 310.633C752.083 310.633 753.483 312.023 753.483 313.737ZM766 313.737C766 315.451 764.599 316.841 762.871 316.841C761.142 316.841 759.742 315.451 759.742 313.737C759.742 312.023 761.142 310.633 762.871 310.633C764.599 310.633 766 312.023 766 313.737ZM775.387 316.841C777.115 316.841 778.515 315.451 778.515 313.737C778.515 312.023 777.115 310.633 775.387 310.633C773.658 310.633 772.258 312.023 772.258 313.737C772.258 315.451 773.658 316.841 775.387 316.841ZM791.031 313.737C791.031 315.451 789.631 316.841 787.902 316.841C786.174 316.841 784.773 315.451 784.773 313.737C784.773 312.023 786.174 310.633 787.902 310.633C789.631 310.633 791.031 312.023 791.031 313.737ZM800.418 316.841C802.147 316.841 803.547 315.451 803.547 313.737C803.547 312.023 802.147 310.633 800.418 310.633C798.69 310.633 797.289 312.023 797.289 313.737C797.289 315.451 798.69 316.841 800.418 316.841ZM816.063 313.737C816.063 315.451 814.662 316.841 812.934 316.841C811.206 316.841 809.805 315.451 809.805 313.737C809.805 312.023 811.206 310.633 812.934 310.633C814.662 310.633 816.063 312.023 816.063 313.737ZM825.45 316.841C827.178 316.841 828.579 315.451 828.579 313.737C828.579 312.023 827.178 310.633 825.45 310.633C823.722 310.633 822.321 312.023 822.321 313.737C822.321 315.451 823.722 316.841 825.45 316.841Z" fill="url(#paint38_linear_0_1)"/>
<path fill-rule="evenodd" clip-rule="evenodd" d="M740.968 326.152C740.968 327.866 739.567 329.256 737.839 329.256C736.111 329.256 734.71 327.866 734.71 326.152C734.71 324.438 736.111 323.048 737.839 323.048C739.567 323.048 740.968 324.438 740.968 326.152ZM728.452 326.152C728.452 327.866 727.051 329.256 725.323 329.256C723.594 329.256 722.194 327.866 722.194 326.152C722.194 324.438 723.594 323.048 725.323 323.048C727.051 323.048 728.452 324.438 728.452 326.152ZM750.355 329.256C752.083 329.256 753.484 327.866 753.484 326.152C753.484 324.438 752.083 323.048 750.355 323.048C748.626 323.048 747.226 324.438 747.226 326.152C747.226 327.866 748.626 329.256 750.355 329.256ZM766 326.152C766 327.866 764.599 329.256 762.871 329.256C761.142 329.256 759.742 327.866 759.742 326.152C759.742 324.438 761.142 323.048 762.871 323.048C764.599 323.048 766 324.438 766 326.152ZM775.386 329.256C777.114 329.256 778.515 327.866 778.515 326.152C778.515 324.438 777.114 323.048 775.386 323.048C773.658 323.048 772.257 324.438 772.257 326.152C772.257 327.866 773.658 329.256 775.386 329.256ZM791.031 326.152C791.031 327.866 789.63 329.256 787.902 329.256C786.174 329.256 784.773 327.866 784.773 326.152C784.773 324.438 786.174 323.048 787.902 323.048C789.63 323.048 791.031 324.438 791.031 326.152ZM800.418 329.256C802.146 329.256 803.547 327.866 803.547 326.152C803.547 324.438 802.146 323.048 800.418 323.048C798.69 323.048 797.289 324.438 797.289 326.152C797.289 327.866 798.69 329.256 800.418 329.256Z" fill="url(#paint39_linear_0_1)"/>
</g>
<path d="M374.949 379.091C393.415 379.091 408.385 364.248 408.385 345.939C408.385 327.63 393.415 312.787 374.949 312.787C356.484 312.787 341.514 327.63 341.514 345.939C341.514 364.248 356.484 379.091 374.949 379.091Z" fill="url(#paint40_linear_0_1)"/>
<path d="M371.368 0.00933252C319.113 0.375314 276.328 42.4796 275.586 94.2876C275.579 94.7659 275.576 98.1292 275.576 102.528C275.576 108.978 278.16 115.164 282.76 119.724C287.36 124.285 293.598 126.848 300.103 126.849H300.103C303.327 126.848 306.52 126.217 309.499 124.993C312.477 123.768 315.184 121.973 317.462 119.711C319.741 117.449 321.548 114.764 322.78 111.809C324.012 108.855 324.645 105.688 324.642 102.491C324.639 99.4985 324.638 97.4274 324.638 97.3002C324.636 89.2934 326.737 81.424 330.733 74.4662C334.729 67.5084 340.483 61.7018 347.428 57.6177C354.374 53.5335 362.272 51.3125 370.347 51.1731C378.421 51.0337 386.392 52.9806 393.477 56.8225C400.562 60.6643 406.516 66.2687 410.754 73.0843C414.992 79.9 417.368 87.6921 417.647 95.6941C417.927 103.696 416.101 111.633 412.348 118.723C408.596 125.813 403.047 131.812 396.247 136.131L396.256 136.141C396.256 136.141 361.346 158.424 350.704 188.993L350.713 188.995C348.841 195.258 347.893 201.755 347.897 208.287C347.897 210.972 348.056 234.463 348.364 253.53C348.472 260.109 351.184 266.382 355.914 270.996C360.645 275.61 367.015 278.195 373.651 278.194H373.651C376.986 278.194 380.287 277.54 383.366 276.27C386.444 275 389.239 273.139 391.589 270.794C393.94 268.449 395.799 265.666 397.061 262.606C398.323 259.545 398.962 256.268 398.941 252.962C398.834 235.5 398.777 215.168 398.777 213.692C398.777 194.922 417.039 176.22 432.04 164.024C449.314 149.98 461.745 130.841 466.737 109.252C467.842 104.807 468.451 100.255 468.554 95.6787C468.554 83.0567 466.035 70.5595 461.142 58.9071C456.25 47.2547 449.08 36.6773 440.046 27.7846C431.012 18.8918 420.293 11.8593 408.506 7.09236C396.719 2.32539 384.097 -0.0818479 371.368 0.00933252V0.00933252Z" fill="url(#paint41_linear_0_1)"/>
<path d="M518.179 147.746C530.222 147.746 539.985 138.066 539.985 126.125C539.985 114.184 530.222 104.504 518.179 104.504C506.137 104.504 496.374 114.184 496.374 126.125C496.374 138.066 506.137 147.746 518.179 147.746Z" fill="#0F0F0F"/>
<path d="M477.885 370.535H468.975L464.735 336.455H477.887L477.885 370.535Z" fill="#FFB8B8"/>
<path d="M462.609 368.011H479.795V378.74H451.789C451.789 377.331 452.069 375.935 452.613 374.634C453.156 373.332 453.953 372.149 454.958 371.153C455.963 370.157 457.156 369.366 458.469 368.827C459.781 368.288 461.189 368.011 462.609 368.011Z" fill="#B4C7ED"/>
<path d="M546.936 370.535H538.025L533.786 336.455H546.938L546.936 370.535Z" fill="#FFB8B8"/>
<path d="M531.66 368.011H548.846V378.74H520.84C520.84 377.331 521.119 375.935 521.663 374.634C522.207 373.332 523.004 372.149 524.009 371.153C525.014 370.157 526.206 369.366 527.519 368.827C528.832 368.288 530.239 368.011 531.66 368.011V368.011Z" fill="#B4C7ED"/>
<path d="M514.866 147.872C524.725 147.872 532.718 139.947 532.718 130.171C532.718 120.395 524.725 112.47 514.866 112.47C505.006 112.47 497.014 120.395 497.014 130.171C497.014 139.947 505.006 147.872 514.866 147.872Z" fill="#FFB8B8"/>
<path d="M525.506 204.976L533.494 186.778C535.434 182.509 535.99 177.749 535.085 173.153C534.18 168.558 531.859 164.354 528.442 161.122C527.741 160.434 526.995 159.791 526.211 159.197C522.27 156.14 517.412 154.474 512.408 154.463C509.044 154.475 505.721 155.208 502.668 156.61C502.407 156.726 502.152 156.848 501.891 156.971C501.389 157.208 500.895 157.468 500.415 157.734C497.286 159.516 494.623 162.002 492.641 164.991C490.659 167.98 489.413 171.39 489.004 174.945L485.478 204.233C484.592 206.532 452.959 289.556 464.022 352.941C464.14 353.618 464.473 354.24 464.972 354.716C465.472 355.191 466.112 355.496 466.798 355.586L478.014 357.099C478.833 357.21 479.664 357.01 480.339 356.538C481.015 356.066 481.485 355.357 481.655 354.555L500.473 265.615C500.591 265.062 500.891 264.564 501.327 264.201C501.764 263.838 502.31 263.63 502.879 263.611C503.448 263.592 504.007 263.763 504.467 264.096C504.927 264.429 505.261 264.906 505.416 265.449L532.004 358.98C532.193 359.66 532.602 360.259 533.168 360.686C533.734 361.113 534.426 361.344 535.137 361.344C535.349 361.343 535.56 361.324 535.769 361.287L549.47 358.67C550.267 358.523 550.979 358.086 551.467 357.444C551.955 356.803 552.184 356.004 552.109 355.204C550.095 332.942 539.396 221.429 525.506 204.976Z" fill="#4D5B76"/>
<path d="M445.488 144.902C445.364 145.954 445.474 147.021 445.811 148.026C446.148 149.032 446.702 149.952 447.437 150.722C448.171 151.491 449.066 152.092 450.06 152.482C451.054 152.871 452.121 153.04 453.188 152.976L463.167 176.753L470.715 165.659L460.082 144.78C459.855 143.011 458.981 141.385 457.626 140.212C456.271 139.039 454.529 138.399 452.73 138.414C450.931 138.429 449.2 139.097 447.866 140.293C446.531 141.489 445.685 143.129 445.488 144.902L445.488 144.902Z" fill="#FFB8B8"/>
<path d="M513.876 228.918C514.937 228.792 515.957 228.437 516.865 227.878C517.772 227.319 518.546 226.569 519.129 225.682C519.713 224.795 520.094 223.791 520.245 222.742C520.395 221.694 520.312 220.625 520.001 219.611L540.996 204.449L528.356 199.755L510.356 214.873C508.674 215.505 507.283 216.726 506.448 218.306C505.613 219.886 505.391 221.714 505.825 223.446C506.259 225.177 507.318 226.69 508.802 227.698C510.286 228.707 512.091 229.141 513.876 228.918V228.918Z" fill="#FFB8B8"/>
<path d="M479.65 192.605C478.845 192.605 478.042 192.526 477.252 192.371C475.342 192.011 473.551 191.19 472.037 189.981C470.523 188.773 469.331 187.213 468.568 185.441L454.588 168.538C454.292 168.181 454.077 167.765 453.957 167.318C453.836 166.872 453.814 166.405 453.89 165.949C453.967 165.493 454.141 165.059 454.4 164.675C454.66 164.291 454.999 163.967 455.395 163.723L465.342 157.619C465.709 157.393 466.118 157.242 466.544 157.174C466.97 157.106 467.406 157.122 467.826 157.222C468.246 157.322 468.642 157.504 468.991 157.756C469.34 158.008 469.635 158.327 469.859 158.693L479.713 174.789L498.583 160.961C500.085 160.18 501.821 159.961 503.473 160.344C505.125 160.727 506.582 161.686 507.58 163.047C508.577 164.408 509.048 166.079 508.905 167.755C508.762 169.431 508.016 171 506.803 172.176L487.969 189.211C485.756 191.386 482.766 192.606 479.65 192.605Z" fill="#4D5B76"/>
<path d="M530.638 218.026C530.613 218.026 530.587 218.026 530.561 218.025C530.103 218.014 529.651 217.907 529.237 217.713C528.822 217.518 528.454 217.238 528.155 216.893L519.312 206.664C519.011 206.316 518.787 205.908 518.657 205.468C518.526 205.028 518.492 204.565 518.555 204.11C518.618 203.656 518.778 203.22 519.024 202.831C519.27 202.442 519.596 202.11 519.981 201.855L536.54 190.91L521.538 173.027C520.666 171.585 520.346 169.879 520.637 168.222C520.928 166.565 521.81 165.067 523.123 164.002C524.436 162.937 526.091 162.375 527.787 162.42C529.483 162.465 531.106 163.114 532.359 164.248L550.591 181.914C552.026 183.213 553.121 184.839 553.783 186.651C554.445 188.463 554.654 190.407 554.391 192.316C554.128 194.226 553.402 196.043 552.275 197.613C551.148 199.183 549.653 200.458 547.92 201.329L533.018 217.007C532.712 217.329 532.343 217.585 531.934 217.76C531.525 217.935 531.084 218.025 530.638 218.026Z" fill="#4D5B76"/>
<path d="M510.327 180.334C510.185 180.334 510.043 180.325 509.902 180.307C509.286 180.233 508.705 179.985 508.227 179.593C507.749 179.201 507.394 178.682 507.205 178.096L500.56 157.895C500.394 157.385 500.419 156.831 500.632 156.338C500.845 155.845 501.231 155.444 501.719 155.211L501.934 155.11C502.13 155.018 502.323 154.927 502.521 154.839C505.62 153.415 508.993 152.671 512.408 152.661C516.843 152.669 521.178 153.961 524.882 156.377C525.379 156.705 525.726 157.213 525.848 157.792C525.971 158.371 525.859 158.974 525.537 159.472L513.072 178.835C512.78 179.295 512.374 179.674 511.894 179.936C511.414 180.198 510.875 180.335 510.327 180.334V180.334Z" fill="#B4C7ED"/>
<path d="M535.371 116.473C539.312 116.473 542.506 113.305 542.506 109.398C542.506 105.491 539.312 102.323 535.371 102.323C531.43 102.323 528.236 105.491 528.236 109.398C528.236 113.305 531.43 116.473 535.371 116.473Z" fill="#0F0F0F"/>
<path d="M510.911 101.621C505.899 101.621 501.092 103.596 497.548 107.11C494.004 110.624 492.013 115.39 492.013 120.359V128.287H501.847L506.55 120.359L507.961 128.287H537.804L529.809 120.359C529.809 115.39 527.818 110.624 524.274 107.11C520.73 103.596 515.923 101.621 510.911 101.621V101.621Z" fill="#0F0F0F"/>
<path d="M539.038 104.552C539.827 102.106 541.461 100.013 543.652 98.643C545.843 97.2727 548.451 96.7122 551.017 97.0599C555.564 97.8136 559.16 101.438 561.302 105.486C563.444 109.533 564.433 114.064 565.873 118.406C567.313 122.748 569.356 127.115 572.991 129.926C576.627 132.737 582.206 133.499 585.776 130.607C585.368 133.621 584.015 136.431 581.908 138.641C579.801 140.85 577.047 142.346 574.035 142.919C571.024 143.491 567.907 143.11 565.125 141.829C562.344 140.549 560.039 138.433 558.536 135.783C556.652 132.459 556.166 128.564 555.607 124.792C555.048 121.019 554.322 117.116 552.073 114.024C549.824 110.932 545.613 108.912 542.04 110.321L539.038 104.552Z" fill="#0F0F0F"/>
<path d="M307.028 115.345C300.523 115.344 294.285 112.782 289.685 108.221C285.086 103.66 282.502 97.4745 282.501 91.0247C282.501 86.6257 282.504 83.2624 282.511 82.7841C282.717 67.7169 286.544 52.9157 293.674 39.6084C281.96 55.5089 275.519 74.6261 275.242 94.3152C275.235 94.7935 275.232 98.1568 275.233 102.556C275.233 109.006 277.817 115.191 282.417 119.752C287.016 124.313 293.255 126.875 299.76 126.876V126.876C305.105 126.874 310.303 125.142 314.565 121.944C318.827 118.745 321.92 114.254 323.373 109.154C318.882 113.147 313.06 115.352 307.028 115.345V115.345Z" fill="#B4C7ED"/>
<path d="M373.03 51.2547C380.551 51.6109 387.871 53.7713 394.364 57.5506C400.856 61.33 406.327 66.6152 410.305 72.9526C414.284 79.2899 416.652 86.4901 417.206 93.9347C417.76 101.379 416.484 108.846 413.486 115.694C417.822 110.645 421.008 104.729 422.829 98.3484C424.649 91.9679 425.061 85.2731 424.036 78.7206C423.01 72.168 420.572 65.9118 416.887 60.3783C413.202 54.8449 408.357 50.1644 402.682 46.6558C397.007 43.1473 390.636 40.8933 384.003 40.0474C377.37 39.2016 370.631 39.7838 364.246 41.7544C357.86 43.725 351.978 47.0377 347.001 51.4665C342.024 55.8953 338.068 61.3362 335.404 67.4183C340.009 62.0472 345.796 57.7965 352.32 54.9941C358.843 52.1917 365.929 50.9123 373.03 51.2547V51.2547Z" fill="#B4C7ED"/>
<path d="M380.577 266.69C373.941 266.692 367.57 264.107 362.84 259.493C358.109 254.879 355.397 248.605 355.289 242.027C354.982 222.96 354.822 199.468 354.822 196.783C354.818 190.252 355.766 183.754 357.638 177.492L357.629 177.49C358.734 174.346 360.069 171.287 361.622 168.336C356.853 174.638 353.057 181.61 350.361 189.021L350.369 189.023C348.498 195.285 347.55 201.783 347.554 208.314C347.554 210.999 347.713 234.491 348.021 253.558C348.129 260.136 350.84 266.41 355.571 271.024C360.302 275.638 366.672 278.223 373.308 278.221V278.221C378.779 278.22 384.103 276.461 388.48 273.206C392.858 269.951 396.053 265.377 397.586 260.169C392.937 264.373 386.869 266.699 380.577 266.69V266.69Z" fill="#B4C7ED"/>
<path d="M153.368 370.864L162.279 370.863L166.518 336.783L153.366 336.784L153.368 370.864Z" fill="#FFB8B8"/>
<path d="M179.465 379.067L151.459 379.069L151.458 368.34L168.644 368.339C171.514 368.339 174.266 369.469 176.295 371.481C178.325 373.493 179.465 376.222 179.465 379.067V379.067L179.465 379.067Z" fill="#B4C7ED"/>
<path d="M121.387 370.864L130.297 370.863L134.537 336.783L121.385 336.784L121.387 370.864Z" fill="#FFB8B8"/>
<path d="M147.483 379.067L119.477 379.069L119.477 368.34L136.662 368.339C139.532 368.339 142.284 369.469 144.314 371.481C146.343 373.493 147.483 376.222 147.483 379.067V379.067L147.483 379.067Z" fill="#B4C7ED"/>
<path d="M129.174 360.383L120.47 359.929C120.021 359.905 119.581 359.794 119.176 359.601C118.771 359.408 118.409 359.137 118.11 358.804C117.811 358.471 117.582 358.082 117.436 357.661C117.29 357.24 117.229 356.794 117.258 356.349L127.661 242.144L175.569 254.962L180.184 253.713L165.75 354.815C165.627 355.576 165.247 356.272 164.671 356.789C164.095 357.306 163.358 357.612 162.583 357.658L153.2 358.092C152.731 358.118 152.261 358.047 151.821 357.883C151.381 357.72 150.98 357.468 150.643 357.143C150.306 356.818 150.041 356.428 149.864 355.996C149.687 355.565 149.603 355.101 149.615 354.636L151.316 293.956C151.324 293.675 151.225 293.402 151.04 293.19C150.855 292.977 150.596 292.842 150.315 292.809C150.034 292.776 149.75 292.85 149.521 293.014C149.291 293.178 149.132 293.422 149.075 293.696L132.679 357.703C132.524 358.462 132.109 359.145 131.503 359.635C130.898 360.124 130.139 360.39 129.358 360.388C129.297 360.388 129.236 360.386 129.174 360.383Z" fill="#4D5B76"/>
<path d="M154.968 148.7C164.828 148.7 172.82 140.775 172.82 130.999C172.82 121.223 164.828 113.298 154.968 113.298C145.109 113.298 137.116 121.223 137.116 130.999C137.116 140.775 145.109 148.7 154.968 148.7Z" fill="#FFB8B8"/>
<path d="M125.246 183.003L127.208 224.996L127.918 240.274C127.946 240.939 128.174 241.581 128.572 242.117C128.97 242.653 129.52 243.059 130.153 243.283L176.188 259.818C176.56 259.955 176.954 260.024 177.351 260.02C177.804 260.022 178.254 259.934 178.672 259.76C179.09 259.586 179.469 259.331 179.785 259.009C180.101 258.687 180.349 258.305 180.513 257.886C180.677 257.466 180.755 257.019 180.741 256.569L178.853 181.065C178.729 174.87 176.43 168.912 172.35 164.218C168.271 159.525 162.668 156.389 156.507 155.352C156.062 155.285 155.609 155.218 155.156 155.158C151.336 154.688 147.458 155.053 143.796 156.229C140.133 157.404 136.775 159.361 133.957 161.962C131.04 164.623 128.747 167.886 127.242 171.522C125.737 175.158 125.055 179.078 125.246 183.003L125.246 183.003Z" fill="#CCCCCC"/>
<path d="M198.179 251.439C197.09 251.104 196.096 250.521 195.274 249.737C194.453 248.953 193.828 247.99 193.449 246.924C193.07 245.858 192.947 244.718 193.091 243.597C193.235 242.476 193.641 241.403 194.277 240.465L178.666 219.882L192.137 219.056L204.897 238.728C206.263 239.775 207.213 241.266 207.582 242.939C207.95 244.611 207.713 246.359 206.911 247.875C206.11 249.392 204.795 250.58 203.199 251.232C201.602 251.883 199.825 251.957 198.179 251.439H198.179Z" fill="#FFB8B8"/>
<path d="M187.203 236.741C186.789 236.574 186.413 236.328 186.096 236.016C185.779 235.705 185.528 235.334 185.356 234.925L161.837 179.364C161.375 178.276 161.134 177.109 161.128 175.929C161.122 174.749 161.35 173.579 161.8 172.486C162.25 171.394 162.912 170.4 163.75 169.561C164.588 168.723 165.583 168.056 166.681 167.599C167.778 167.143 168.956 166.905 170.146 166.899C171.336 166.894 172.516 167.121 173.618 167.568C174.719 168.015 175.721 168.673 176.566 169.504C177.411 170.335 178.083 171.323 178.543 172.412L202.062 227.974C202.41 228.798 202.414 229.724 202.073 230.551C201.732 231.378 201.075 232.036 200.245 232.383L189.803 236.728C189.392 236.901 188.951 236.991 188.504 236.993C188.058 236.995 187.616 236.909 187.203 236.741L187.203 236.741Z" fill="#CCCCCC"/>
<path d="M149.228 234.781L171.818 191.893C172.254 191.068 173.002 190.449 173.898 190.17C174.794 189.891 175.765 189.976 176.597 190.406L209.387 207.386C210.218 207.818 210.844 208.559 211.125 209.447C211.406 210.336 211.32 211.298 210.886 212.124L188.297 255.012C187.861 255.836 187.113 256.456 186.217 256.735C185.321 257.014 184.35 256.929 183.518 256.499L150.728 239.519C149.896 239.087 149.271 238.346 148.99 237.457C148.709 236.569 148.795 235.606 149.228 234.781Z" fill="#3F3D56"/>
<path d="M164.378 215.186C163.976 214.128 163.331 213.178 162.493 212.411C161.656 211.645 160.649 211.083 159.553 210.771C158.457 210.458 157.303 210.404 156.183 210.613C155.062 210.821 154.006 211.287 153.1 211.972L131.455 197.735L131.418 211.118L151.978 222.586C153.113 223.876 154.67 224.729 156.375 224.995C158.081 225.26 159.827 224.922 161.306 224.04C162.785 223.157 163.904 221.786 164.466 220.167C165.027 218.548 164.996 216.785 164.378 215.186V215.186Z" fill="#FFB8B8"/>
<path d="M137.012 218.196L119.323 204.303C117.41 203.666 115.68 202.578 114.284 201.132C112.888 199.686 111.867 197.927 111.307 196.003C110.748 194.08 110.668 192.051 111.074 190.091C111.479 188.13 112.359 186.296 113.637 184.747L129.698 163.876C130.814 162.523 132.384 161.615 134.12 161.315C135.856 161.016 137.643 161.346 139.154 162.246C140.665 163.145 141.799 164.554 142.349 166.214C142.899 167.874 142.828 169.675 142.149 171.288L129.441 191.899L148.116 200.682C148.55 200.887 148.936 201.18 149.248 201.543C149.559 201.906 149.789 202.33 149.923 202.788C150.057 203.246 150.091 203.726 150.024 204.198C149.957 204.67 149.789 205.122 149.532 205.525L141.994 217.355C141.739 217.754 141.402 218.096 141.006 218.358C140.609 218.62 140.162 218.796 139.692 218.876C139.673 218.879 139.654 218.882 139.636 218.885C139.174 218.954 138.703 218.929 138.252 218.81C137.801 218.692 137.379 218.483 137.012 218.196V218.196Z" fill="#CCCCCC"/>
<path d="M141.478 142.852C141.402 142.63 141.378 142.393 141.407 142.16C141.437 141.927 141.521 141.704 141.651 141.508C141.781 141.312 141.955 141.148 142.159 141.029C142.363 140.91 142.592 140.838 142.828 140.82C143.311 140.846 143.784 140.969 144.219 141.182C144.653 141.394 145.039 141.692 145.354 142.056C146 142.795 146.753 143.435 147.587 143.957C148.45 144.388 149.621 144.327 150.114 143.504C150.576 142.731 150.259 141.696 149.979 140.799C149.267 138.515 148.869 136.147 148.795 133.758C148.714 131.091 149.094 128.308 150.583 126.228C152.504 123.543 155.94 122.524 159.192 122.598C162.444 122.672 165.644 123.667 168.865 124.297C169.977 124.514 171.284 124.625 172.028 123.77C172.818 122.862 172.528 121.391 172.192 120.164C171.319 116.981 170.393 113.689 168.365 111.118C166.172 108.446 163.039 106.698 159.598 106.224C156.294 105.818 152.941 106.196 149.813 107.326C144.717 108.918 140.233 112.016 136.96 116.204C133.587 120.657 132.129 126.254 132.906 131.771C133.665 136.575 136.232 140.916 140.091 143.918L141.478 142.852Z" fill="#0F0F0F"/>
<path d="M367.583 371.004C362.833 368.953 358.63 365.836 355.303 361.898C351.977 357.96 349.619 353.309 348.416 348.313C347.213 343.317 347.197 338.112 348.37 333.108C349.543 328.105 351.873 323.441 355.176 319.483C351.346 322.255 348.156 325.803 345.815 329.891C343.475 333.98 342.038 338.515 341.6 343.195C341.162 347.876 341.734 352.596 343.276 357.041C344.819 361.486 347.297 365.556 350.547 368.978C353.797 372.401 357.744 375.1 362.126 376.895C366.508 378.689 371.225 379.54 375.963 379.389C380.702 379.238 385.354 378.089 389.611 376.019C393.868 373.95 397.632 371.006 400.654 367.383C395.941 370.799 390.408 372.93 384.605 373.565C378.803 374.201 372.934 373.318 367.583 371.004V371.004Z" fill="#B4C7ED"/>
<path d="M659.392 372.526C659.392 372.526 659.387 372.53 659.377 372.538C659.386 372.53 659.391 372.526 659.392 372.526ZM653.922 372.948C654.936 373.135 655.812 373.32 656.557 373.5C655.812 373.68 654.936 373.865 653.922 374.052C649.614 374.849 643.196 375.627 634.85 376.374C618.177 377.864 594.016 379.21 564.123 380.34C504.347 382.601 421.748 384 330.5 384C239.252 384 156.653 382.601 96.8768 380.34C66.9835 379.21 42.8234 377.864 26.1505 376.374C17.8043 375.627 11.3863 374.849 7.07809 374.052C6.06435 373.865 5.18763 373.68 4.44302 373.5C5.18763 373.32 6.06435 373.135 7.07809 372.948C11.3863 372.151 17.8043 371.373 26.1505 370.626C42.8234 369.136 66.9835 367.79 96.8768 366.66C156.653 364.399 239.252 363 330.5 363C421.748 363 504.347 364.399 564.123 366.66C594.016 367.79 618.177 369.136 634.85 370.626C643.196 371.373 649.614 372.151 653.922 372.948ZM1.60836 372.526C1.60875 372.526 1.61417 372.53 1.62347 372.538C1.61262 372.53 1.60797 372.526 1.60836 372.526ZM1.60836 374.474C1.60797 374.474 1.61263 374.47 1.62348 374.462C1.61417 374.47 1.60875 374.474 1.60836 374.474ZM659.377 374.462C659.387 374.47 659.392 374.474 659.392 374.474C659.391 374.474 659.386 374.47 659.377 374.462Z" stroke="url(#paint42_linear_0_1)" stroke-width="4"/>
<defs>
<linearGradient id="paint0_linear_0_1" x1="118.324" y1="101.104" x2="197.357" y2="101.104" gradientUnits="userSpaceOnUse">
<stop stop-color="#BD24DF"/>
<stop offset="1" stop-color="#2D6ADE"/>
</linearGradient>
<linearGradient id="paint1_linear_0_1" x1="130.84" y1="113.519" x2="209.873" y2="113.519" gradientUnits="userSpaceOnUse">
<stop stop-color="#BD24DF"/>
<stop offset="1" stop-color="#2D6ADE"/>
</linearGradient>
<linearGradient id="paint2_linear_0_1" x1="143.356" y1="125.934" x2="222.389" y2="125.934" gradientUnits="userSpaceOnUse">
<stop stop-color="#BD24DF"/>
<stop offset="1" stop-color="#2D6ADE"/>
</linearGradient>
<linearGradient id="paint3_linear_0_1" x1="118.324" y1="138.348" x2="197.357" y2="138.348" gradientUnits="userSpaceOnUse">
<stop stop-color="#BD24DF"/>
<stop offset="1" stop-color="#2D6ADE"/>
</linearGradient>
<linearGradient id="paint4_linear_0_1" x1="118.324" y1="288.907" x2="197.357" y2="288.907" gradientUnits="userSpaceOnUse">
<stop stop-color="#BD24DF"/>
<stop offset="1" stop-color="#2D6ADE"/>
</linearGradient>
<linearGradient id="paint5_linear_0_1" x1="130.84" y1="301.322" x2="209.873" y2="301.322" gradientUnits="userSpaceOnUse">
<stop stop-color="#BD24DF"/>
<stop offset="1" stop-color="#2D6ADE"/>
</linearGradient>
<linearGradient id="paint6_linear_0_1" x1="143.356" y1="313.737" x2="222.389" y2="313.737" gradientUnits="userSpaceOnUse">
<stop stop-color="#BD24DF"/>
<stop offset="1" stop-color="#2D6ADE"/>
</linearGradient>
<linearGradient id="paint7_linear_0_1" x1="118.324" y1="326.152" x2="197.357" y2="326.152" gradientUnits="userSpaceOnUse">
<stop stop-color="#BD24DF"/>
<stop offset="1" stop-color="#2D6ADE"/>
</linearGradient>
<linearGradient id="paint8_linear_0_1" x1="583.604" y1="188.745" x2="662.637" y2="188.745" gradientUnits="userSpaceOnUse">
<stop stop-color="#BD24DF"/>
<stop offset="1" stop-color="#2D6ADE"/>
</linearGradient>
<linearGradient id="paint9_linear_0_1" x1="596.12" y1="201.16" x2="675.153" y2="201.16" gradientUnits="userSpaceOnUse">
<stop stop-color="#BD24DF"/>
<stop offset="1" stop-color="#2D6ADE"/>
</linearGradient>
<linearGradient id="paint10_linear_0_1" x1="608.635" y1="213.575" x2="687.669" y2="213.575" gradientUnits="userSpaceOnUse">
<stop stop-color="#BD24DF"/>
<stop offset="1" stop-color="#2D6ADE"/>
</linearGradient>
<linearGradient id="paint11_linear_0_1" x1="583.604" y1="225.99" x2="662.637" y2="225.99" gradientUnits="userSpaceOnUse">
<stop stop-color="#BD24DF"/>
<stop offset="1" stop-color="#2D6ADE"/>
</linearGradient>
<linearGradient id="paint12_linear_0_1" x1="841.685" y1="188.745" x2="920.718" y2="188.745" gradientUnits="userSpaceOnUse">
<stop stop-color="#BD24DF"/>
<stop offset="1" stop-color="#2D6ADE"/>
</linearGradient>
<linearGradient id="paint13_linear_0_1" x1="854.201" y1="201.16" x2="933.234" y2="201.16" gradientUnits="userSpaceOnUse">
<stop stop-color="#BD24DF"/>
<stop offset="1" stop-color="#2D6ADE"/>
</linearGradient>
<linearGradient id="paint14_linear_0_1" x1="866.717" y1="213.575" x2="945.75" y2="213.575" gradientUnits="userSpaceOnUse">
<stop stop-color="#BD24DF"/>
<stop offset="1" stop-color="#2D6ADE"/>
</linearGradient>
<linearGradient id="paint15_linear_0_1" x1="841.685" y1="225.99" x2="920.718" y2="225.99" gradientUnits="userSpaceOnUse">
<stop stop-color="#BD24DF"/>
<stop offset="1" stop-color="#2D6ADE"/>
</linearGradient>
<linearGradient id="paint16_linear_0_1" x1="377.945" y1="101.104" x2="456.978" y2="101.104" gradientUnits="userSpaceOnUse">
<stop stop-color="#BD24DF"/>
<stop offset="1" stop-color="#2D6ADE"/>
</linearGradient>
<linearGradient id="paint17_linear_0_1" x1="390.461" y1="113.519" x2="469.494" y2="113.519" gradientUnits="userSpaceOnUse">
<stop stop-color="#BD24DF"/>
<stop offset="1" stop-color="#2D6ADE"/>
</linearGradient>
<linearGradient id="paint18_linear_0_1" x1="402.977" y1="125.934" x2="482.01" y2="125.934" gradientUnits="userSpaceOnUse">
<stop stop-color="#BD24DF"/>
<stop offset="1" stop-color="#2D6ADE"/>
</linearGradient>
<linearGradient id="paint19_linear_0_1" x1="377.945" y1="138.348" x2="456.978" y2="138.348" gradientUnits="userSpaceOnUse">
<stop stop-color="#BD24DF"/>
<stop offset="1" stop-color="#2D6ADE"/>
</linearGradient>
<linearGradient id="paint20_linear_0_1" x1="636.026" y1="101.104" x2="715.059" y2="101.104" gradientUnits="userSpaceOnUse">
<stop stop-color="#BD24DF"/>
<stop offset="1" stop-color="#2D6ADE"/>
</linearGradient>
<linearGradient id="paint21_linear_0_1" x1="648.542" y1="113.519" x2="727.575" y2="113.519" gradientUnits="userSpaceOnUse">
<stop stop-color="#BD24DF"/>
<stop offset="1" stop-color="#2D6ADE"/>
</linearGradient>
<linearGradient id="paint22_linear_0_1" x1="661.058" y1="125.934" x2="740.091" y2="125.934" gradientUnits="userSpaceOnUse">
<stop stop-color="#BD24DF"/>
<stop offset="1" stop-color="#2D6ADE"/>
</linearGradient>
<linearGradient id="paint23_linear_0_1" x1="636.026" y1="138.348" x2="715.059" y2="138.348" gradientUnits="userSpaceOnUse">
<stop stop-color="#BD24DF"/>
<stop offset="1" stop-color="#2D6ADE"/>
</linearGradient>
<linearGradient id="paint24_linear_0_1" x1="6.95313" y1="188.745" x2="85.9862" y2="188.745" gradientUnits="userSpaceOnUse">
<stop stop-color="#BD24DF"/>
<stop offset="1" stop-color="#2D6ADE"/>
</linearGradient>
<linearGradient id="paint25_linear_0_1" x1="19.4691" y1="201.16" x2="98.5022" y2="201.16" gradientUnits="userSpaceOnUse">
<stop stop-color="#BD24DF"/>
<stop offset="1" stop-color="#2D6ADE"/>
</linearGradient>
<linearGradient id="paint26_linear_0_1" x1="31.985" y1="213.575" x2="111.018" y2="213.575" gradientUnits="userSpaceOnUse">
<stop stop-color="#BD24DF"/>
<stop offset="1" stop-color="#2D6ADE"/>
</linearGradient>
<linearGradient id="paint27_linear_0_1" x1="6.95313" y1="225.99" x2="85.9862" y2="225.99" gradientUnits="userSpaceOnUse">
<stop stop-color="#BD24DF"/>
<stop offset="1" stop-color="#2D6ADE"/>
</linearGradient>
<linearGradient id="paint28_linear_0_1" x1="295.278" y1="188.745" x2="374.311" y2="188.745" gradientUnits="userSpaceOnUse">
<stop stop-color="#BD24DF"/>
<stop offset="1" stop-color="#2D6ADE"/>
</linearGradient>
<linearGradient id="paint29_linear_0_1" x1="307.794" y1="201.16" x2="386.827" y2="201.16" gradientUnits="userSpaceOnUse">
<stop stop-color="#BD24DF"/>
<stop offset="1" stop-color="#2D6ADE"/>
</linearGradient>
<linearGradient id="paint30_linear_0_1" x1="320.31" y1="213.575" x2="399.343" y2="213.575" gradientUnits="userSpaceOnUse">
<stop stop-color="#BD24DF"/>
<stop offset="1" stop-color="#2D6ADE"/>
</linearGradient>
<linearGradient id="paint31_linear_0_1" x1="295.278" y1="225.99" x2="374.311" y2="225.99" gradientUnits="userSpaceOnUse">
<stop stop-color="#BD24DF"/>
<stop offset="1" stop-color="#2D6ADE"/>
</linearGradient>
<linearGradient id="paint32_linear_0_1" x1="464.112" y1="288.907" x2="543.145" y2="288.907" gradientUnits="userSpaceOnUse">
<stop stop-color="#BD24DF"/>
<stop offset="1" stop-color="#2D6ADE"/>
</linearGradient>
<linearGradient id="paint33_linear_0_1" x1="476.628" y1="301.322" x2="555.661" y2="301.322" gradientUnits="userSpaceOnUse">
<stop stop-color="#BD24DF"/>
<stop offset="1" stop-color="#2D6ADE"/>
</linearGradient>
<linearGradient id="paint34_linear_0_1" x1="489.144" y1="313.737" x2="568.177" y2="313.737" gradientUnits="userSpaceOnUse">
<stop stop-color="#BD24DF"/>
<stop offset="1" stop-color="#2D6ADE"/>
</linearGradient>
<linearGradient id="paint35_linear_0_1" x1="464.112" y1="326.152" x2="543.145" y2="326.152" gradientUnits="userSpaceOnUse">
<stop stop-color="#BD24DF"/>
<stop offset="1" stop-color="#2D6ADE"/>
</linearGradient>
<linearGradient id="paint36_linear_0_1" x1="722.194" y1="288.907" x2="801.227" y2="288.907" gradientUnits="userSpaceOnUse">
<stop stop-color="#BD24DF"/>
<stop offset="1" stop-color="#2D6ADE"/>
</linearGradient>
<linearGradient id="paint37_linear_0_1" x1="734.71" y1="301.322" x2="813.743" y2="301.322" gradientUnits="userSpaceOnUse">
<stop stop-color="#BD24DF"/>
<stop offset="1" stop-color="#2D6ADE"/>
</linearGradient>
<linearGradient id="paint38_linear_0_1" x1="747.226" y1="313.737" x2="826.259" y2="313.737" gradientUnits="userSpaceOnUse">
<stop stop-color="#BD24DF"/>
<stop offset="1" stop-color="#2D6ADE"/>
</linearGradient>
<linearGradient id="paint39_linear_0_1" x1="722.194" y1="326.152" x2="801.227" y2="326.152" gradientUnits="userSpaceOnUse">
<stop stop-color="#BD24DF"/>
<stop offset="1" stop-color="#2D6ADE"/>
</linearGradient>
<linearGradient id="paint40_linear_0_1" x1="341.514" y1="345.939" x2="406.477" y2="345.939" gradientUnits="userSpaceOnUse">
<stop stop-color="#BD24DF"/>
<stop offset="1" stop-color="#2D6ADE"/>
</linearGradient>
<linearGradient id="paint41_linear_0_1" x1="275.576" y1="139.1" x2="463.05" y2="139.1" gradientUnits="userSpaceOnUse">
<stop stop-color="#BD24DF"/>
<stop offset="1" stop-color="#2D6ADE"/>
</linearGradient>
<linearGradient id="paint42_linear_0_1" x1="330.5" y1="361" x2="330.5" y2="386" gradientUnits="userSpaceOnUse">
<stop offset="0.223958" stop-color="#BD24DF" stop-opacity="0"/>
<stop offset="1" stop-color="#BD24DF"/>
</linearGradient>
</defs>
</svg>
